<svg width="59" height="64" viewBox="0 0 59 64" fill="none" xmlns="http://www.w3.org/2000/svg">
<g clip-path="url(#clip0_49_2624)">
<path d="M29.5127 17.6249C21.1368 17.6249 14.3808 24.0374 14.3808 31.9874C14.3808 39.9374 21.1368 46.3499 29.5127 46.3499C37.8886 46.3499 44.6446 39.9374 44.6446 31.9874C44.6446 24.0374 37.8886 17.6249 29.5127 17.6249ZM29.5127 41.3249C24.1 41.3249 19.675 37.1374 19.675 31.9874C19.675 26.8374 24.0868 22.6499 29.5127 22.6499C34.9386 22.6499 39.3505 26.8374 39.3505 31.9874C39.3505 37.1374 34.9255 41.3249 29.5127 41.3249ZM48.7931 17.0374C48.7931 18.8999 47.2127 20.3874 45.2636 20.3874C43.3013 20.3874 41.7342 18.8874 41.7342 17.0374C41.7342 15.1874 43.3145 13.6874 45.2636 13.6874C47.2127 13.6874 48.7931 15.1874 48.7931 17.0374ZM58.8152 20.4374C58.5913 15.9499 57.5114 11.9749 54.0478 8.6999C50.5973 5.4249 46.4094 4.3999 41.6815 4.1749C36.8087 3.9124 22.2036 3.9124 17.3308 4.1749C12.6161 4.3874 8.42813 5.4124 4.96452 8.6874C1.5009 11.9624 0.43416 15.9374 0.197107 20.4249C-0.0794556 25.0499 -0.0794556 38.9124 0.197107 43.5374C0.420991 48.0249 1.5009 51.9999 4.96452 55.2749C8.42813 58.5499 12.6029 59.5749 17.3308 59.7999C22.2036 60.0624 36.8087 60.0624 41.6815 59.7999C46.4094 59.5874 50.5973 58.5624 54.0478 55.2749C57.4982 51.9999 58.5781 48.0249 58.8152 43.5374C59.0917 38.9124 59.0917 25.0624 58.8152 20.4374ZM52.5201 48.4999C51.4929 50.9499 49.5042 52.8374 46.9098 53.8249C43.0248 55.2874 33.806 54.9499 29.5127 54.9499C25.2194 54.9499 15.9875 55.2749 12.1156 53.8249C9.53438 52.8499 7.54577 50.9624 6.50537 48.4999C4.96452 44.8124 5.3201 36.0624 5.3201 31.9874C5.3201 27.9124 4.97769 19.1499 6.50537 15.4749C7.5326 13.0249 9.52121 11.1374 12.1156 10.1499C16.0007 8.6874 25.2194 9.0249 29.5127 9.0249C33.806 9.0249 43.038 8.6999 46.9098 10.1499C49.4911 11.1249 51.4797 13.0124 52.5201 15.4749C54.0609 19.1624 53.7054 27.9124 53.7054 31.9874C53.7054 36.0624 54.0609 44.8249 52.5201 48.4999Z" fill="#8CEB14"/>
</g>
<defs>
<clipPath id="clip0_49_2624">
<rect width="59" height="64" fill="white"/>
</clipPath>
</defs>
</svg>
