<svg width="59" height="64" viewBox="0 0 59 64" fill="none" xmlns="http://www.w3.org/2000/svg">
<g clip-path="url(#clip0_49_2624)">
<path d="M29.5122 17.6249C21.1364 17.6249 14.3803 24.0374 14.3803 31.9874C14.3803 39.9374 21.1364 46.3499 29.5122 46.3499C37.8881 46.3499 44.6442 39.9374 44.6442 31.9874C44.6442 24.0374 37.8881 17.6249 29.5122 17.6249ZM29.5122 41.3249C24.0995 41.3249 19.6745 37.1374 19.6745 31.9874C19.6745 26.8374 24.0863 22.6499 29.5122 22.6499C34.9381 22.6499 39.35 26.8374 39.35 31.9874C39.35 37.1374 34.925 41.3249 29.5122 41.3249ZM48.7926 17.0374C48.7926 18.8999 47.2122 20.3874 45.2631 20.3874C43.3009 20.3874 41.7337 18.8874 41.7337 17.0374C41.7337 15.1874 43.314 13.6874 45.2631 13.6874C47.2122 13.6874 48.7926 15.1874 48.7926 17.0374ZM58.8147 20.4374C58.5908 15.9499 57.5109 11.9749 54.0473 8.6999C50.5968 5.4249 46.4089 4.3999 41.681 4.1749C36.8082 3.9124 22.2031 3.9124 17.3303 4.1749C12.6156 4.3874 8.42764 5.4124 4.96403 8.6874C1.50041 11.9624 0.433672 15.9374 0.196619 20.4249C-0.0799438 25.0499 -0.0799438 38.9124 0.196619 43.5374C0.420503 48.0249 1.50041 51.9999 4.96403 55.2749C8.42764 58.5499 12.6024 59.5749 17.3303 59.7999C22.2031 60.0624 36.8082 60.0624 41.681 59.7999C46.4089 59.5874 50.5968 58.5624 54.0473 55.2749C57.4977 51.9999 58.5776 48.0249 58.8147 43.5374C59.0913 38.9124 59.0913 25.0624 58.8147 20.4374ZM52.5196 48.4999C51.4924 50.9499 49.5038 52.8374 46.9093 53.8249C43.0243 55.2874 33.8055 54.9499 29.5122 54.9499C25.2189 54.9499 15.987 55.2749 12.1151 53.8249C9.53389 52.8499 7.54528 50.9624 6.50488 48.4999C4.96403 44.8124 5.31961 36.0624 5.31961 31.9874C5.31961 27.9124 4.9772 19.1499 6.50488 15.4749C7.53211 13.0249 9.52072 11.1374 12.1151 10.1499C16.0002 8.6874 25.2189 9.0249 29.5122 9.0249C33.8055 9.0249 43.0375 8.6999 46.9093 10.1499C49.4906 11.1249 51.4792 13.0124 52.5196 15.4749C54.0605 19.1624 53.7049 27.9124 53.7049 31.9874C53.7049 36.0624 54.0605 44.8249 52.5196 48.4999Z" fill="#F2F2F2"/>
</g>
<defs>
<clipPath id="clip0_49_2624">
<rect width="59" height="64" fill="white"/>
</clipPath>
</defs>
</svg>
