<svg width="24" height="28" viewBox="0 0 24 28" fill="none" xmlns="http://www.w3.org/2000/svg">
<g clip-path="url(#clip0_214_1854)">
<path d="M23.9999 11.4795C21.6414 11.4852 19.3407 10.7344 17.4229 9.33297V19.1067C17.4223 20.9169 16.8803 22.6838 15.8694 24.171C14.8585 25.6583 13.4269 26.7951 11.7661 27.4294C10.1052 28.0636 8.29429 28.1652 6.57538 27.7204C4.85647 27.2757 3.31154 26.3058 2.14716 24.9405C0.982787 23.5753 0.254466 21.8796 0.0595889 20.0804C-0.135289 18.2811 0.212566 16.4641 1.05664 14.8721C1.90071 13.2801 3.20077 11.9891 4.78298 11.1718C6.36519 10.3544 8.15413 10.0496 9.91059 10.2982V15.2141C9.10683 14.956 8.24374 14.9637 7.44456 15.2363C6.64538 15.5088 5.951 16.0321 5.46057 16.7316C4.97013 17.431 4.70874 18.2707 4.7137 19.1308C4.71866 19.991 4.98973 20.8275 5.4882 21.521C5.98667 22.2145 6.68705 22.7294 7.48931 22.9923C8.29158 23.2552 9.1547 23.2526 9.95543 22.9849C10.7562 22.7171 11.4535 22.198 11.948 21.5015C12.4424 20.805 12.7086 19.9669 12.7086 19.1067V0H17.4229C17.4196 0.406405 17.453 0.812255 17.5226 1.21242C17.6864 2.10573 18.027 2.95554 18.5236 3.70985C19.0201 4.46417 19.6622 5.10715 20.4106 5.59945C21.4753 6.3181 22.7235 6.70113 23.9999 6.70086V11.4795Z" fill="#8CEB14"/>
</g>
<defs>
<clipPath id="clip0_214_1854">
<rect width="24" height="28" fill="white"/>
</clipPath>
</defs>
</svg>
