<svg width="61" height="64" viewBox="0 0 61 64" fill="none" xmlns="http://www.w3.org/2000/svg">
<path d="M30.5 1C13.6553 1 0 14.8791 0 32C0 49.1209 13.6553 63 30.5 63C47.3447 63 61 49.1209 61 32C61 14.8791 47.3447 1 30.5 1ZM44.6372 22.0825C44.1783 26.9844 42.1922 38.8797 41.1814 44.37C40.7539 46.693 39.912 47.472 39.0971 47.5481C37.3261 47.7139 35.9809 46.3585 34.2654 45.2155C31.581 43.427 30.0645 42.3136 27.4587 40.5684C24.4475 38.5515 26.3996 37.4434 28.1157 35.6309C28.5648 35.1567 36.3688 27.9421 36.5198 27.2876C36.5386 27.2057 36.5567 26.9001 36.3779 26.7396C36.1991 26.5791 35.9364 26.6335 35.7464 26.6771C35.4772 26.7393 31.1888 29.6202 22.8813 35.3199C21.6641 36.1694 20.5616 36.5833 19.5737 36.5616C18.4847 36.5378 16.3899 35.9359 14.8326 35.4212C12.9225 34.7902 11.4044 34.4566 11.5366 33.3849C11.6055 32.8265 12.3618 32.2557 13.8057 31.6724C22.6971 27.735 28.6261 25.1392 31.5926 23.8849C40.0627 20.304 41.8228 19.682 42.9699 19.6612C43.2223 19.657 43.7864 19.7205 44.1518 20.0219C44.3949 20.2366 44.5498 20.5362 44.586 20.8614C44.6479 21.2652 44.6651 21.6748 44.6372 22.0825Z" fill="#F2F2F2"/>
</svg>
