<svg width="62" height="64" viewBox="0 0 62 64" fill="none" xmlns="http://www.w3.org/2000/svg">
<path d="M4.35809 7.93634C0 11.8727 0 18.2089 0 30.88V33.12C0 45.7911 0 52.1274 4.35809 56.0636C8.71616 60 15.7313 60 29.76 60H32.24C46.2687 60 53.2839 60 57.6419 56.0636C62 52.1274 62 45.7911 62 33.12V30.88C62 18.2089 62 11.8727 57.6419 7.93634C53.2839 4 46.2687 4 32.24 4H29.76C15.7313 4 8.71616 4 4.35809 7.93634ZM10.4625 21.0334H17.5409C17.7734 31.72 22.9916 36.2466 27.125 37.18V21.0334H33.79V30.25C37.8716 29.8534 42.16 25.6534 43.6066 21.0334H50.2716C49.7263 23.4294 48.6396 25.6979 47.0793 27.6974C45.5192 29.6967 43.5192 31.3839 41.2041 32.6534C43.7889 33.8124 46.0719 35.4538 47.9022 37.4689C49.7324 39.4841 51.0683 41.8273 51.8216 44.3434H44.485C43.8089 42.1578 42.4332 40.2012 40.5304 38.7192C38.6278 37.2374 36.2829 36.296 33.79 36.0134V44.3434H32.9891C18.8584 44.3434 10.7983 35.5934 10.4625 21.0334Z" fill="#8CEB14"/>
</svg>
