<svg width="24" height="28" viewBox="0 0 24 28" fill="none" xmlns="http://www.w3.org/2000/svg">
<g clip-path="url(#clip0_12_25)">
<path d="M12 14C13.8186 14 17 11.5 17 11.5C17 11.5 18.8571 7.8125 18.8571 7.25C18.8572 6.6875 17.5 1 17.5 1L12.5 3L8 3.875C8 3.875 5.14286 5.45979 5.14286 7.25C5.14286 9.04021 5.86531 10.7571 7.15127 12.023C8.43723 13.2888 10.1814 14 12 14ZM9.55179 16.5312C4.275 16.5312 2.2857 19.4932 2.2857 24.6875C2.2857 25.5523 0.712501 27.5 1.59107 27.5H22.4089C23.2875 27.5 22.8571 22.7398 22.8571 21.875C22.8571 16.6807 19.725 16.5312 14.4482 16.5312H9.55179Z" fill="#8CEB14"/>
</g>
<defs>
<clipPath id="clip0_12_25">
<rect width="24" height="27" fill="white" transform="translate(0 0.5)"/>
</clipPath>
</defs>
</svg>
