<svg width="26" height="24" viewBox="0 0 26 24" fill="none" xmlns="http://www.w3.org/2000/svg">
<path d="M0 1.125C0 0.501562 0.487117 0 1.0926 0H3.16398C4.16553 0 5.05327 0.6 5.46755 1.5H24.1783C25.3756 1.5 26.2497 2.67188 25.9356 3.8625L24.069 11.0016C23.6821 12.4734 22.3846 13.5 20.9051 13.5H7.77111L8.01694 14.8359C8.1171 15.3656 8.56779 15.75 9.09133 15.75H22.2162C22.8217 15.75 23.3088 16.2516 23.3088 16.875C23.3088 17.4984 22.8217 18 22.2162 18H9.09133C7.51617 18 6.16408 16.8469 5.87272 15.2578L3.52363 2.55469C3.49176 2.37656 3.34153 2.25 3.16398 2.25H1.0926C0.487117 2.25 0 1.74844 0 1.125ZM5.82719 21.75C5.82719 21.4545 5.88371 21.1619 5.99353 20.889C6.10335 20.616 6.26431 20.3679 6.46722 20.159C6.67014 19.9501 6.91103 19.7843 7.17615 19.6713C7.44127 19.5582 7.72543 19.5 8.01239 19.5C8.29935 19.5 8.58351 19.5582 8.84863 19.6713C9.11375 19.7843 9.35464 19.9501 9.55756 20.159C9.76047 20.3679 9.92143 20.616 10.0312 20.889C10.1411 21.1619 10.1976 21.4545 10.1976 21.75C10.1976 22.0455 10.1411 22.3381 10.0312 22.611C9.92143 22.884 9.76047 23.1321 9.55756 23.341C9.35464 23.5499 9.11375 23.7157 8.84863 23.8287C8.58351 23.9418 8.29935 24 8.01239 24C7.72543 24 7.44127 23.9418 7.17615 23.8287C6.91103 23.7157 6.67014 23.5499 6.46722 23.341C6.26431 23.1321 6.10335 22.884 5.99353 22.611C5.88371 22.3381 5.82719 22.0455 5.82719 21.75ZM21.1236 19.5C21.7031 19.5 22.2589 19.7371 22.6687 20.159C23.0785 20.581 23.3088 21.1533 23.3088 21.75C23.3088 22.3467 23.0785 22.919 22.6687 23.341C22.2589 23.7629 21.7031 24 21.1236 24C20.544 24 19.9882 23.7629 19.5784 23.341C19.1686 22.919 18.9384 22.3467 18.9384 21.75C18.9384 21.1533 19.1686 20.581 19.5784 20.159C19.9882 19.7371 20.544 19.5 21.1236 19.5Z" fill="#8CEB14"/>
</svg>
