<svg width="26" height="35" viewBox="0 0 26 35" fill="none" xmlns="http://www.w3.org/2000/svg">
<path d="M0 12.125C0 11.5016 0.487117 11 1.0926 11H3.16398C4.16553 11 5.05327 11.6 5.46755 12.5H24.1783C25.3756 12.5 26.2497 13.6719 25.9356 14.8625L24.069 22.0016C23.6821 23.4734 22.3846 24.5 20.9051 24.5H7.77111L8.01694 25.8359C8.1171 26.3656 8.56779 26.75 9.09133 26.75H22.2162C22.8217 26.75 23.3088 27.2516 23.3088 27.875C23.3088 28.4984 22.8217 29 22.2162 29H9.09133C7.51617 29 6.16408 27.8469 5.87272 26.2578L3.52363 13.5547C3.49176 13.3766 3.34153 13.25 3.16398 13.25H1.0926C0.487117 13.25 0 12.7484 0 12.125ZM5.82719 32.75C5.82719 32.4545 5.88371 32.1619 5.99353 31.889C6.10335 31.616 6.26431 31.3679 6.46722 31.159C6.67014 30.9501 6.91103 30.7843 7.17615 30.6713C7.44127 30.5582 7.72543 30.5 8.01239 30.5C8.29935 30.5 8.58351 30.5582 8.84863 30.6713C9.11375 30.7843 9.35464 30.9501 9.55756 31.159C9.76047 31.3679 9.92143 31.616 10.0312 31.889C10.1411 32.1619 10.1976 32.4545 10.1976 32.75C10.1976 33.0455 10.1411 33.3381 10.0312 33.611C9.92143 33.884 9.76047 34.1321 9.55756 34.341C9.35464 34.5499 9.11375 34.7157 8.84863 34.8287C8.58351 34.9418 8.29935 35 8.01239 35C7.72543 35 7.44127 34.9418 7.17615 34.8287C6.91103 34.7157 6.67014 34.5499 6.46722 34.341C6.26431 34.1321 6.10335 33.884 5.99353 33.611C5.88371 33.3381 5.82719 33.0455 5.82719 32.75ZM21.1236 30.5C21.7031 30.5 22.2589 30.7371 22.6687 31.159C23.0785 31.581 23.3088 32.1533 23.3088 32.75C23.3088 33.3467 23.0785 33.919 22.6687 34.341C22.2589 34.7629 21.7031 35 21.1236 35C20.544 35 19.9882 34.7629 19.5784 34.341C19.1686 33.919 18.9384 33.3467 18.9384 32.75C18.9384 32.1533 19.1686 31.581 19.5784 31.159C19.9882 30.7371 20.544 30.5 21.1236 30.5Z" fill="#F2F2F2"/>
<path d="M2.83595 1.27311C3.20314 0.905925 3.79689 0.905925 4.16017 1.27311L6.03907 3.14811C6.13282 3.24186 6.20704 3.35514 6.25392 3.48014L6.85548 5.08171L9.88282 8.11296C11.6445 6.96452 13.7617 6.93327 15 8.17546C15.4297 8.60514 15.7031 9.13639 15.8359 9.72233C15.9805 10.3708 16.582 10.9215 17.2461 10.9567C18.2461 11.0075 19.1719 11.3747 19.875 12.0739C21.625 13.8278 21.2969 16.9919 19.1445 19.1442C16.9922 21.2965 13.8281 21.6247 12.0781 19.8747C11.3789 19.1755 11.0078 18.2458 10.9609 17.2458C10.9258 16.5817 10.375 15.984 9.72657 15.8356C9.14064 15.7028 8.60939 15.4255 8.1797 14.9997C6.93751 13.7575 6.96876 11.6442 8.1172 9.88249L5.08595 6.85124L3.48439 6.24967C3.35939 6.2028 3.2461 6.12858 3.15235 6.03483L1.27735 4.15983C0.910167 3.79264 0.910167 3.19889 1.27735 2.83561L2.83595 1.27311ZM12.875 10.9997C12.3777 10.9997 11.9008 11.1972 11.5492 11.5488C11.1976 11.9005 11 12.3774 11 12.8747C11 13.372 11.1976 13.8489 11.5492 14.2005C11.9008 14.5521 12.3777 14.7497 12.875 14.7497C13.3723 14.7497 13.8492 14.5521 14.2008 14.2005C14.5525 13.8489 14.75 13.372 14.75 12.8747C14.75 12.3774 14.5525 11.9005 14.2008 11.5488C13.8492 11.1972 13.3723 10.9997 12.875 10.9997Z" fill="#F2F2F2"/>
</svg>
