<svg width="27" height="26" viewBox="0 0 27 26" fill="none" xmlns="http://www.w3.org/2000/svg">
<circle cx="13.5" cy="13" r="12.5" stroke="#F2F2F2"/>
<path d="M13.756 20.7648C12.217 20.7648 10.8358 20.4358 9.61246 19.7778C8.40886 19.1199 7.46177 18.2007 6.77118 17.0203C6.08059 15.8205 5.73529 14.4756 5.73529 12.9855C5.73529 11.4955 6.08059 10.1603 6.77118 8.97983C7.46177 7.7994 8.40886 6.88021 9.61246 6.22227C10.8358 5.56432 12.217 5.23535 13.756 5.23535C15.0977 5.23535 16.2915 5.49659 17.3372 6.01908C18.4027 6.52221 19.2413 7.26724 19.8529 8.25415L18.2843 9.29912C17.7713 8.54442 17.1202 7.98324 16.3309 7.61556C15.5417 7.22853 14.6834 7.03502 13.756 7.03502C12.6313 7.03502 11.6152 7.28659 10.7075 7.78972C9.81964 8.2735 9.11919 8.97015 8.60617 9.87966C8.1129 10.7892 7.86626 11.8245 7.86626 12.9855C7.86626 14.166 8.1129 15.2109 8.60617 16.1205C9.11919 17.0106 9.81964 17.7073 10.7075 18.2104C11.6152 18.6942 12.6313 18.9361 13.756 18.9361C14.6834 18.9361 15.5417 18.7522 16.3309 18.3846C17.1202 18.0169 17.7713 17.4557 18.2843 16.701L19.8529 17.746C19.2413 18.7329 18.4027 19.4876 17.3372 20.0101C16.2717 20.5132 15.078 20.7648 13.756 20.7648Z" fill="#F2F2F2"/>
</svg>
