<svg width="24" height="24" viewBox="0 0 24 24" fill="none" xmlns="http://www.w3.org/2000/svg">
<path d="M5.59688 2.06719C6.68906 1.88438 7.79063 1.97813 8.8125 2.31563L11.1469 5.94844L7.6125 9.48281C7.54219 9.55313 7.5 9.65156 7.50469 9.75469C7.50938 9.85781 7.55156 9.95156 7.62656 10.0219L12.8766 14.8969C13.0125 15.0234 13.2234 15.0328 13.3688 14.9109C13.5141 14.7891 13.5469 14.5828 13.4484 14.4234L10.6172 9.825L14.8688 6.28125C14.9906 6.18281 15.0328 6.01406 14.9813 5.86875L13.9125 2.89688C15.2484 2.11406 16.8375 1.80938 18.3984 2.07188C21.6328 2.60625 24 5.4 24 8.67656V8.94844C24 10.8938 23.1938 12.7547 21.7687 14.0813L13.2984 21.9891C12.9469 22.3172 12.4828 22.5 12 22.5C11.5172 22.5 11.0531 22.3172 10.7016 21.9891L2.23125 14.0813C0.80625 12.7547 0 10.8938 0 8.94844V8.67656C0 5.4 2.36719 2.60625 5.59688 2.06719Z" fill="#F2F2F2"/>
</svg>
