<svg width="25" height="28" viewBox="0 0 25 28" fill="none" xmlns="http://www.w3.org/2000/svg">
<path d="M4.74481 12.963C4.91579 12.963 5.02266 12.9414 5.0654 12.8981C4.93716 12.7685 4.87304 12.7037 4.87304 12.7037C4.8303 12.7037 4.80893 12.7253 4.80893 12.7685C4.72343 12.6821 4.65931 12.6605 4.61657 12.7037C4.57382 12.7037 4.53108 12.6605 4.48833 12.5741C4.40284 12.7469 4.36009 12.8117 4.36009 12.7685C4.2746 12.6821 4.21048 12.6389 4.16774 12.6389H3.78302C3.69753 12.6389 3.56929 12.6821 3.39831 12.7685C3.44105 12.7685 3.46243 12.7901 3.46243 12.8333C3.46243 12.8333 3.4838 12.8333 3.52655 12.8333C3.65478 12.7901 3.76165 12.8117 3.84714 12.8981C3.84714 13.0278 3.88989 13.0494 3.97538 12.963C4.10362 12.9198 4.23185 12.9198 4.36009 12.963C4.53108 12.963 4.65931 12.963 4.74481 12.963ZM8.52783 12.6389C8.65607 12.7253 8.76293 12.7469 8.84842 12.7037C8.93392 12.6605 9.01941 12.6173 9.1049 12.5741C8.97666 12.4877 8.86979 12.466 8.7843 12.5093C8.69881 12.5525 8.61332 12.5957 8.52783 12.6389ZM13.3368 16.2685C13.2513 16.1821 13.2085 16.0957 13.2085 16.0093C13.2085 15.8796 13.1871 15.75 13.1444 15.6204C13.1017 15.7068 13.0803 15.858 13.0803 16.0741C13.0803 16.2901 13.123 16.4414 13.2085 16.5278C13.2085 16.4414 13.2513 16.3549 13.3368 16.2685ZM13.1444 17.9537C13.1444 18.213 13.1444 18.4722 13.1444 18.7315C13.1444 18.9475 13.1871 19.1852 13.2726 19.4444H13.4009C13.3154 19.2284 13.2513 18.9907 13.2085 18.7315C13.2085 18.429 13.2085 18.1698 13.2085 17.9537H13.1444ZM13.7856 12.6389C13.8711 12.5525 13.9566 12.5309 14.0421 12.5741C14.1703 12.5741 14.2558 12.4877 14.2985 12.3148C14.1276 12.2716 13.9566 12.2716 13.7856 12.3148C13.6573 12.358 13.5291 12.3796 13.4009 12.3796C13.4009 12.5525 13.4436 12.5957 13.5291 12.5093C13.6146 12.466 13.7001 12.5093 13.7856 12.6389ZM20.6463 12.7685C20.6891 12.7685 20.7318 12.7469 20.7746 12.7037C20.6891 12.6605 20.6036 12.6389 20.5181 12.6389C20.4326 12.5957 20.3257 12.5741 20.1975 12.5741C20.112 12.6605 20.0479 12.6821 20.0051 12.6389C19.9624 12.5957 19.9196 12.5741 19.8769 12.5741C19.6204 12.4012 19.3212 12.358 18.9792 12.4444C18.8937 12.358 18.8082 12.3364 18.7227 12.3796C18.68 12.3796 18.6159 12.3796 18.5304 12.3796C18.4449 12.4228 18.3808 12.4228 18.338 12.3796C18.338 12.3364 18.2953 12.3148 18.2098 12.3148H17.6327C17.419 12.3148 17.2266 12.3148 17.0557 12.3148C16.9274 12.3148 16.7564 12.3364 16.5427 12.3796H16.2862C16.2007 12.3796 16.0939 12.4012 15.9656 12.4444C15.8801 12.4444 15.7946 12.4228 15.7092 12.3796C15.5809 12.3796 15.4527 12.358 15.3244 12.3148C15.2389 12.2716 15.1321 12.2932 15.0038 12.3796H14.8756C14.8756 12.4228 14.897 12.466 14.9397 12.5093C15.0252 12.466 15.1321 12.4877 15.2603 12.5741H15.4527C15.6664 12.5741 15.816 12.5957 15.9015 12.6389H16.3503C16.5641 12.6389 16.7564 12.6389 16.9274 12.6389C17.0984 12.5957 17.2908 12.5957 17.5045 12.6389H18.4022C18.7441 12.6389 19.0006 12.6605 19.1716 12.7037H19.5563C19.6845 12.7469 19.8341 12.7685 20.0051 12.7685H20.3898C20.5181 12.6389 20.6036 12.6389 20.6463 12.7685ZM7.95076 11.6019C7.90801 11.6019 7.88664 11.6019 7.88664 11.6019C7.88664 11.5586 7.86526 11.537 7.82252 11.537C7.90801 11.537 7.97213 11.537 8.01488 11.537C8.05762 11.4938 8.12174 11.5154 8.20723 11.6019H7.95076ZM8.20723 14.9722C8.37822 14.7994 8.59195 14.821 8.84842 15.037C8.72018 15.0802 8.50645 15.0586 8.20723 14.9722ZM24.6858 11.6019C24.985 11.6883 25.0705 11.8395 24.9423 12.0556C24.8141 12.0556 24.7072 12.0123 24.6217 11.9259C24.4935 11.8827 24.408 11.9043 24.3652 11.9907C24.4507 12.0772 24.5362 12.1204 24.6217 12.1204C24.7072 12.1204 24.7713 12.2068 24.8141 12.3796C24.6431 12.3796 24.5362 12.358 24.4935 12.3148C24.2797 12.1852 24.1515 12.142 24.1087 12.1852C23.9805 12.1852 23.8309 12.142 23.6599 12.0556C23.5744 12.0123 23.4676 12.0123 23.3393 12.0556C23.3821 12.142 23.4889 12.2284 23.6599 12.3148C23.8736 12.4444 23.9378 12.5957 23.8523 12.7685C23.7668 12.7253 23.6813 12.6821 23.5958 12.6389C23.5103 12.5957 23.4248 12.5309 23.3393 12.4444H23.2752C23.147 12.4012 22.9332 12.3796 22.634 12.3796C22.7195 12.466 22.7622 12.5093 22.7622 12.5093C22.8477 12.5957 22.8905 12.7037 22.8905 12.8333C22.9332 12.9198 22.9546 13.0062 22.9546 13.0926L22.7622 13.287C22.634 13.2006 22.5699 13.1574 22.5699 13.1574C22.5271 13.071 22.463 13.0278 22.3775 13.0278C22.3348 12.9846 22.2707 12.9198 22.1852 12.8333C22.1424 12.8333 22.0997 12.8333 22.0569 12.8333C22.0142 12.7901 21.9501 12.7685 21.8646 12.7685C21.7791 12.8117 21.6295 12.7901 21.4157 12.7037C21.3303 12.6173 21.2448 12.6173 21.1593 12.7037C21.1165 12.7037 21.0738 12.7037 21.031 12.7037C21.031 12.6605 21.0097 12.6389 20.9669 12.6389C20.9669 12.5957 20.9242 12.6173 20.8387 12.7037C20.9669 12.7901 21.0738 12.8549 21.1593 12.8981C21.2875 12.9414 21.4157 12.9414 21.544 12.8981C21.715 12.8117 21.8646 12.8765 21.9928 13.0926C22.2065 13.1358 22.4203 13.2654 22.634 13.4815C22.6768 13.5679 22.6981 13.6111 22.6981 13.6111C22.7409 13.6111 22.7836 13.6327 22.8264 13.6759C22.7409 13.7623 22.6981 13.8488 22.6981 13.9352C22.6554 13.892 22.6126 13.8704 22.5699 13.8704C22.5699 13.8704 22.5485 13.8488 22.5058 13.8056C22.4203 13.892 22.3562 13.9352 22.3134 13.9352C22.1424 13.8488 22.0356 13.7839 21.9928 13.7407C21.9073 13.6975 21.8005 13.6759 21.6722 13.6759C21.6295 13.7623 21.5867 13.8056 21.544 13.8056C21.5012 13.7623 21.4371 13.7623 21.3516 13.8056C21.2661 13.8056 21.0952 13.8488 20.8387 13.9352L20.7746 14C20.7318 14.1296 20.6891 14.1944 20.6463 14.1944C20.7318 14.2377 20.7959 14.2593 20.8387 14.2593C20.8814 14.2593 20.9242 14.2809 20.9669 14.3241C21.0097 14.3241 21.1165 14.2809 21.2875 14.1944C21.3303 14.2377 21.3516 14.2809 21.3516 14.3241C21.3516 14.3241 21.373 14.3457 21.4157 14.3889C21.3303 14.4321 21.3089 14.4753 21.3516 14.5185C21.3944 14.5617 21.3944 14.6049 21.3516 14.6481C21.3089 14.7346 21.2234 14.7994 21.0952 14.8426C21.0097 14.8426 20.9242 14.8426 20.8387 14.8426C20.7532 14.7562 20.6463 14.713 20.5181 14.713C20.3898 14.713 20.283 14.6914 20.1975 14.6481C20.0692 14.6481 19.941 14.6481 19.8128 14.6481C19.7273 14.6049 19.6418 14.5833 19.5563 14.5833C19.2571 14.5401 18.9579 14.5185 18.6586 14.5185C18.4022 14.5185 18.1457 14.4969 17.8892 14.4537C17.761 14.4537 17.6755 14.4753 17.6327 14.5185C17.6755 14.5185 17.6968 14.5401 17.6968 14.5833C17.6968 14.5833 17.7182 14.5833 17.761 14.5833C17.7182 14.6265 17.6327 14.6481 17.5045 14.6481C17.419 14.6049 17.3335 14.6049 17.248 14.6481C17.2053 14.6481 17.1625 14.6049 17.1198 14.5185C17.077 14.4753 17.0129 14.4537 16.9274 14.4537C16.7137 14.5401 16.5213 14.5833 16.3503 14.5833C16.1794 14.5401 15.987 14.5401 15.7733 14.5833C15.5595 14.6265 15.3244 14.6698 15.068 14.713C14.8115 14.713 14.5764 14.7562 14.3627 14.8426H14.0421C13.9138 14.8858 13.8497 14.9506 13.8497 15.037L13.7215 14.9074C13.636 14.9938 13.5505 14.9938 13.465 14.9074C13.3795 14.9074 13.3368 14.9722 13.3368 15.1019V16.0741C13.3368 16.1173 13.3368 16.1821 13.3368 16.2685C13.3795 16.3117 13.4009 16.3765 13.4009 16.463C13.4009 16.5926 13.4009 16.7222 13.4009 16.8519C13.4436 16.9383 13.465 17.0247 13.465 17.1111C13.465 17.2407 13.4009 17.3056 13.2726 17.3056C13.2299 17.3488 13.1658 17.392 13.0803 17.4352C13.1658 17.5216 13.2085 17.5432 13.2085 17.5C13.2513 17.4136 13.3154 17.392 13.4009 17.4352C13.4009 17.4784 13.4009 17.5216 13.4009 17.5648C13.4436 17.608 13.465 17.6728 13.465 17.7593C13.4222 18.0185 13.4222 18.2778 13.465 18.537C13.5077 18.7099 13.5291 18.9259 13.5291 19.1852C13.4864 19.4444 13.5077 19.6821 13.5932 19.8981V20.0926C13.5932 20.2654 13.6146 20.3735 13.6573 20.4167C13.7001 20.5031 13.7215 20.5463 13.7215 20.5463V22.037C13.7215 22.0802 13.7215 22.1235 13.7215 22.1667C13.7642 22.1667 13.7856 22.1883 13.7856 22.2315C13.7428 22.4043 13.7642 22.5556 13.8497 22.6852C13.8497 22.7716 13.8497 22.8364 13.8497 22.8796C13.8925 22.9228 13.9138 22.9877 13.9138 23.0741C13.7856 23.2037 13.7856 23.3765 13.9138 23.5926C14.0421 23.7222 14.0634 23.8519 13.9779 23.9815C13.8497 23.9815 13.7642 23.9167 13.7215 23.787C13.5932 23.9167 13.5291 24.0679 13.5291 24.2407C13.5291 24.4136 13.5719 24.6296 13.6573 24.8889V25.213C13.6573 25.2994 13.6573 25.3858 13.6573 25.4722C13.7001 25.5586 13.7215 25.6451 13.7215 25.7315C13.807 25.9907 13.8497 26.1636 13.8497 26.25L13.9779 26.3796C13.9352 26.3796 13.8925 26.4012 13.8497 26.4444C13.8497 26.4444 13.8283 26.4444 13.7856 26.4444C13.8283 26.6173 13.8925 26.7685 13.9779 26.8981C14.0634 26.9846 14.1276 27.0926 14.1703 27.2222C14.0848 27.179 14.0207 27.1358 13.9779 27.0926C13.9779 27.0494 13.9352 27.071 13.8497 27.1574C13.807 27.2006 13.807 27.2438 13.8497 27.287C13.8925 27.3302 13.8925 27.3951 13.8497 27.4815H13.6573V28C13.6146 27.9136 13.5291 27.892 13.4009 27.9352L13.2726 27.8056C13.3581 27.7191 13.4009 27.6327 13.4009 27.5463C13.3154 27.287 13.2726 27.0062 13.2726 26.7037H13.0803C13.0375 26.7469 13.0162 26.7901 13.0162 26.8333C13.0162 26.8765 12.9948 26.9414 12.952 27.0278C12.952 26.9846 12.9307 26.963 12.8879 26.963C12.8879 26.963 12.8665 26.963 12.8238 26.963C12.8238 26.963 12.7597 27.0278 12.6314 27.1574C12.7597 27.1574 12.8879 27.179 13.0162 27.2222C13.0589 27.3086 13.0162 27.3951 12.8879 27.4815C12.8024 27.5247 12.7597 27.5895 12.7597 27.6759C12.7169 27.6327 12.6956 27.5895 12.6956 27.5463C12.6956 27.4599 12.6528 27.4383 12.5673 27.4815C12.5246 27.4815 12.4818 27.4599 12.4391 27.4167C12.4391 27.3735 12.4818 27.3519 12.5673 27.3519C12.5673 27.3086 12.5246 27.287 12.4391 27.287C12.4391 27.2006 12.4177 27.1358 12.375 27.0926C12.375 27.0062 12.375 26.9198 12.375 26.8333C12.375 26.7901 12.3536 26.6821 12.3108 26.5093C12.3108 26.3364 12.2895 26.2284 12.2467 26.1852V25.9907C12.2467 25.7747 12.2254 25.6235 12.1826 25.537C12.1399 25.3642 12.0971 25.213 12.0544 25.0833C12.0544 24.9537 12.033 24.8025 11.9903 24.6296C11.9903 24.5 11.9689 24.4136 11.9261 24.3704C11.9261 24.284 11.9261 24.1975 11.9261 24.1111L11.7338 22.9444V23.2037C11.7338 23.6358 11.7552 23.9599 11.7979 24.1759C11.7979 24.3488 11.7979 24.5216 11.7979 24.6944C11.8406 24.8241 11.862 24.9753 11.862 25.1481C11.9048 25.2346 11.9261 25.3642 11.9261 25.537C11.9261 25.7099 11.9261 25.8395 11.9261 25.9259V26.5093C11.9261 26.5957 11.9048 26.6389 11.862 26.6389H11.6697C11.6269 26.5093 11.6055 26.4444 11.6055 26.4444C11.5628 26.2284 11.52 26.0556 11.4773 25.9259C11.4773 25.7531 11.4773 25.5586 11.4773 25.3426C11.4346 25.1265 11.4132 24.9321 11.4132 24.7593C11.4132 24.5864 11.4132 24.4136 11.4132 24.2407C11.3704 24.1111 11.3491 24.0031 11.3491 23.9167C11.3491 23.787 11.3277 23.679 11.2849 23.5926V22.6852C11.1995 22.3827 11.1567 22.1019 11.1567 21.8426C11.1995 21.5401 11.1995 21.2593 11.1567 21C11.114 20.8272 11.0926 20.5895 11.0926 20.287C11.0926 20.071 11.0926 19.8765 11.0926 19.7037C11.0926 19.5309 11.0712 19.358 11.0285 19.1852V18.1481C11.0712 17.8457 11.0712 17.5648 11.0285 17.3056C11.0285 17.0463 11.0285 16.787 11.0285 16.5278C11.0285 16.4846 11.0071 16.2469 10.9643 15.8148C10.9643 15.3395 10.9643 15.0586 10.9643 14.9722C10.8361 14.9722 10.7506 14.9506 10.7079 14.9074H10.6438C10.5583 14.9938 10.4728 15.037 10.3873 15.037C10.3018 14.9938 10.2163 14.9938 10.1308 15.037C10.0453 14.9938 9.95982 14.9938 9.87433 15.037C9.83158 15.037 9.76746 15.037 9.68197 15.037H9.55373C9.59648 14.9938 9.61785 14.929 9.61785 14.8426C9.53236 14.7994 9.42549 14.7778 9.29726 14.7778C9.04078 14.8642 8.84842 14.8858 8.72018 14.8426C8.59195 14.7562 8.44234 14.6481 8.27135 14.5185C8.18586 14.5185 8.12174 14.5401 8.07899 14.5833C8.07899 14.5833 8.03625 14.5833 7.95076 14.5833C7.73703 14.5833 7.58742 14.5617 7.50192 14.5185C7.37369 14.4321 7.22407 14.4321 7.05309 14.5185H6.21954C6.13405 14.6049 6.04856 14.6481 5.96307 14.6481C5.92032 14.6049 5.87758 14.5833 5.83483 14.5833C5.66385 14.5833 5.55698 14.6049 5.51423 14.6481C5.42874 14.7346 5.34325 14.7778 5.25776 14.7778V14.8426C5.42874 14.8426 5.57835 14.821 5.70659 14.7778C5.87758 14.7346 6.02719 14.7346 6.15542 14.7778C6.28366 14.7778 6.4119 14.7778 6.54014 14.7778C6.71112 14.7346 6.88211 14.713 7.05309 14.713C6.88211 14.7562 6.71112 14.821 6.54014 14.9074C6.4119 14.9506 6.28366 14.9722 6.15542 14.9722L6.09131 14.9074C5.92032 14.821 5.77071 14.8426 5.64247 14.9722H5.45012V14.9074C5.36462 14.9938 5.27913 15.0154 5.19364 14.9722C5.10815 14.929 5.02266 14.9074 4.93716 14.9074C4.80893 14.9074 4.74481 14.9074 4.74481 14.9074H4.68069C4.46696 14.8642 4.25323 14.9074 4.0395 15.037C3.99675 15.037 3.95401 15.037 3.91126 15.037C3.91126 14.9938 3.88989 14.9722 3.84714 14.9722C3.97538 14.929 4.08224 14.9074 4.16774 14.9074C4.29597 14.8642 4.42421 14.821 4.55245 14.7778H4.74481C4.78755 14.7346 4.8303 14.713 4.87304 14.713C4.91579 14.6698 4.95854 14.6265 5.00128 14.5833L4.87304 14.5185C4.78755 14.6049 4.70206 14.6049 4.61657 14.5185H4.48833C4.44558 14.5185 4.42421 14.5401 4.42421 14.5833C4.42421 14.5833 4.40284 14.5833 4.36009 14.5833C4.23185 14.5401 4.10362 14.5833 3.97538 14.713C3.80439 14.7562 3.65478 14.7778 3.52655 14.7778C3.44105 14.7778 3.31282 14.7994 3.14183 14.8426C3.14183 14.8426 3.09909 14.7994 3.01359 14.713C3.09909 14.6265 3.1632 14.6049 3.20595 14.6481C3.29144 14.6481 3.37693 14.6049 3.46243 14.5185C3.2487 14.5185 3.03497 14.5185 2.82124 14.5185C2.65025 14.4753 2.4579 14.4753 2.24416 14.5185C2.24416 14.5185 2.15867 14.5617 1.98769 14.6481C1.94494 14.5617 1.81671 14.5617 1.60298 14.6481C1.51748 14.6914 1.43199 14.6698 1.3465 14.5833C1.30375 14.5833 1.26101 14.6049 1.21826 14.6481C1.21826 14.6914 1.17552 14.713 1.09002 14.713C1.00453 14.713 0.940412 14.713 0.897666 14.713C0.897666 14.6698 0.85492 14.6481 0.769428 14.6481C0.64119 14.6481 0.512952 14.6265 0.384714 14.5833C0.299222 14.5401 0.170984 14.4969 0 14.4537C0 14.3241 0.064119 14.2593 0.192357 14.2593H0.705309C0.876293 14.2593 1.06865 14.2377 1.28238 14.1944C1.19689 14.108 1.09002 14.0864 0.961785 14.1296C0.833547 14.1296 0.726682 14.0864 0.64119 14C0.598444 14.1296 0.491579 14.1512 0.320595 14.0648C0.149611 14.0648 0.064119 14.0216 0.064119 13.9352C0.192357 14.0648 0.256476 14.0432 0.256476 13.8704L0.064119 13.6759C0.149611 13.5895 0.192357 13.5247 0.192357 13.4815C0.277849 13.4383 0.320595 13.4167 0.320595 13.4167C0.320595 13.4167 0.320595 13.3951 0.320595 13.3519C0.491579 13.3086 0.619817 13.287 0.705309 13.287C0.833547 13.287 0.961785 13.2654 1.09002 13.2222C1.09002 13.179 1.1114 13.1358 1.15414 13.0926C1.15414 12.963 1.21826 12.9414 1.3465 13.0278C1.60298 13.071 1.8167 13.071 1.98769 13.0278C2.11593 13.0278 2.20142 12.963 2.24416 12.8333V12.6389C2.28691 12.6821 2.3724 12.7037 2.50064 12.7037C2.58613 12.7469 2.693 12.7685 2.82124 12.7685C2.94947 12.8549 3.09909 12.8765 3.27007 12.8333C3.27007 12.7469 3.2487 12.6821 3.20595 12.6389C3.37693 12.6389 3.4838 12.5741 3.52655 12.4444C3.44105 12.4444 3.27007 12.4012 3.01359 12.3148C3.05634 12.1852 3.18458 12.1204 3.39831 12.1204C3.65478 12.1204 3.82577 12.142 3.91126 12.1852H4.36009C4.40284 12.2284 4.46696 12.25 4.55245 12.25C4.63794 12.2068 4.72343 12.2068 4.80893 12.25C4.93716 12.25 5.04403 12.25 5.12952 12.25H5.45012C5.57835 12.1636 5.79208 12.1636 6.09131 12.25C6.1768 12.25 6.26229 12.25 6.34778 12.25C6.43327 12.2068 6.51877 12.1852 6.60426 12.1852C6.81799 12.0988 6.98897 12.0988 7.11721 12.1852C7.2027 12.1852 7.26682 12.1636 7.30957 12.1204C7.39506 12.0772 7.48055 12.0772 7.56604 12.1204C7.65153 12.1204 7.73703 12.1204 7.82252 12.1204H7.95076C8.24998 12.034 8.50645 12.0556 8.72018 12.1852C8.84842 12.1852 8.95529 12.1852 9.04078 12.1852C9.16902 12.142 9.27588 12.1204 9.36137 12.1204H9.55373C9.63922 12.0772 9.70334 12.0772 9.74609 12.1204C9.78883 12.1204 9.85295 12.0988 9.93845 12.0556C10.0239 12.0556 10.1522 12.0123 10.3232 11.9259C10.1094 11.9259 10.0026 11.9259 10.0026 11.9259C9.91707 11.9691 9.85295 11.9907 9.81021 11.9907C9.76746 11.9475 9.70334 11.9259 9.61785 11.9259C9.53236 11.9691 9.36137 11.9907 9.1049 11.9907C8.80568 11.9907 8.59195 11.9691 8.46371 11.9259C8.37822 11.8827 8.27135 11.8611 8.14311 11.8611C8.10037 11.9043 8.03625 11.9259 7.95076 11.9259C7.90801 11.8827 7.86526 11.8827 7.82252 11.9259C7.69428 11.9259 7.65153 11.8395 7.69428 11.6667C7.77977 11.7531 7.86526 11.7531 7.95076 11.6667V11.6019C8.03625 11.6451 8.14311 11.6667 8.27135 11.6667C8.27135 11.5802 8.3141 11.4938 8.39959 11.4074C8.48508 11.4506 8.59195 11.4722 8.72018 11.4722V11.7315L8.7843 11.7963C8.86979 11.7531 8.93391 11.7531 8.97666 11.7963C9.06215 11.7963 9.1049 11.7963 9.1049 11.7963C9.14764 11.7531 9.21176 11.7315 9.29726 11.7315H9.93845C10.0667 11.7315 10.1308 11.7315 10.1308 11.7315C10.1735 11.7747 10.1949 11.7747 10.1949 11.7315C10.2377 11.6883 10.259 11.6883 10.259 11.7315C10.43 11.7747 10.5583 11.7747 10.6438 11.7315C10.6438 11.7315 10.7079 11.7315 10.8361 11.7315L10.9643 11.6667C11.0071 11.5802 11.0071 11.537 10.9643 11.537C10.9216 11.4938 10.9002 11.4506 10.9002 11.4074C10.9002 11.4074 10.9002 11.3426 10.9002 11.213H10.6438C10.43 11.1698 10.2163 11.1698 10.0026 11.213C9.78883 11.213 9.5751 11.213 9.36137 11.213C9.27588 11.2562 9.1049 11.2778 8.84842 11.2778C8.76293 11.2778 8.69881 11.2994 8.65606 11.3426C8.61332 11.3858 8.5492 11.3858 8.46371 11.3426C8.37822 11.2994 8.22861 11.2778 8.01488 11.2778C7.80115 11.2778 7.56604 11.2994 7.30957 11.3426C7.09584 11.3426 6.86073 11.3642 6.60426 11.4074C6.47602 11.537 6.4119 11.537 6.4119 11.4074C6.4119 11.3642 6.39053 11.3426 6.34778 11.3426C6.34778 11.3426 6.32641 11.3426 6.28366 11.3426C6.19817 11.2994 6.06993 11.2778 5.89895 11.2778C5.81346 11.2778 5.77071 11.2562 5.77071 11.213V11.1481C6.19817 11.1481 6.60426 11.1481 6.98897 11.1481C7.41643 11.1481 7.86526 11.1265 8.33547 11.0833C8.76293 11.0833 9.16902 11.0833 9.55373 11.0833C9.98119 11.0401 10.43 11.0185 10.9002 11.0185C10.9002 10.8025 10.9002 10.5864 10.9002 10.3704C10.9002 10.1111 10.9216 9.87346 10.9643 9.65741V7.90741C11.0071 7.69136 11.0285 7.49691 11.0285 7.32407C11.0285 7.10803 11.0498 6.89197 11.0926 6.67592C11.0926 6.5463 11.0712 6.41667 11.0285 6.28704C11.0285 6.15741 11.0498 6.02778 11.0926 5.89815V4.99074C11.1353 4.68827 11.1567 4.40741 11.1567 4.14815C11.1567 3.88889 11.1567 3.62963 11.1567 3.37037C11.1567 3.15432 11.1567 2.95988 11.1567 2.78704C11.1567 2.6142 11.1781 2.41975 11.2208 2.2037C11.1353 2.11728 11.114 2.00926 11.1567 1.87963C11.1995 1.75 11.1995 1.64198 11.1567 1.55555C11.1567 1.46914 11.1567 1.40432 11.1567 1.36111C11.1995 1.27469 11.2208 1.18827 11.2208 1.10185C11.3063 0.669752 11.3491 0.302468 11.3491 0C11.4346 0.0864186 11.4773 0.216048 11.4773 0.388888C11.5628 0.475309 11.6055 0.561729 11.6055 0.648147C11.6055 0.734566 11.6055 0.820986 11.6055 0.907407C11.6483 0.993826 11.6697 1.12346 11.6697 1.29629C11.7552 1.20988 11.7765 1.10185 11.7338 0.972221C11.7338 0.842591 11.7765 0.734566 11.862 0.648147C11.8193 0.820987 11.8834 0.950617 12.0544 1.03704C12.0971 1.08025 12.1185 1.18827 12.1185 1.36111V1.55555C12.2467 1.68519 12.2254 1.75 12.0544 1.75C12.0544 1.83642 12.0971 1.96605 12.1826 2.13889L12.2467 2.07407V1.75C12.2895 1.70679 12.3322 1.68519 12.375 1.68519V1.94444C12.375 2.07407 12.4177 2.11728 12.5032 2.07407C12.5032 2.37654 12.4605 2.57099 12.375 2.65741C12.3322 2.74383 12.3322 2.80864 12.375 2.85185C12.4177 2.85185 12.4177 2.89506 12.375 2.98148C12.375 3.15432 12.375 3.32716 12.375 3.5C12.4177 3.67284 12.4605 3.86728 12.5032 4.08333C12.546 4.21296 12.5673 4.3858 12.5673 4.60185C12.5673 4.64506 12.5887 4.70988 12.6314 4.7963C12.7169 4.70988 12.7383 4.64506 12.6956 4.60185C12.6528 4.55864 12.6314 4.49383 12.6314 4.40741C12.6742 4.40741 12.7169 4.40741 12.7597 4.40741C12.8024 4.3642 12.8665 4.34259 12.952 4.34259C12.952 4.25617 12.952 4.16975 12.952 4.08333C12.9948 3.99691 13.0162 3.91049 13.0162 3.82407C12.9734 3.73765 12.9734 3.65123 13.0162 3.56482C13.0589 3.4784 13.0803 3.39198 13.0803 3.30556L13.1444 3.24074H13.2726C13.1871 3.0679 13.1871 2.93827 13.2726 2.85185C13.2726 2.76543 13.2513 2.70062 13.2085 2.65741C13.123 2.57099 13.123 2.46296 13.2085 2.33333C13.2085 2.41975 13.2299 2.48457 13.2726 2.52778C13.4009 2.39815 13.4864 2.35494 13.5291 2.39815C13.5291 2.48457 13.5077 2.54938 13.465 2.59259C13.3795 2.76543 13.3368 2.93827 13.3368 3.11111C13.3795 3.24074 13.3581 3.37037 13.2726 3.5C13.2726 3.62963 13.3154 3.71605 13.4009 3.75926L13.5932 3.37037V3.17593C13.5505 3.08951 13.5719 3.02469 13.6573 2.98148C13.7428 2.89506 13.7856 2.80864 13.7856 2.72222C13.7856 2.67901 13.807 2.6358 13.8497 2.59259V2.52778V3.43519C13.8497 3.60802 13.8283 3.78086 13.7856 3.9537C13.7428 4.08333 13.7428 4.23457 13.7856 4.40741C13.7856 4.53704 13.7642 4.66667 13.7215 4.7963C13.7215 4.92593 13.7215 5.03395 13.7215 5.12037V5.25C13.807 5.33642 13.807 5.44444 13.7215 5.57407C13.6787 5.7037 13.6573 5.83333 13.6573 5.96296C13.6573 6.39506 13.636 6.71914 13.5932 6.93518V7.32407C13.5505 7.62654 13.5291 7.90741 13.5291 8.16667C13.5291 8.42593 13.5077 8.68518 13.465 8.94444V9.39815C13.5077 9.57099 13.5077 9.74383 13.465 9.91667C13.465 10.0463 13.465 10.1759 13.465 10.3056C13.465 10.392 13.4436 10.4784 13.4009 10.5648C13.4009 10.6512 13.4009 10.7377 13.4009 10.8241C13.4009 10.9105 13.4222 10.9753 13.465 11.0185H13.6573C13.6573 11.1049 13.6787 11.1698 13.7215 11.213C13.6787 11.213 13.7215 11.2778 13.8497 11.4074C13.807 11.3642 13.7642 11.3426 13.7215 11.3426V11.6019C13.807 11.6451 13.9138 11.6667 14.0421 11.6667H14.1062C14.1062 11.7099 14.1489 11.7315 14.2344 11.7315C14.4481 11.6451 14.5978 11.6451 14.6833 11.7315C14.8115 11.7747 14.897 11.7747 14.9397 11.7315C15.0252 11.6883 15.068 11.6667 15.068 11.6667C15.239 11.7099 15.2603 11.7963 15.1321 11.9259C15.3031 12.0123 15.4313 12.0123 15.5168 11.9259C15.4741 11.8827 15.4527 11.8611 15.4527 11.8611C15.4527 11.8179 15.4099 11.7747 15.3244 11.7315C15.4954 11.6883 15.7092 11.6667 15.9656 11.6667C16.0084 11.6667 16.0298 11.6883 16.0298 11.7315C16.0298 11.7747 16.0511 11.7963 16.0939 11.7963C16.2221 11.7531 16.4145 11.7315 16.6709 11.7315H17.1198C17.2908 11.7315 17.419 11.7531 17.5045 11.7963H17.8251C17.9106 11.7963 17.9747 11.7963 18.0174 11.7963C18.1029 11.7531 18.1884 11.7315 18.2739 11.7315C18.4022 11.7747 18.5304 11.7963 18.6586 11.7963C18.7869 11.7531 18.9151 11.7531 19.0433 11.7963C19.1288 11.8395 19.193 11.8611 19.2357 11.8611C19.2784 11.8179 19.3426 11.7963 19.4281 11.7963H20.1334C20.3044 11.7963 20.454 11.7963 20.5822 11.7963C20.7532 11.7963 20.9455 11.8179 21.1593 11.8611V11.7315V11.7963C21.202 11.7963 21.2234 11.8395 21.2234 11.9259H21.4157V12.0556L21.3516 12.1204C21.3516 12.25 21.3944 12.3148 21.4799 12.3148C21.5654 12.3148 21.6295 12.3364 21.6722 12.3796C21.7577 12.4228 21.8432 12.4012 21.9287 12.3148H22.0569C22.1424 12.3148 22.2065 12.2932 22.2493 12.25C22.2493 12.1636 22.2279 12.1204 22.1852 12.1204C22.1852 12.1636 22.1638 12.1852 22.1211 12.1852C22.0783 12.1852 22.0569 12.2068 22.0569 12.25C22.0142 12.25 21.9714 12.25 21.9287 12.25C21.9287 12.2068 21.9073 12.1852 21.8646 12.1852C21.9501 12.0988 21.9928 12.0556 21.9928 12.0556C22.0356 12.0556 22.0997 12.0556 22.1852 12.0556C22.3134 12.0556 22.3775 12.0339 22.3775 11.9907H22.4417C22.5271 12.0772 22.6126 12.0988 22.6981 12.0556C22.8264 11.9691 22.9332 11.9691 23.0187 12.0556C23.0187 11.9259 22.9546 11.8611 22.8264 11.8611C22.8264 11.7747 22.7836 11.7099 22.6981 11.6667C22.6554 11.6235 22.5913 11.5586 22.5058 11.4722C22.463 11.4722 22.4417 11.4938 22.4417 11.537C22.4417 11.537 22.4203 11.537 22.3775 11.537C22.292 11.4938 22.1638 11.4722 21.9928 11.4722C21.9073 11.5154 21.7791 11.4938 21.6081 11.4074C21.5226 11.4074 21.4371 11.4074 21.3516 11.4074C21.2661 11.3642 21.1806 11.3426 21.0952 11.3426C21.0097 11.3858 20.9669 11.429 20.9669 11.4722C20.9669 11.5154 20.9455 11.537 20.9028 11.537C20.8173 11.5802 20.6891 11.6019 20.5181 11.6019C20.5608 11.5586 20.6036 11.537 20.6463 11.537C20.6891 11.4938 20.7318 11.4506 20.7746 11.4074C20.6891 11.4074 20.5822 11.4074 20.454 11.4074C20.3685 11.3642 20.2616 11.3426 20.1334 11.3426C20.2189 11.213 20.3043 11.1481 20.3898 11.1481C20.4753 11.1914 20.5608 11.213 20.6463 11.213C20.7318 11.1698 20.8173 11.1698 20.9028 11.213C21.031 11.2562 21.1379 11.2562 21.2234 11.213C21.3516 11.1698 21.4799 11.1914 21.6081 11.2778C21.6081 11.321 21.6295 11.321 21.6722 11.2778C21.715 11.2346 21.8005 11.2778 21.9287 11.4074C22.0569 11.2778 22.1852 11.2562 22.3134 11.3426C22.3562 11.3858 22.463 11.4074 22.634 11.4074C22.8477 11.4074 22.9546 11.429 22.9546 11.4722C23.0401 11.3858 23.0828 11.3642 23.0828 11.4074C23.1256 11.4506 23.1897 11.4506 23.2752 11.4074C23.3607 11.4074 23.4248 11.429 23.4676 11.4722C23.5958 11.5154 23.8095 11.537 24.1087 11.537C24.1942 11.4506 24.2797 11.4506 24.3652 11.537C24.4507 11.5802 24.4935 11.6019 24.4935 11.6019C24.5362 11.5586 24.6003 11.5586 24.6858 11.6019ZM14.2985 11.1481H13.9138C13.9993 11.0617 14.1062 11.0185 14.2344 11.0185C14.3627 11.0185 14.4695 11.0185 14.555 11.0185L14.6191 11.1481C14.5336 11.1914 14.4695 11.213 14.4268 11.213C14.384 11.1698 14.3413 11.1481 14.2985 11.1481ZM14.2985 23.9815C14.2558 23.8519 14.2344 23.787 14.2344 23.787V23.463C14.3199 23.5062 14.3627 23.6142 14.3627 23.787C14.4054 23.8302 14.4054 23.8735 14.3627 23.9167C14.3199 23.9167 14.2985 23.9383 14.2985 23.9815ZM14.3627 24.0463C14.4481 24.1759 14.4695 24.3488 14.4268 24.5648C14.3413 24.392 14.3199 24.2191 14.3627 24.0463ZM15.9656 11.0833C15.8801 11.1698 15.7946 11.1698 15.7092 11.0833C15.8374 11.0401 16.0084 11.0185 16.2221 11.0185C16.2221 11.0617 16.1366 11.0833 15.9656 11.0833ZM17.8892 11.213C17.761 11.2562 17.6114 11.2562 17.4404 11.213C17.3121 11.213 17.2266 11.1698 17.1839 11.0833H17.248C17.3335 11.1265 17.4404 11.1481 17.5686 11.1481C17.6968 11.1049 17.8037 11.1265 17.8892 11.213ZM19.4281 14.7778C19.5135 14.7346 19.6418 14.7562 19.8128 14.8426C19.6845 14.929 19.5563 14.9506 19.4281 14.9074C19.2998 14.8642 19.1716 14.8426 19.0433 14.8426C19.1288 14.7562 19.193 14.7346 19.2357 14.7778C19.2784 14.7778 19.3426 14.7778 19.4281 14.7778ZM22.1211 14.3889C21.9073 14.4321 21.7791 14.3889 21.7363 14.2593C21.9073 14.216 22.0356 14.2593 22.1211 14.3889ZM22.0569 14.8426H22.1852C22.2707 14.8858 22.4417 14.9506 22.6981 15.037C22.6126 15.1235 22.5485 15.1667 22.5058 15.1667C22.4203 15.1235 22.3348 15.1235 22.2493 15.1667C22.2065 15.1667 22.1424 15.1451 22.0569 15.1019C21.9714 15.0586 21.886 15.037 21.8005 15.037C21.6722 14.9938 21.5867 15.0154 21.544 15.1019V14.9074C21.6722 14.9506 21.8432 14.929 22.0569 14.8426ZM23.9164 12.8333L23.8523 12.7685C23.895 12.7685 23.9164 12.7901 23.9164 12.8333C23.9591 12.8333 24.0019 12.8333 24.0446 12.8333C24.1301 12.9198 24.1729 13.0062 24.1729 13.0926C24.2156 13.1358 24.2797 13.2006 24.3652 13.287C24.3225 13.3302 24.2584 13.3302 24.1729 13.287C24.1301 13.2006 24.066 13.1358 23.9805 13.0926C23.9378 13.0062 23.9164 12.9198 23.9164 12.8333ZM1.3465 14.1944C1.43199 14.1944 1.47474 14.1728 1.47474 14.1296C1.43199 14.1728 1.38925 14.1944 1.3465 14.1944ZM7.24545 12.6389C7.33094 12.7685 7.39506 12.7685 7.4378 12.6389H7.24545ZM8.33547 12.7037V12.6389C8.29272 12.6389 8.24998 12.6173 8.20723 12.5741V12.7037H8.33547ZM9.16902 12.6389C9.21176 12.5957 9.23314 12.5525 9.23314 12.5093C9.19039 12.5093 9.16902 12.5525 9.16902 12.6389ZM9.48961 12.4444C9.5751 12.6173 9.6606 12.6173 9.74609 12.4444H9.48961ZM10.1949 14.7778C10.2377 14.8642 10.2804 14.8858 10.3232 14.8426C10.3659 14.7994 10.43 14.7778 10.5155 14.7778H10.1949ZM10.6438 14.8426C10.772 14.8426 10.8789 14.821 10.9643 14.7778C10.8789 14.7778 10.8147 14.7778 10.772 14.7778C10.772 14.7346 10.7292 14.7562 10.6438 14.8426ZM12.1826 2.13889C12.1399 2.22531 12.1612 2.29012 12.2467 2.33333C12.204 2.29012 12.1826 2.22531 12.1826 2.13889ZM12.8879 26.7685C12.9734 26.6821 12.9948 26.5741 12.952 26.4444C12.8665 26.5309 12.8238 26.5957 12.8238 26.6389C12.8665 26.6821 12.8879 26.7253 12.8879 26.7685ZM13.465 11.1481C13.465 11.1481 13.465 11.213 13.465 11.3426C13.5077 11.3426 13.5291 11.321 13.5291 11.2778C13.5291 11.2346 13.5505 11.213 13.5932 11.213C13.5077 11.1698 13.465 11.1481 13.465 11.1481ZM13.7856 13.9352C13.8711 13.9784 13.9566 13.9568 14.0421 13.8704C13.9566 13.8704 13.8925 13.892 13.8497 13.9352C13.8497 13.9352 13.8283 13.9352 13.7856 13.9352ZM14.6191 11.9907V11.8611C14.4909 11.8611 14.384 11.8395 14.2985 11.7963V11.9907C14.4268 11.9475 14.5336 11.9475 14.6191 11.9907ZM17.4404 11.9907C17.3549 11.9043 17.2266 11.9043 17.0557 11.9907H17.4404ZM16.9915 11.9259H16.6068C16.6923 12.0123 16.7564 12.0556 16.7992 12.0556C16.8419 12.0123 16.8847 11.9907 16.9274 11.9907L16.9915 11.9259ZM15.9656 11.7963C15.8801 11.7963 15.8374 11.8395 15.8374 11.9259C15.8374 11.8827 15.8801 11.8395 15.9656 11.7963ZM14.6833 11.9907H15.068C14.897 11.9043 14.7687 11.9043 14.6833 11.9907ZM15.1962 13.9352C15.4099 13.9352 15.5595 13.9136 15.645 13.8704C15.5168 13.8272 15.3672 13.8488 15.1962 13.9352ZM15.7733 13.8704H16.0939C16.0084 13.7839 15.9015 13.7839 15.7733 13.8704ZM16.4145 13.9352V13.8704H16.3503V13.9352H16.4145ZM16.6068 13.287C16.6923 13.3302 16.7992 13.3302 16.9274 13.287C16.7992 13.2438 16.6923 13.2438 16.6068 13.287ZM16.9274 13.8704C17.0557 13.8704 17.1625 13.892 17.248 13.9352C17.1625 13.8488 17.0557 13.8272 16.9274 13.8704ZM20.0692 13.2222H20.1334C20.0906 13.1358 20.0051 13.1142 19.8769 13.1574C19.9624 13.2438 20.0265 13.2654 20.0692 13.2222ZM20.454 13.8704C20.4112 13.8272 20.3685 13.8056 20.3257 13.8056C20.4112 13.8488 20.454 13.8704 20.454 13.8704ZM19.1075 11.1481C18.8937 11.2346 18.7655 11.2778 18.7227 11.2778C18.68 11.2346 18.6586 11.1698 18.6586 11.0833C18.7441 11.1265 18.8937 11.1481 19.1075 11.1481ZM15.0038 10.9537C15.1748 11.0401 15.2603 11.0833 15.2603 11.0833C15.2176 11.0833 15.1535 11.1049 15.068 11.1481C15.0252 11.1481 14.9611 11.1481 14.8756 11.1481C14.9611 11.1481 15.0038 11.0833 15.0038 10.9537ZM20.1334 11.213L20.0692 11.2778C20.0265 11.321 19.9624 11.3426 19.8769 11.3426C19.8769 11.2562 19.9196 11.213 20.0051 11.213C20.0051 11.213 20.0479 11.213 20.1334 11.213ZM14.2344 23.3981C14.1917 23.3549 14.1703 23.2685 14.1703 23.1389C14.2985 23.2253 14.3199 23.3117 14.2344 23.3981ZM14.8115 11.1481H14.6833V11.0833C14.6833 11.0833 14.7687 11.0833 14.9397 11.0833C14.897 11.1265 14.8542 11.1481 14.8115 11.1481ZM9.29726 11.537C9.29726 11.4506 9.34 11.429 9.42549 11.4722C9.34 11.5154 9.29726 11.537 9.29726 11.537ZM21.3516 15.1019V14.9074C21.3944 14.9938 21.3944 15.0586 21.3516 15.1019ZM8.14311 14.9722C8.14311 15.0586 8.07899 15.0802 7.95076 15.037C7.9935 14.9938 8.05762 14.9722 8.14311 14.9722ZM21.8005 11.9907C21.715 12.0772 21.6509 12.1204 21.6081 12.1204C21.6081 11.9907 21.6722 11.9475 21.8005 11.9907ZM16.9274 11.0833C16.8847 11.1265 16.8633 11.1481 16.8633 11.1481V11.0833H16.9274ZM7.82252 11.4722C7.77977 11.5154 7.7584 11.5586 7.7584 11.6019C7.71565 11.5586 7.67291 11.537 7.63016 11.537V11.4722H7.82252ZM14.4909 25.0185C14.4481 24.8889 14.4481 24.8025 14.4909 24.7593H14.555C14.5123 24.8457 14.4909 24.9321 14.4909 25.0185ZM18.7227 14.713C18.7655 14.7562 18.7869 14.7778 18.7869 14.7778C18.7441 14.7778 18.7227 14.7562 18.7227 14.713ZM10.1308 11.4722C10.0881 11.4722 10.0667 11.4938 10.0667 11.537V11.4074L10.1308 11.4722Z" fill="#F2F2F2"/>
</svg>
