<svg width="19" height="25" viewBox="0 0 19 25" fill="none" xmlns="http://www.w3.org/2000/svg">
<path d="M14.2843 10.75C14.3065 10.75 14.3287 10.7381 14.3509 10.7143C14.3287 10.7143 14.3065 10.7262 14.2843 10.75ZM10.6183 13.9643C10.5961 13.9881 10.585 14.0119 10.585 14.0357C10.6072 14.0119 10.6183 13.9881 10.6183 13.9643ZM9.81846 9.82143C9.79625 9.82143 9.78514 9.84524 9.78514 9.89286C9.80735 9.84524 9.81846 9.82143 9.81846 9.82143ZM10.8849 4.89286H10.8516C10.8516 4.91667 10.8516 4.94048 10.8516 4.96429C10.8738 4.96429 10.8849 4.97619 10.8849 5V4.89286ZM14.151 10.7857C14.151 10.7857 14.1287 10.8095 14.0843 10.8571L14.151 10.7857ZM14.5175 10.6429C14.4731 10.6429 14.4509 10.6548 14.4509 10.6786C14.4953 10.6786 14.5175 10.6667 14.5175 10.6429ZM8.78533 0.428572V0.464286C8.80755 0.440477 8.81866 0.440477 8.81866 0.464286C8.84088 0.464286 8.86309 0.452381 8.88531 0.428572H8.78533ZM10.6183 14.1071C10.5961 14.1548 10.585 14.2143 10.585 14.2857C10.6072 14.2619 10.6183 14.2024 10.6183 14.1071ZM10.8849 10.1071V9.92857C10.8183 10 10.8183 10.0595 10.8849 10.1071ZM13.4511 0.285715C13.54 0.333333 13.6177 0.357143 13.6844 0.357143C13.6399 0.333333 13.5955 0.321429 13.5511 0.321429C13.5289 0.297619 13.4955 0.285715 13.4511 0.285715ZM10.6183 13.9286V13.4643C10.5961 13.6071 10.5961 13.7619 10.6183 13.9286ZM9.65183 0.607144V0.57143C9.4963 0.57143 9.38521 0.595239 9.31856 0.642857C9.45187 0.642857 9.55185 0.630953 9.6185 0.607144H9.65183ZM17.417 7.78571C17.3281 7.85714 17.2837 7.95238 17.2837 8.07143C17.3725 8.04762 17.417 7.95238 17.417 7.78571ZM13.8177 0.428572C13.9066 0.452381 14.0621 0.511905 14.2843 0.607144C14.262 0.559524 14.2065 0.511905 14.1176 0.464286C14.0732 0.440477 14.0288 0.428572 13.9843 0.428572C13.9621 0.428572 13.9288 0.416668 13.8843 0.392858C13.8399 0.392858 13.8177 0.404763 13.8177 0.428572ZM17.2837 8.53572C17.2392 8.55952 17.217 8.57143 17.217 8.57143C17.1726 8.61905 17.1281 8.66667 17.0837 8.71429C17.0393 8.7619 16.9948 8.80952 16.9504 8.85714C16.906 8.90476 16.8726 8.96429 16.8504 9.03571C16.8282 9.08333 16.7949 9.13095 16.7504 9.17857C16.8615 9.08333 16.9726 8.96429 17.0837 8.82143C17.217 8.67857 17.2837 8.58333 17.2837 8.53572ZM10.9516 13.9643C10.9738 13.9167 10.9849 13.869 10.9849 13.8214C10.9849 13.75 10.996 13.6905 11.0182 13.6429C11.0182 13.5952 11.0071 13.5357 10.9849 13.4643C10.9849 13.3929 10.9738 13.3333 10.9516 13.2857H10.8516V13.3571H10.9182C10.9405 13.4048 10.9294 13.4286 10.8849 13.4286C10.8627 13.4286 10.8516 13.4405 10.8516 13.4643C10.8294 13.5595 10.8183 13.7024 10.8183 13.8929C10.9071 13.9405 10.9516 13.9643 10.9516 13.9643ZM10.8516 13.9643C10.8294 14.0357 10.8183 14.1071 10.8183 14.1786C10.8183 14.2976 10.8072 14.4286 10.7849 14.5714C10.7849 14.6905 10.7849 14.8095 10.7849 14.9286C10.7627 15.0476 10.7516 15.2381 10.7516 15.5C10.7516 15.5952 10.7516 15.6905 10.7516 15.7857C10.7516 15.881 10.7405 15.9881 10.7183 16.1071C10.7183 16.131 10.7183 16.2738 10.7183 16.5357C10.7405 16.7738 10.7516 16.9048 10.7516 16.9286V17C10.7072 17.1905 10.685 17.369 10.685 17.5357C10.685 17.7024 10.685 17.881 10.685 18.0714V18.4286C10.685 18.381 10.685 18.3452 10.685 18.3214C10.7072 18.2976 10.7183 18.2738 10.7183 18.25C10.7183 18.131 10.7183 18.0357 10.7183 17.9643C10.7405 17.869 10.7405 17.7619 10.7183 17.6429V17.6071C10.7405 17.5833 10.7516 17.4881 10.7516 17.3214C10.7738 17.1548 10.7849 17.0476 10.7849 17C10.7627 16.9286 10.7516 16.75 10.7516 16.4643C10.7738 16.1548 10.7849 15.9643 10.7849 15.8929V15.7143C10.8072 15.6905 10.8183 15.6548 10.8183 15.6071V15.4286C10.8183 15.3333 10.8183 15.25 10.8183 15.1786C10.8405 15.0833 10.8516 15 10.8516 14.9286C10.8738 14.8333 10.8849 14.75 10.8849 14.6786C10.8849 14.6071 10.896 14.5238 10.9182 14.4286C10.9405 14.381 10.9405 14.3333 10.9182 14.2857C10.9182 14.2143 10.9294 14.1429 10.9516 14.0714C10.9294 14.0476 10.9071 14.0357 10.8849 14.0357C10.8627 14.0119 10.8516 13.9881 10.8516 13.9643ZM16.8838 8.39286C16.8615 8.39286 16.8504 8.40476 16.8504 8.42857C16.8504 8.42857 16.8393 8.42857 16.8171 8.42857C16.7504 8.47619 16.6838 8.53572 16.6171 8.60714C16.5727 8.65476 16.5172 8.70238 16.4505 8.75C16.4283 8.79762 16.3727 8.84524 16.2839 8.89286C16.2617 8.94048 16.2061 8.9881 16.1172 9.03571C16.0728 9.08333 16.0284 9.11905 15.9839 9.14286C15.9617 9.16667 15.9284 9.20238 15.8839 9.25C15.8395 9.25 15.8062 9.26191 15.784 9.28572C15.784 9.30952 15.7617 9.33333 15.7173 9.35714C15.6284 9.38095 15.5174 9.45238 15.384 9.57143C15.3174 9.61905 15.1952 9.69048 15.0174 9.78571C14.973 9.80952 14.9175 9.84524 14.8508 9.89286C14.7842 9.91667 14.7175 9.95238 14.6509 10C14.6286 10 14.6064 10.0119 14.5842 10.0357C14.5842 10.0357 14.5731 10.0357 14.5509 10.0357C14.3953 10.0833 14.2954 10.131 14.2509 10.1786C14.2287 10.1786 14.2065 10.1905 14.1843 10.2143C14.1843 10.2143 14.1732 10.2143 14.151 10.2143C14.1065 10.2381 14.051 10.2619 13.9843 10.2857C13.9177 10.3095 13.8621 10.3333 13.8177 10.3571C13.7066 10.4048 13.5955 10.4524 13.4844 10.5C13.3733 10.5238 13.2622 10.5595 13.1511 10.6071C13.1289 10.6071 13.1067 10.619 13.0845 10.6429C13.0845 10.6429 13.0623 10.6429 13.0178 10.6429C12.9734 10.6667 12.929 10.6786 12.8845 10.6786C12.8401 10.6786 12.7957 10.6905 12.7512 10.7143C12.7068 10.7143 12.6735 10.7262 12.6512 10.75C12.6068 10.7976 12.5735 10.8214 12.5513 10.8214C12.529 10.8214 12.4957 10.8333 12.4513 10.8571H12.3846C12.3402 10.881 12.2846 10.8929 12.218 10.8929C12.1736 10.8929 12.1291 10.9167 12.0847 10.9643L12.118 11C12.0736 11 12.0403 11.0119 12.018 11.0357C11.9292 11.0833 11.8403 11.1071 11.7514 11.1071H11.4848C11.4404 11.131 11.3848 11.1429 11.3182 11.1429H10.9849C10.9405 11.1429 10.9182 11.1786 10.9182 11.25C10.9405 11.25 10.9516 11.25 10.9516 11.25H11.1849C11.3626 11.25 11.4848 11.2381 11.5515 11.2143H11.6848C11.8181 11.2143 11.9181 11.2024 11.9847 11.1786C12.0736 11.1548 12.1402 11.1429 12.1847 11.1429C12.2513 11.119 12.3291 11.1071 12.418 11.1071C12.4624 11.0833 12.5068 11.0595 12.5513 11.0357C12.6179 11.0119 12.6735 10.9881 12.7179 10.9643C12.829 10.9643 12.9734 10.9405 13.1511 10.8929C13.24 10.8452 13.3067 10.8214 13.3511 10.8214C13.44 10.7738 13.4844 10.75 13.4844 10.75H13.5844C13.5844 10.7262 13.6066 10.7143 13.651 10.7143C13.7399 10.6667 13.8066 10.6429 13.851 10.6429C13.8954 10.619 13.9288 10.6071 13.951 10.6071C13.9732 10.6071 13.9954 10.5952 14.0176 10.5714C14.1954 10.4762 14.3398 10.4167 14.4509 10.3929C14.4953 10.369 14.5398 10.3452 14.5842 10.3214C14.6509 10.2738 14.7286 10.2262 14.8175 10.1786C14.8175 10.131 14.8508 10.1071 14.9175 10.1071C14.9619 10.1071 15.0063 10.0833 15.0508 10.0357C15.0508 10.0119 15.073 10 15.1174 10C15.1841 9.95238 15.3063 9.88095 15.484 9.78571C15.5729 9.7381 15.6507 9.67857 15.7173 9.60714C15.784 9.58333 15.8617 9.52381 15.9506 9.42857C15.995 9.38095 16.0395 9.34524 16.0839 9.32143C16.1283 9.29762 16.1839 9.28572 16.2505 9.28572C16.3172 9.28572 16.3505 9.25 16.3505 9.17857C16.3727 9.13095 16.395 9.09524 16.4172 9.07143C16.4616 9.04762 16.4949 9.0119 16.5172 8.96429C16.5616 8.89286 16.606 8.83333 16.6505 8.78571C16.7171 8.71429 16.7727 8.64286 16.8171 8.57143C16.8615 8.47619 16.8838 8.41667 16.8838 8.39286ZM9.78514 0.5C9.7407 0.54762 9.71848 0.583334 9.71848 0.607144C9.78514 0.607144 9.84068 0.607144 9.88512 0.607144C9.95177 0.583334 10.0184 0.57143 10.0851 0.57143C10.2406 0.57143 10.385 0.54762 10.5183 0.5C10.6072 0.5 10.6739 0.488095 10.7183 0.464286H11.1849C11.2737 0.464286 11.3626 0.440477 11.4515 0.392858H11.4182C11.3737 0.369048 11.3182 0.369048 11.2515 0.392858C11.2071 0.392858 11.1626 0.380953 11.1182 0.357143C11.0293 0.357143 10.9627 0.369048 10.9182 0.392858C10.8072 0.392858 10.6961 0.404763 10.585 0.428572C10.4739 0.428572 10.3628 0.440477 10.2517 0.464286C10.1851 0.488095 10.1184 0.5 10.0518 0.5C10.0073 0.5 9.95177 0.511905 9.88512 0.535714C9.84068 0.535714 9.80735 0.523809 9.78514 0.5C9.76292 0.476191 9.77403 0.464286 9.81846 0.464286C9.99621 0.416668 10.1962 0.392858 10.4183 0.392858C10.485 0.369048 10.5517 0.357143 10.6183 0.357143C10.685 0.357143 10.7405 0.345238 10.7849 0.321429H10.8849C11.0182 0.27381 11.1515 0.27381 11.2848 0.321429C11.3293 0.297619 11.3626 0.297619 11.3848 0.321429C11.4293 0.321429 11.4737 0.321429 11.5181 0.321429C11.607 0.321429 11.6737 0.333333 11.7181 0.357143C11.7847 0.357143 11.8514 0.357143 11.9181 0.357143C11.9625 0.380953 12.0403 0.392858 12.1513 0.392858C12.2402 0.392858 12.318 0.357144 12.3846 0.285715C12.3624 0.261906 12.3291 0.250001 12.2846 0.250001C12.2402 0.226192 12.2069 0.226192 12.1847 0.250001C12.1847 0.250001 12.1625 0.238096 12.118 0.214287C12.0958 0.190477 12.0403 0.178571 11.9514 0.178571C11.8625 0.154762 11.807 0.142857 11.7847 0.142857H10.4517C10.385 0.166667 10.3184 0.178571 10.2517 0.178571C10.1851 0.178571 10.1073 0.190477 10.0184 0.214287C9.97399 0.214287 9.91844 0.226192 9.85179 0.250001C9.80735 0.250001 9.76292 0.250001 9.71848 0.250001C9.65183 0.27381 9.58518 0.285715 9.51852 0.285715C9.45187 0.285715 9.38521 0.297619 9.31856 0.321429C9.27412 0.321429 9.22969 0.333333 9.18525 0.357143C9.16304 0.357143 9.12971 0.357143 9.08527 0.357143C9.06305 0.380953 9.04084 0.392858 9.01862 0.392858H9.15193C9.19636 0.416668 9.22969 0.428572 9.25191 0.428572C9.29634 0.404763 9.34078 0.392858 9.38521 0.392858H9.45187C9.42965 0.416668 9.40743 0.428572 9.38521 0.428572C9.31856 0.428572 9.27412 0.440477 9.25191 0.464286C9.18525 0.464286 9.14082 0.476191 9.1186 0.5H8.85198C8.80755 0.5 8.77422 0.511905 8.752 0.535714C8.72979 0.535714 8.70757 0.535714 8.68535 0.535714C8.70757 0.583334 8.752 0.607144 8.81866 0.607144C8.86309 0.607144 8.89642 0.607144 8.91864 0.607144C8.94086 0.583334 8.97418 0.57143 9.01862 0.57143C9.08527 0.547619 9.18525 0.535714 9.31856 0.535714C9.38521 0.511905 9.51852 0.5 9.71848 0.5H9.78514ZM9.71848 24.9643C9.69626 24.9405 9.68516 24.9167 9.68516 24.8929V24.2857C9.64072 24.2857 9.59628 24.3333 9.55185 24.4286C9.55185 24.4286 9.52963 24.4762 9.48519 24.5714C9.44076 24.5714 9.41854 24.5833 9.41854 24.6071C9.41854 24.6786 9.42965 24.7143 9.45187 24.7143C9.4963 24.7619 9.4963 24.8452 9.45187 24.9643C9.40743 24.869 9.38521 24.7857 9.38521 24.7143C9.38521 24.619 9.363 24.5238 9.31856 24.4286C9.27412 24.5238 9.25191 24.5714 9.25191 24.5714C9.25191 24.5714 9.25191 24.5357 9.25191 24.4643C9.25191 24.3929 9.2408 24.3452 9.21858 24.3214C9.19636 24.3452 9.17414 24.3571 9.15193 24.3571V24.3214C9.15193 24.2976 9.12971 24.2619 9.08527 24.2143C9.06305 24.2143 9.09638 24.2024 9.18525 24.1786C9.29634 24.1548 9.35189 24.119 9.35189 24.0714V24.0357C9.35189 23.9167 9.30745 23.8214 9.21858 23.75V24C9.21858 24.1429 9.20747 24.25 9.18525 24.3214V24.4286C9.18525 24.5238 9.16304 24.5952 9.1186 24.6429C9.02973 24.7857 8.94086 24.7738 8.85198 24.6071V24.5357C8.85198 24.5119 8.84088 24.5 8.81866 24.5C8.81866 24.5 8.81866 24.4881 8.81866 24.4643C8.77422 24.4643 8.752 24.4405 8.752 24.3929C8.72979 24.2976 8.67424 24.25 8.58537 24.25C8.54093 24.2738 8.50761 24.2619 8.48539 24.2143C8.41874 24.0476 8.39652 23.9048 8.41874 23.7857V23.3929C8.41874 23.2738 8.42984 23.1905 8.45206 23.1429C8.47428 23.0952 8.47428 23.0595 8.45206 23.0357C8.45206 23.0119 8.45206 22.9762 8.45206 22.9286C8.47428 22.881 8.48539 22.7976 8.48539 22.6786C8.48539 22.6548 8.48539 22.631 8.48539 22.6071C8.50761 22.5833 8.50761 22.5476 8.48539 22.5C8.48539 22.4524 8.48539 22.4167 8.48539 22.3929C8.50761 22.369 8.51872 22.3333 8.51872 22.2857C8.54093 22.1905 8.55204 22.0476 8.55204 21.8571C8.57426 21.8333 8.58537 21.7738 8.58537 21.6786C8.60759 21.5595 8.6187 21.4405 8.6187 21.3214C8.64091 21.1786 8.65202 21.0476 8.65202 20.9286C8.65202 20.8095 8.65202 20.7381 8.65202 20.7143C8.65202 20.6667 8.65202 20.619 8.65202 20.5714C8.67424 20.5 8.67424 20.4405 8.65202 20.3929C8.65202 20.3452 8.65202 20.25 8.65202 20.1071C8.65202 19.9643 8.65202 19.8095 8.65202 19.6429C8.67424 19.4762 8.68535 19.3214 8.68535 19.1786C8.68535 19.0357 8.68535 18.9405 8.68535 18.8929V18.1786C8.68535 18.0119 8.68535 17.8571 8.68535 17.7143C8.68535 17.5476 8.67424 17.3929 8.65202 17.25V17.5C8.65202 17.5952 8.65202 17.6905 8.65202 17.7857C8.65202 17.8571 8.64091 17.9524 8.6187 18.0714C8.6187 18.1905 8.6187 18.3095 8.6187 18.4286C8.6187 18.5476 8.60759 18.6667 8.58537 18.7857C8.58537 19.0238 8.57426 19.2024 8.55204 19.3214C8.55204 19.3452 8.55204 19.4286 8.55204 19.5714C8.55204 19.6905 8.54093 19.8333 8.51872 20C8.51872 20.1429 8.51872 20.2857 8.51872 20.4286C8.51872 20.5476 8.51872 20.619 8.51872 20.6429C8.51872 20.6905 8.50761 20.7381 8.48539 20.7857C8.48539 20.8333 8.48539 20.881 8.48539 20.9286C8.48539 21.0238 8.48539 21.0714 8.48539 21.0714C8.48539 21.1429 8.47428 21.2143 8.45206 21.2857C8.42984 21.3333 8.42984 21.3929 8.45206 21.4643C8.45206 21.5119 8.44095 21.5595 8.41874 21.6071C8.41874 21.6548 8.41874 21.7024 8.41874 21.75C8.39652 21.7976 8.38541 21.8571 8.38541 21.9286C8.38541 22 8.3743 22.0595 8.35208 22.1071V22.4286C8.35208 22.4524 8.34097 22.4762 8.31876 22.5C8.31876 22.5 8.31876 22.5238 8.31876 22.5714V21.9286C8.34097 21.8095 8.35208 21.7143 8.35208 21.6429C8.35208 21.5476 8.35208 21.4405 8.35208 21.3214C8.3743 21.2262 8.38541 21.0595 8.38541 20.8214C8.38541 20.7738 8.38541 20.6786 8.38541 20.5357C8.40763 20.3929 8.41874 20.2381 8.41874 20.0714C8.41874 19.9048 8.41874 19.75 8.41874 19.6071C8.41874 19.4643 8.41874 19.369 8.41874 19.3214V18.7143C8.44095 18.6667 8.45206 18.5714 8.45206 18.4286C8.47428 18.3095 8.48539 18.1905 8.48539 18.0714C8.48539 17.9286 8.48539 17.7976 8.48539 17.6786V17.5714C8.48539 17.4762 8.48539 17.3929 8.48539 17.3214C8.50761 17.2262 8.51872 17.131 8.51872 17.0357V16.1071C8.56315 16.0119 8.58537 15.8571 8.58537 15.6429C8.58537 15.4048 8.58537 15.2262 8.58537 15.1071C8.60759 14.9881 8.6187 14.869 8.6187 14.75C8.6187 14.631 8.6187 14.5119 8.6187 14.3929V14.0357C8.6187 13.8929 8.62981 13.7857 8.65202 13.7143C8.65202 13.6429 8.65202 13.5714 8.65202 13.5C8.65202 13.4048 8.66313 13.3095 8.68535 13.2143V12.5C8.70757 12.4286 8.71868 12.3214 8.71868 12.1786C8.67424 12.131 8.65202 12.0952 8.65202 12.0714C8.67424 12.0476 8.68535 12.0119 8.68535 11.9643C8.66313 11.9167 8.65202 11.8452 8.65202 11.75V10.1786C8.65202 10.1548 8.64091 10.1429 8.6187 10.1429C8.6187 10.119 8.6187 10.0952 8.6187 10.0714V9.78571C8.64091 9.71429 8.65202 9.59524 8.65202 9.42857V8.89286C8.65202 8.77381 8.66313 8.67857 8.68535 8.60714V8.46429C8.68535 8.36905 8.69646 8.30952 8.71868 8.28572V8.32143C8.71868 8.44048 8.71868 8.57143 8.71868 8.71429C8.71868 8.83333 8.70757 8.95238 8.68535 9.07143C8.68535 9.11905 8.68535 9.16667 8.68535 9.21429C8.70757 9.2381 8.71868 9.27381 8.71868 9.32143C8.69646 9.44048 8.68535 9.59524 8.68535 9.78571V10.1071C8.68535 10.3214 8.69646 10.4881 8.71868 10.6071V11.2857C8.71868 11.3333 8.70757 11.381 8.68535 11.4286C8.68535 11.4524 8.68535 11.4881 8.68535 11.5357C8.68535 11.6071 8.69646 11.6548 8.71868 11.6786V11.8929C8.7409 11.8452 8.752 11.8214 8.752 11.8214V11.3571C8.752 11.2857 8.752 11.2143 8.752 11.1429C8.77422 11.0476 8.78533 10.9643 8.78533 10.8929V8C8.78533 7.88095 8.78533 7.76191 8.78533 7.64286C8.78533 7.52381 8.79644 7.40476 8.81866 7.28572V6.64286C8.79644 6.57143 8.78533 6.51191 8.78533 6.46429C8.80755 6.39286 8.81866 6.33333 8.81866 6.28571C8.86309 6.16667 8.86309 6.05952 8.81866 5.96429C8.81866 5.91667 8.81866 5.86905 8.81866 5.82143C8.84088 5.75 8.84088 5.69048 8.81866 5.64286C8.84088 5.57143 8.84088 5.5 8.81866 5.42857C8.81866 5.35714 8.81866 5.28572 8.81866 5.21429C8.79644 5.11905 8.78533 4.97619 8.78533 4.78571C8.78533 4.71429 8.77422 4.66667 8.752 4.64286C8.752 4.59524 8.77422 4.57143 8.81866 4.57143C8.86309 4.57143 8.88531 4.59524 8.88531 4.64286V4.92857L8.95197 4.96429V5.07143C8.97418 5.11905 8.97418 5.15476 8.95197 5.17857C8.95197 5.20238 8.95197 5.2381 8.95197 5.28571C8.90753 5.35714 8.89642 5.42857 8.91864 5.5C8.94086 5.57143 8.95197 5.63095 8.95197 5.67857C8.97418 5.63095 8.98529 5.59524 8.98529 5.57143C9.02973 5.45238 9.02973 5.34524 8.98529 5.25C8.98529 5.22619 8.9964 5.20238 9.01862 5.17857C9.06305 5.08333 9.06305 5 9.01862 4.92857C9.01862 4.85714 9.02973 4.80953 9.05195 4.78571C9.07416 4.7381 9.08527 4.67857 9.08527 4.60714C9.06305 4.53572 9.07416 4.45238 9.1186 4.35714L9.21858 4.46429C9.21858 4.41667 9.22969 4.36905 9.25191 4.32143C9.25191 4.27381 9.27412 4.26191 9.31856 4.28571C9.363 4.2381 9.38521 4.20238 9.38521 4.17857C9.40743 4.08333 9.37411 4 9.28523 3.92857C9.19636 3.85714 9.16304 3.77381 9.18525 3.67857C9.18525 3.65476 9.19636 3.63095 9.21858 3.60714L9.31856 3.5C9.31856 3.52381 9.31856 3.53572 9.31856 3.53572C9.34078 3.53572 9.35189 3.54762 9.35189 3.57143C9.37411 3.54762 9.38521 3.51191 9.38521 3.46429V3.42857C9.38521 3.38095 9.40743 3.35714 9.45187 3.35714V3.5C9.4963 3.52381 9.4963 3.55952 9.45187 3.60714L9.35189 3.71429C9.32967 3.76191 9.31856 3.83333 9.31856 3.92857C9.363 3.90476 9.37411 3.88095 9.35189 3.85714C9.35189 3.83333 9.363 3.80952 9.38521 3.78571C9.40743 3.76191 9.44076 3.75 9.48519 3.75C9.50741 3.72619 9.51852 3.66667 9.51852 3.57143C9.54074 3.45238 9.55185 3.36905 9.55185 3.32143C9.55185 3.27381 9.57407 3.25 9.6185 3.25C9.64072 3.27381 9.65183 3.33333 9.65183 3.42857V3.67857C9.69626 3.70238 9.71848 3.71429 9.71848 3.71429C9.71848 3.66667 9.72959 3.64286 9.75181 3.64286C9.75181 3.52381 9.77403 3.41667 9.81846 3.32143C9.84068 3.36905 9.8629 3.40476 9.88512 3.42857C9.90733 3.42857 9.90733 3.45238 9.88512 3.5V4.14286C9.88512 4.28572 9.87401 4.39286 9.85179 4.46429V5.64286C9.85179 5.71429 9.85179 5.79762 9.85179 5.89286C9.85179 5.96429 9.84068 6.03572 9.81846 6.10714C9.81846 6.15476 9.81846 6.19048 9.81846 6.21429C9.84068 6.21429 9.85179 6.22619 9.85179 6.25C9.85179 6.44048 9.84068 6.58333 9.81846 6.67857V7.96429C9.77403 8.08333 9.76292 8.19048 9.78514 8.28572C9.80735 8.35714 9.80735 8.45238 9.78514 8.57143C9.78514 8.69048 9.79625 8.79762 9.81846 8.89286C9.81846 9.03571 9.81846 9.17857 9.81846 9.32143C9.81846 9.44048 9.80735 9.55952 9.78514 9.67857V9.71429C9.82957 9.69048 9.85179 9.64286 9.85179 9.57143C9.85179 9.45238 9.8629 9.35714 9.88512 9.28572C9.88512 9.21429 9.88512 9.14286 9.88512 9.07143C9.90733 9 9.91844 8.92857 9.91844 8.85714V8.35714C9.91844 8.28572 9.91844 8.22619 9.91844 8.17857C9.94066 8.10714 9.95177 8.04762 9.95177 8V7.75C9.95177 7.63095 9.95177 7.5119 9.95177 7.39286C9.97399 7.25 9.99621 7.11905 10.0184 7C10.0184 6.80952 10.0295 6.66667 10.0518 6.57143V6.39286C10.0518 6.22619 10.0629 6.09524 10.0851 6V5.85714C10.0851 5.80952 10.0851 5.7619 10.0851 5.71429C10.1073 5.66667 10.1184 5.61905 10.1184 5.57143V5.53572C10.0962 5.4881 10.0851 5.45238 10.0851 5.42857C10.1073 5.38095 10.1184 5.33333 10.1184 5.28571V5.03572C10.1184 4.96429 10.1184 4.89286 10.1184 4.82143C10.1406 4.75 10.1517 4.66667 10.1517 4.57143V3.92857C10.1739 3.85714 10.1851 3.75 10.1851 3.60714V3.5C10.1851 3.42857 10.1739 3.38095 10.1517 3.35714C10.1517 3.33333 10.1517 3.32143 10.1517 3.32143C10.1739 3.29762 10.1851 3.27381 10.1851 3.25H10.2184V3.39286C10.2628 3.34524 10.285 3.28571 10.285 3.21429C10.285 3.14286 10.3073 3.08333 10.3517 3.03572V3.17857C10.3739 3.13095 10.385 3.08333 10.385 3.03572C10.4072 2.9881 10.4295 2.94048 10.4517 2.89286C10.4961 2.77381 10.5628 2.71429 10.6516 2.71429C10.6294 2.71429 10.6516 2.67857 10.7183 2.60714C10.7405 2.63095 10.7738 2.64286 10.8183 2.64286C10.8183 2.83333 10.8405 3 10.8849 3.14286V3.5C10.8627 3.54762 10.8516 3.58333 10.8516 3.60714C10.8738 3.60714 10.8849 3.61905 10.8849 3.64286C10.8849 3.69048 10.8849 3.7381 10.8849 3.78571C10.9071 3.83333 10.896 3.88095 10.8516 3.92857C10.8516 4 10.8516 4.07143 10.8516 4.14286C10.8738 4.19048 10.8849 4.2381 10.8849 4.28571V4.64286C10.8627 4.66667 10.8627 4.71429 10.8849 4.78571C10.9071 4.66667 10.9182 4.57143 10.9182 4.5C10.9182 4.40476 10.9182 4.30953 10.9182 4.21429C10.9182 4.09524 10.9182 4 10.9182 3.92857C10.9405 3.83333 10.9405 3.72619 10.9182 3.60714V3.03572C10.9627 3.08333 10.9849 3.2381 10.9849 3.5C10.9849 3.7381 10.9849 3.88095 10.9849 3.92857C10.9849 4.04762 10.9738 4.16667 10.9516 4.28571C10.9516 4.38095 10.9516 4.4881 10.9516 4.60714C10.9294 4.82143 10.9182 5.03571 10.9182 5.25C10.9182 5.46429 10.9071 5.67857 10.8849 5.89286V6.39286C10.8627 6.51191 10.8516 6.66667 10.8516 6.85714V7.35714C10.8294 7.42857 10.8183 7.5 10.8183 7.57143C10.8405 7.61905 10.8516 7.67857 10.8516 7.75V8.39286C10.8516 8.44048 10.8405 8.47619 10.8183 8.5C10.8183 8.52381 10.8183 8.55952 10.8183 8.60714C10.8405 8.65476 10.8405 8.70238 10.8183 8.75C10.8183 8.77381 10.8183 8.80952 10.8183 8.85714V9.71429C10.8183 9.7619 10.8405 9.79762 10.8849 9.82143V8.64286C10.9071 8.45238 10.9182 8.25 10.9182 8.03572C10.9182 7.82143 10.9182 7.61905 10.9182 7.42857C10.9182 7.30952 10.9182 7.19048 10.9182 7.07143C10.9182 6.92857 10.9294 6.79762 10.9516 6.67857C10.9516 6.4881 10.9516 6.32143 10.9516 6.17857C10.9516 6.01191 10.9627 5.84524 10.9849 5.67857C10.9849 5.53571 10.996 5.44048 11.0182 5.39286V5.67857C10.996 5.79762 10.9849 5.91667 10.9849 6.03572C10.9849 6.13095 10.9849 6.2381 10.9849 6.35714C10.9849 6.83333 10.9849 7.30952 10.9849 7.78571C10.9849 8.2381 10.9627 8.70238 10.9182 9.17857V10.7857C10.896 10.8333 10.8849 10.869 10.8849 10.8929C10.9071 10.9167 10.9182 10.9524 10.9182 11H11.0516C11.096 10.9762 11.1515 10.9643 11.2182 10.9643C11.3071 10.9405 11.3959 10.9286 11.4848 10.9286C11.5737 10.9048 11.6737 10.881 11.7847 10.8571C11.9181 10.8095 12.0291 10.7738 12.118 10.75H12.218C12.2624 10.7262 12.318 10.7143 12.3846 10.7143C12.4513 10.6905 12.5068 10.6667 12.5513 10.6429C12.6401 10.619 12.7179 10.5952 12.7846 10.5714C12.8512 10.5476 12.929 10.5238 13.0178 10.5C13.0623 10.5 13.0956 10.4881 13.1178 10.4643C13.2511 10.4167 13.3622 10.3929 13.4511 10.3929C13.4955 10.3929 13.5289 10.381 13.5511 10.3571C13.6399 10.3333 13.7177 10.3095 13.7844 10.2857C13.851 10.2619 13.9288 10.2262 14.0176 10.1786C14.0399 10.1548 14.0732 10.1429 14.1176 10.1429C14.2287 10.0952 14.3287 10.0476 14.4176 10C14.5287 9.92857 14.6397 9.86905 14.7508 9.82143C14.8397 9.77381 14.9175 9.7381 14.9841 9.71429C15.073 9.66667 15.1619 9.61905 15.2507 9.57143C15.2952 9.52381 15.3396 9.4881 15.384 9.46429C15.4285 9.44048 15.484 9.40476 15.5507 9.35714C15.6396 9.30952 15.7173 9.25 15.784 9.17857C15.8728 9.10714 15.9617 9.03571 16.0506 8.96429L16.4505 8.64286C16.5172 8.59524 16.5727 8.53572 16.6171 8.46429C16.6838 8.39286 16.7504 8.33333 16.8171 8.28572L16.9504 8.14286C17.0837 8 17.1504 7.82143 17.1504 7.60714C17.1504 7.55952 17.1393 7.52381 17.117 7.5C17.1837 7.42857 17.1948 7.32143 17.1504 7.17857C17.1504 7.10714 17.117 7.07143 17.0504 7.07143C17.006 7.02381 16.9615 7.03572 16.9171 7.10714C16.8282 7.20238 16.7838 7.33333 16.7838 7.5C16.7393 7.5 16.706 7.51191 16.6838 7.53571V7.42857C16.706 7.33333 16.7171 7.19048 16.7171 7V6.96429C16.6949 6.84524 16.6838 6.7381 16.6838 6.64286C16.6838 6.54762 16.6616 6.44048 16.6171 6.32143C16.5949 6.17857 16.5505 6.04762 16.4838 5.92857C16.4838 5.90476 16.4616 5.86905 16.4172 5.82143V5.75C16.4172 5.70238 16.4061 5.66667 16.3839 5.64286C16.3616 5.61905 16.3394 5.58333 16.3172 5.53572C16.295 5.51191 16.2728 5.4881 16.2505 5.46429C16.2505 5.44048 16.2394 5.41667 16.2172 5.39286C16.195 5.34524 16.1728 5.32143 16.1506 5.32143C16.1506 5.29762 16.1395 5.2619 16.1172 5.21429C16.0728 5.16667 16.0395 5.13095 16.0173 5.10714C15.995 5.05952 15.9617 5 15.9173 4.92857C15.8728 4.88095 15.8284 4.84524 15.784 4.82143C15.7617 4.77381 15.7284 4.72619 15.684 4.67857C15.6396 4.60714 15.5618 4.51191 15.4507 4.39286L14.8841 3.78571C14.8397 3.7381 14.7842 3.69048 14.7175 3.64286C14.6731 3.59524 14.6286 3.54762 14.5842 3.5C14.5398 3.45238 14.4953 3.41667 14.4509 3.39286C14.4065 3.36905 14.362 3.33333 14.3176 3.28571C14.2287 3.19048 14.1176 3.10714 13.9843 3.03572C13.9621 3.0119 13.9066 2.97619 13.8177 2.92857C13.751 2.90476 13.6955 2.88095 13.651 2.85714C13.6066 2.83333 13.5622 2.80952 13.5177 2.78571C13.4955 2.76191 13.4733 2.75 13.4511 2.75C13.4511 2.75 13.44 2.7381 13.4178 2.71429C13.3955 2.71429 13.3622 2.70238 13.3178 2.67857C13.2956 2.65476 13.2622 2.64286 13.2178 2.64286C13.1511 2.59524 13.0734 2.55952 12.9845 2.53572C12.8956 2.5119 12.8068 2.4881 12.7179 2.46429C12.6735 2.46429 12.5846 2.44048 12.4513 2.39286C12.4291 2.39286 12.4068 2.39286 12.3846 2.39286C12.3624 2.36905 12.3291 2.35714 12.2846 2.35714C12.218 2.35714 12.1513 2.34524 12.0847 2.32143C12.018 2.29762 11.9514 2.29762 11.8847 2.32143H11.8181C11.8181 2.29762 11.7736 2.28571 11.6848 2.28571L11.6514 2.32143C11.5403 2.32143 11.4515 2.30952 11.3848 2.28571H11.2182C11.1515 2.30952 11.1071 2.30952 11.0849 2.28571H10.9516C10.9071 2.28571 10.8516 2.29762 10.7849 2.32143C10.7405 2.32143 10.6961 2.32143 10.6516 2.32143C10.6294 2.32143 10.6072 2.30952 10.585 2.28571H10.5517C10.3961 2.28571 10.285 2.29762 10.2184 2.32143H9.81846C9.75181 2.34524 9.68516 2.35714 9.6185 2.35714C9.57407 2.33333 9.51852 2.32143 9.45187 2.32143C9.38521 2.34524 9.31856 2.35714 9.25191 2.35714C9.18525 2.33333 9.1186 2.33333 9.05195 2.35714C8.94086 2.40476 8.82977 2.40476 8.71868 2.35714C8.67424 2.35714 8.62981 2.36905 8.58537 2.39286C8.54093 2.39286 8.4965 2.39286 8.45206 2.39286C8.42984 2.41667 8.3743 2.44048 8.28543 2.46429C8.19656 2.46429 8.14101 2.46429 8.11879 2.46429C8.11879 2.51191 8.09658 2.51191 8.05214 2.46429H8.01881C7.97438 2.4881 7.91883 2.5 7.85218 2.5C7.80774 2.5 7.76331 2.5119 7.71887 2.53572H7.68555C7.64111 2.55952 7.58556 2.57143 7.51891 2.57143C7.47448 2.57143 7.41893 2.58333 7.35228 2.60714V2.5C7.26341 2.5 7.18564 2.46429 7.11899 2.39286C7.11899 2.34524 7.15232 2.29762 7.21897 2.25L7.18564 2.21429H7.11899C7.05234 2.2381 6.97457 2.22619 6.8857 2.17857H6.78572C6.83016 2.15476 6.84127 2.13095 6.81905 2.10714C6.81905 2.08333 6.84127 2.07143 6.8857 2.07143C6.93014 2.04762 6.99679 2.03572 7.08566 2.03572C7.1301 2.0119 7.28562 1.9881 7.55224 1.96429C7.81885 1.94048 7.9966 1.92857 8.08547 1.92857C8.15212 1.90476 8.2521 1.89286 8.38541 1.89286C8.42984 1.89286 8.45206 1.86905 8.45206 1.82143C8.40763 1.79762 8.36319 1.79762 8.31876 1.82143C8.29654 1.82143 8.26321 1.82143 8.21877 1.82143H7.65222C7.58556 1.79762 7.5078 1.79762 7.41893 1.82143C7.35228 1.82143 7.28562 1.82143 7.21897 1.82143C7.15232 1.82143 7.05234 1.78571 6.91903 1.71429C6.91903 1.69048 6.90792 1.66667 6.8857 1.64286C6.8857 1.61905 6.8857 1.58333 6.8857 1.53572C6.90792 1.53572 6.93014 1.53572 6.95236 1.53572C6.97457 1.51191 7.0079 1.52381 7.05234 1.57143C7.11899 1.59524 7.18564 1.59524 7.2523 1.57143C7.29673 1.57143 7.31895 1.58333 7.31895 1.60714C7.29673 1.63095 7.27451 1.64286 7.2523 1.64286C7.2523 1.64286 7.24119 1.65476 7.21897 1.67857C7.28562 1.70238 7.35228 1.70238 7.41893 1.67857C7.39671 1.63095 7.40782 1.55952 7.45226 1.46429C7.51891 1.44048 7.57446 1.41667 7.61889 1.39286C7.68555 1.36905 7.7522 1.35714 7.81885 1.35714C7.88551 1.35714 7.95216 1.35714 8.01881 1.35714C8.08547 1.33333 8.16323 1.30952 8.2521 1.28571H8.35208C8.30765 1.33333 8.28543 1.35714 8.28543 1.35714C8.35208 1.40476 8.40763 1.40476 8.45206 1.35714C8.4965 1.30952 8.56315 1.28571 8.65202 1.28571H9.45187C9.62961 1.28571 9.76292 1.27381 9.85179 1.25H9.9851C10.1406 1.25 10.2517 1.21429 10.3184 1.14286C10.2961 1.14286 10.2739 1.14286 10.2517 1.14286C10.2517 1.11905 10.2406 1.10714 10.2184 1.10714C10.1739 1.10714 10.1184 1.10714 10.0518 1.10714C10.0073 1.08333 9.95177 1.08333 9.88512 1.10714C9.84068 1.08333 9.79625 1.08333 9.75181 1.10714C9.72959 1.10714 9.69626 1.10714 9.65183 1.10714H9.05195C9.00751 1.10714 8.95197 1.11905 8.88531 1.14286C8.84088 1.14286 8.79644 1.14286 8.752 1.14286C8.70757 1.14286 8.65202 1.15476 8.58537 1.17857C8.54093 1.17857 8.4965 1.17857 8.45206 1.17857C8.34097 1.20238 8.21877 1.22619 8.08547 1.25C7.97438 1.25 7.85218 1.26191 7.71887 1.28571H7.41893C7.41893 1.26191 7.44115 1.25 7.48558 1.25C7.59667 1.25 7.66333 1.21429 7.68555 1.14286C7.68555 1.04762 7.74109 1 7.85218 1C7.94105 1 7.9966 0.988095 8.01881 0.964286C8.15212 0.869048 8.22988 0.809524 8.2521 0.785715C8.29654 0.761906 8.34097 0.702382 8.38541 0.607144C8.40763 0.535714 8.46317 0.476191 8.55204 0.428572C8.6187 0.428572 8.66313 0.404762 8.68535 0.357143C8.68535 0.333333 8.71868 0.321429 8.78533 0.321429C8.82977 0.27381 8.89642 0.250001 8.98529 0.250001C9.02973 0.226192 9.06305 0.214287 9.08527 0.214287C9.12971 0.214287 9.17414 0.202382 9.21858 0.178571C9.32967 0.178571 9.47409 0.154762 9.65183 0.107144C9.71848 0.107144 9.78514 0.107144 9.85179 0.107144C9.91844 0.0833344 9.9851 0.0714298 10.0518 0.0714298C10.1184 0.0714298 10.1851 0.0714298 10.2517 0.0714298C10.3184 0.0476191 10.385 0.0357138 10.4517 0.0357138C10.4961 0.0357138 10.5517 0.0357138 10.6183 0.0357138C10.685 0.0119046 10.7516 0 10.8183 0H11.2182C11.2848 0 11.3404 0.0119046 11.3848 0.0357138C11.4515 0.0357138 11.5181 0.0357138 11.5848 0.0357138H12.2846C12.418 0.0357138 12.5068 0.0476191 12.5513 0.0714298C12.5735 0.095239 12.6179 0.107144 12.6846 0.107144C12.729 0.0833344 12.7734 0.0833344 12.8179 0.107144C12.8845 0.107144 12.9401 0.107144 12.9845 0.107144C13.0289 0.130953 13.0845 0.142857 13.1511 0.142857C13.2178 0.142857 13.2845 0.154762 13.3511 0.178571C13.3955 0.154762 13.44 0.154762 13.4844 0.178571C13.5289 0.178571 13.5733 0.178571 13.6177 0.178571C13.6399 0.202382 13.6622 0.214287 13.6844 0.214287C13.7066 0.261906 13.7621 0.285715 13.851 0.285715C13.8732 0.285715 13.8843 0.285715 13.8843 0.285715C13.9066 0.261906 13.9288 0.250001 13.951 0.250001C13.951 0.345239 13.9954 0.392858 14.0843 0.392858H14.3176C14.3176 0.392858 14.3398 0.416668 14.3842 0.464286C14.4065 0.464286 14.4398 0.488095 14.4842 0.535714C14.5287 0.559524 14.6175 0.595239 14.7508 0.642857C14.8175 0.666667 14.873 0.690476 14.9175 0.714287C14.9619 0.738096 15.0063 0.761906 15.0508 0.785715C15.0952 0.809524 15.1285 0.845239 15.1508 0.892858C15.1952 0.916668 15.2396 0.928572 15.2841 0.928572C15.3285 0.976191 15.3618 1.01191 15.384 1.03572C15.4285 1.03572 15.4729 1.05953 15.5174 1.10714C15.5618 1.13095 15.6062 1.16667 15.6507 1.21429C15.7173 1.2381 15.7729 1.27381 15.8173 1.32143C15.8395 1.34524 15.8506 1.35714 15.8506 1.35714C15.8728 1.35714 15.8951 1.36905 15.9173 1.39286C15.9395 1.41667 16.0173 1.47619 16.1506 1.57143L16.3505 1.78571C16.395 1.83333 16.4283 1.85714 16.4505 1.85714C16.4727 1.90476 16.4949 1.92857 16.5172 1.92857C16.5394 1.92857 16.5616 1.95238 16.5838 2C16.6282 2.04762 16.6505 2.08333 16.6505 2.10714C16.6949 2.15476 16.7282 2.20238 16.7504 2.25C16.7949 2.27381 16.8393 2.30952 16.8838 2.35714C16.906 2.38095 16.9171 2.40476 16.9171 2.42857C16.9393 2.45238 16.9726 2.47619 17.0171 2.5C17.0615 2.59524 17.1059 2.67857 17.1504 2.75C17.1504 2.75 17.1726 2.77381 17.217 2.82143L17.2503 2.85714C17.2726 2.90476 17.2948 2.95238 17.317 3C17.3614 3.04762 17.4059 3.10714 17.4503 3.17857C17.4725 3.25 17.5059 3.30952 17.5503 3.35714C17.5947 3.40476 17.6392 3.47619 17.6836 3.57143L17.7836 3.67857C17.828 3.77381 17.8613 3.83333 17.8836 3.85714C17.9058 3.90476 17.928 3.94048 17.9502 3.96429C17.9724 3.9881 17.9835 4.02381 17.9835 4.07143C18.0724 4.21429 18.1391 4.33333 18.1835 4.42857C18.1835 4.47619 18.1946 4.51191 18.2168 4.53572C18.2168 4.55952 18.2168 4.58333 18.2168 4.60714C18.239 4.60714 18.2502 4.61905 18.2502 4.64286L18.3501 4.85714C18.3501 4.88095 18.3501 4.90476 18.3501 4.92857C18.3724 4.92857 18.3835 4.94048 18.3835 4.96429L18.4834 5.17857C18.4834 5.25 18.5168 5.30952 18.5834 5.35714C18.6056 5.38095 18.6167 5.42857 18.6167 5.5C18.6834 5.59524 18.7278 5.69048 18.7501 5.78571V5.89286C18.7723 5.91667 18.7834 5.95238 18.7834 6C18.8056 6 18.8167 6.02381 18.8167 6.07143L18.9167 6.39286V6.46429C18.9167 6.51191 18.9167 6.57143 18.9167 6.64286C18.9389 6.69048 18.95 6.7381 18.95 6.78571C18.95 6.83333 18.95 6.86905 18.95 6.89286C18.9722 6.91667 18.9833 6.94048 18.9833 6.96429V7.57143C18.9833 7.61905 18.9833 7.66667 18.9833 7.71429C19.0056 7.7381 19.0056 7.77381 18.9833 7.82143V8.07143L18.8834 8.5C18.8611 8.54762 18.85 8.59524 18.85 8.64286C18.85 8.66667 18.8389 8.70238 18.8167 8.75C18.8167 8.77381 18.8056 8.78571 18.7834 8.78571C18.7834 8.78571 18.7834 8.79762 18.7834 8.82143C18.7612 8.86905 18.7389 8.90476 18.7167 8.92857C18.6945 8.95238 18.6834 8.9881 18.6834 9.03571C18.6834 9.08333 18.6612 9.13095 18.6167 9.17857C18.5723 9.22619 18.539 9.28572 18.5168 9.35714C18.4945 9.42857 18.4612 9.5 18.4168 9.57143C18.3946 9.59524 18.3724 9.61905 18.3501 9.64286C18.3501 9.66667 18.3279 9.70238 18.2835 9.75C18.2835 9.79762 18.2502 9.85714 18.1835 9.92857C18.1391 10 18.0946 10.0714 18.0502 10.1429C18.028 10.1905 17.9946 10.2381 17.9502 10.2857L17.7169 10.5357C17.6725 10.5833 17.6281 10.619 17.5836 10.6429C17.5614 10.6429 17.5281 10.6667 17.4836 10.7143C17.4392 10.7619 17.3503 10.8333 17.217 10.9286C17.1948 10.9762 17.1726 11 17.1504 11C17.1281 11 17.1059 11.0238 17.0837 11.0714C17.0615 11.0714 17.0282 11.0952 16.9837 11.1429H16.9504C16.8838 11.1667 16.806 11.2262 16.7171 11.3214C16.6282 11.3452 16.4949 11.4286 16.3172 11.5714C16.2283 11.619 16.1395 11.6667 16.0506 11.7143C15.9839 11.7619 15.9062 11.8095 15.8173 11.8571C15.7951 11.881 15.7729 11.8929 15.7506 11.8929C15.7284 11.8929 15.6951 11.9167 15.6507 11.9643H15.6173C15.5285 12.0119 15.484 12.0357 15.484 12.0357C15.4396 12.0833 15.3952 12.1071 15.3507 12.1071C15.3063 12.131 15.273 12.1548 15.2507 12.1786C15.2285 12.1786 15.1952 12.1905 15.1508 12.2143C15.1063 12.2381 15.0841 12.25 15.0841 12.25C15.0174 12.25 14.973 12.2738 14.9508 12.3214H14.9175C14.8953 12.3214 14.873 12.3333 14.8508 12.3571C14.8286 12.381 14.7953 12.3929 14.7508 12.3929C14.7286 12.3929 14.7064 12.4167 14.6842 12.4643H14.6509C14.4953 12.5119 14.3953 12.5595 14.3509 12.6071C14.3287 12.631 14.2954 12.6429 14.2509 12.6429C14.2065 12.6905 14.151 12.7262 14.0843 12.75C14.0176 12.75 13.9621 12.7619 13.9177 12.7857H13.8843C13.8399 12.8095 13.7844 12.8333 13.7177 12.8571C13.651 12.8571 13.5955 12.869 13.5511 12.8929H13.5177C13.4511 12.9405 13.34 12.9643 13.1845 12.9643H13.0512C12.9401 13.0119 12.8401 13.0476 12.7512 13.0714C12.6624 13.0714 12.5624 13.0833 12.4513 13.1071H12.318L11.9181 13.2143H11.6848C11.6403 13.2381 11.5959 13.25 11.5515 13.25C11.507 13.2262 11.4626 13.2262 11.4182 13.25C11.3959 13.25 11.3626 13.25 11.3182 13.25H11.1182C11.1182 13.2738 11.1071 13.2976 11.0849 13.3214C11.0849 13.4405 11.0738 13.5357 11.0516 13.6071V14.4643C11.0516 14.5833 11.0404 14.7024 11.0182 14.8214C11.0182 14.9167 11.0182 15.0238 11.0182 15.1429C11.0182 15.3095 11.0071 15.4762 10.9849 15.6429C10.9849 15.8095 10.9738 15.9762 10.9516 16.1429V17.1429C10.9294 17.1905 10.9182 17.25 10.9182 17.3214C10.9405 17.369 10.9405 17.4167 10.9182 17.4643V17.8929C10.896 17.8929 10.8849 17.9167 10.8849 17.9643V18.25C10.8849 18.2976 10.8738 18.3571 10.8516 18.4286C10.8516 18.5 10.8516 18.5595 10.8516 18.6071V19C10.8294 19.0476 10.8183 19.0952 10.8183 19.1429C10.8405 19.1905 10.8516 19.2381 10.8516 19.2857C10.8516 19.3095 10.8405 19.381 10.8183 19.5C10.8183 19.619 10.8183 19.7619 10.8183 19.9286C10.8183 20.0714 10.8183 20.2143 10.8183 20.3571C10.8183 20.4762 10.8183 20.5476 10.8183 20.5714C10.7961 20.619 10.7849 20.7024 10.7849 20.8214C10.7627 20.869 10.7516 20.9286 10.7516 21C10.7294 21.0476 10.7183 21.0952 10.7183 21.1429C10.7183 21.1667 10.7072 21.2024 10.685 21.25C10.685 21.3452 10.6739 21.4048 10.6516 21.4286C10.6294 21.4524 10.6183 21.4762 10.6183 21.5V21.5357C10.5739 21.5833 10.5517 21.6429 10.5517 21.7143C10.5517 21.7857 10.5405 21.8452 10.5183 21.8929V22.2143C10.5183 22.2619 10.5072 22.2857 10.485 22.2857C10.4628 22.3095 10.4517 22.3333 10.4517 22.3571C10.4517 22.381 10.4406 22.4167 10.4183 22.4643C10.4183 22.5119 10.4072 22.5476 10.385 22.5714C10.385 22.5714 10.385 22.5833 10.385 22.6071C10.3628 22.6548 10.3517 22.7262 10.3517 22.8214C10.3517 22.869 10.3517 22.9048 10.3517 22.9286C10.3739 22.9524 10.3739 22.9881 10.3517 23.0357C10.3517 23.131 10.3184 23.2381 10.2517 23.3571V23.1786L10.3517 22.2143V21.75C10.3517 21.6071 10.3517 21.4643 10.3517 21.3214C10.3739 21.1786 10.385 21.0357 10.385 20.8929V19.1071C10.4072 18.9881 10.4183 18.7976 10.4183 18.5357V17.9286C10.4406 17.7857 10.4517 17.6429 10.4517 17.5C10.4739 17.3571 10.4961 17.2024 10.5183 17.0357C10.5183 16.9881 10.5183 16.8333 10.5183 16.5714C10.5183 16.3095 10.5294 16.1548 10.5517 16.1071C10.5517 15.9167 10.5517 15.7262 10.5517 15.5357C10.5739 15.3452 10.585 15.1548 10.585 14.9643V14.4286H10.5517V14.7857C10.5294 14.9048 10.5183 15.0238 10.5183 15.1429C10.5183 15.2381 10.5183 15.3452 10.5183 15.4643C10.4961 15.5833 10.485 15.6905 10.485 15.7857C10.485 15.881 10.4739 15.9881 10.4517 16.1071C10.4517 16.2262 10.4406 16.4524 10.4183 16.7857C10.4183 17.0952 10.4072 17.3095 10.385 17.4286V17.8214C10.3628 17.8929 10.3517 18 10.3517 18.1429V18.3214C10.3517 18.4405 10.3517 18.5595 10.3517 18.6786C10.3517 18.7976 10.3406 18.9167 10.3184 19.0357V20.6786C10.2961 20.7976 10.285 20.9167 10.285 21.0357C10.3073 21.131 10.3184 21.2381 10.3184 21.3571C10.2961 21.5 10.285 21.6429 10.285 21.7857C10.285 21.9286 10.285 22.0595 10.285 22.1786C10.2628 22.3214 10.2517 22.4643 10.2517 22.6071C10.2517 22.75 10.2406 22.881 10.2184 23C10.2184 23.1429 10.2073 23.2857 10.1851 23.4286C10.1851 23.5476 10.1851 23.6786 10.1851 23.8214C10.1628 23.869 10.1517 23.9286 10.1517 24C10.1517 24.0476 10.1406 24.0952 10.1184 24.1429V24.1786C10.074 24.2024 10.0518 24.25 10.0518 24.3214C10.0518 24.3452 10.0295 24.4048 9.9851 24.5C9.96288 24.5476 9.94066 24.6071 9.91844 24.6786C9.89623 24.7262 9.89623 24.7857 9.91844 24.8571V24.9286C9.91844 24.9762 9.88512 25 9.81846 25C9.79625 24.9762 9.76292 24.9643 9.71848 24.9643ZM11.6181 10.6071C11.507 10.6548 11.3959 10.6905 11.2848 10.7143C11.1738 10.7143 11.0627 10.7262 10.9516 10.75C10.9294 10.7024 10.9405 10.6667 10.9849 10.6429H11.0849C11.1738 10.6429 11.2404 10.631 11.2848 10.6071C11.3293 10.6071 11.3737 10.6071 11.4182 10.6071C11.4626 10.5833 11.507 10.5714 11.5515 10.5714H11.6181V10.6071ZM11.7514 10.5357C11.7514 10.5595 11.7181 10.5714 11.6514 10.5714C11.6737 10.5714 11.6848 10.5714 11.6848 10.5714C11.707 10.5476 11.7292 10.5357 11.7514 10.5357ZM8.71868 8.10714C8.71868 8.13095 8.70757 8.15476 8.68535 8.17857V8.10714H8.71868ZM9.6185 3.14286C9.66294 3.19048 9.65183 3.21429 9.58518 3.21429C9.58518 3.19048 9.59628 3.16667 9.6185 3.14286Z" fill="#F2F2F2"/>
<path d="M5.61448 12.4036C5.5711 12.4036 5.52772 12.4036 5.48434 12.4036C5.44096 12.3802 5.39758 12.4036 5.3542 12.4737C5.41927 12.4503 5.50603 12.4386 5.61448 12.4386V12.4036ZM6.16756 13.8772C6.18925 13.8772 6.20009 13.8772 6.20009 13.8772C6.22178 13.8539 6.25432 13.8422 6.29769 13.8422C6.21094 13.7954 6.09164 13.7954 5.93982 13.8422C5.89644 13.8422 5.85306 13.8539 5.80968 13.8772C5.78799 13.8772 5.75546 13.8772 5.71208 13.8772H5.64701C5.58194 13.9006 5.51687 13.9123 5.4518 13.9123C5.38674 13.9123 5.32167 13.924 5.2566 13.9474C5.23491 13.9474 5.22406 13.9591 5.22406 13.9825C5.22406 13.9825 5.21322 13.9825 5.19153 13.9825C5.14815 13.9591 5.10477 13.9591 5.06139 13.9825C5.01801 13.9825 4.97463 13.9825 4.93126 13.9825V14.0176C4.97463 14.0176 5.01801 14.0176 5.06139 14.0176C5.10477 13.9942 5.14815 13.9825 5.19153 13.9825H5.2566C5.40842 13.9591 5.56025 13.9474 5.71208 13.9474C5.8639 13.924 6.01573 13.9006 6.16756 13.8772ZM6.42783 12.6843C6.53628 12.6843 6.63388 12.6492 6.72064 12.579C6.69895 12.5556 6.66642 12.5439 6.62304 12.5439C6.62304 12.5439 6.60135 12.5673 6.55797 12.6141H6.4929C6.44952 12.6141 6.42783 12.6375 6.42783 12.6843ZM7.17612 12.579C7.24119 12.6258 7.33879 12.5907 7.46893 12.4737C7.29541 12.4971 7.19781 12.5322 7.17612 12.579ZM7.89187 12.7895C8.0437 12.7895 8.16299 12.7778 8.24975 12.7544C8.42327 12.7544 8.54256 12.7193 8.60763 12.6492C8.54256 12.6258 8.48833 12.6258 8.44495 12.6492H8.15215C8.10877 12.6492 8.05454 12.6609 7.98948 12.6843C7.9461 12.6843 7.90272 12.6843 7.85934 12.6843C7.81596 12.6843 7.78343 12.696 7.76174 12.7193C7.74005 12.7193 7.70751 12.7193 7.66413 12.7193C7.59906 12.7427 7.50146 12.7544 7.37132 12.7544C7.39301 12.8246 7.43639 12.8597 7.50146 12.8597C7.54484 12.8363 7.59906 12.8246 7.66413 12.8246C7.77258 12.8246 7.84849 12.8129 7.89187 12.7895ZM8.67269 13.5615C8.71607 13.5615 8.74861 13.5498 8.7703 13.5264H8.44495C8.40158 13.5264 8.34735 13.5381 8.28228 13.5615C8.2389 13.5615 8.19553 13.5615 8.15215 13.5615C8.19553 13.5848 8.21721 13.5965 8.21721 13.5965C8.43411 13.5965 8.58594 13.5848 8.67269 13.5615ZM9.51858 13.4913C9.58365 13.4679 9.64872 13.4562 9.71379 13.4562C9.77886 13.4562 9.84393 13.4445 9.909 13.4211V13.386C9.84393 13.4094 9.77886 13.4211 9.71379 13.4211C9.64872 13.4211 9.58365 13.4328 9.51858 13.4562V13.4913ZM3.33708 13.0351C3.27201 13.0819 3.20694 13.0702 3.14187 13.0001L3.0768 12.9299C3.12018 12.8831 3.16356 12.8597 3.20694 12.8597H3.72749C3.77087 12.8597 3.79256 12.8714 3.79256 12.8948C3.77087 12.9182 3.74918 12.9299 3.72749 12.9299C3.64073 12.9065 3.51059 12.9416 3.33708 13.0351ZM6.72064 11.3509C6.65557 11.3509 6.57966 11.3626 6.4929 11.386C6.42783 11.386 6.36276 11.3626 6.29769 11.3158L6.26516 11.2808C6.30854 11.2808 6.35192 11.2808 6.3953 11.2808C6.43868 11.2574 6.48205 11.2574 6.52543 11.2808H6.75317C6.73148 11.3275 6.72064 11.3509 6.72064 11.3509ZM15.8953 11.1053H15.9604C15.9821 11.1755 15.9712 11.2223 15.9278 11.2457C15.8845 11.2457 15.8519 11.2691 15.8302 11.3158C15.7868 11.3392 15.7435 11.3626 15.7001 11.386C15.6784 11.386 15.6459 11.3977 15.6025 11.4211C15.6459 11.4445 15.6784 11.4562 15.7001 11.4562C15.7218 11.4562 15.7435 11.4679 15.7652 11.4913C15.8302 11.4913 15.8628 11.5147 15.8628 11.5615C15.8411 11.5848 15.8085 11.5965 15.7652 11.5965C15.635 11.5965 15.5374 11.6199 15.4724 11.6667C15.4073 11.7369 15.3422 11.7486 15.2771 11.7018C15.2121 11.7018 15.147 11.7018 15.0819 11.7018C15.0386 11.6784 14.9843 11.6901 14.9193 11.7369C14.8976 11.7603 14.865 11.772 14.8217 11.772C14.8 11.7486 14.7674 11.7369 14.7241 11.7369C14.6156 11.7369 14.5397 11.7603 14.4963 11.8071C14.5397 11.8071 14.5831 11.8188 14.6265 11.8422C14.6698 11.8422 14.7132 11.8422 14.7566 11.8422H14.8217C14.865 11.8889 14.9084 11.9123 14.9518 11.9123C15.0169 11.8889 15.0711 11.8772 15.1145 11.8772C15.2012 11.8772 15.2446 11.9123 15.2446 11.9825C15.1579 11.9357 15.0819 11.924 15.0169 11.9474C14.9518 11.9708 14.8759 11.9825 14.7891 11.9825H14.6265C14.4746 11.9825 14.3553 11.9708 14.2686 11.9474C14.312 12.041 14.3337 12.0878 14.3337 12.0878C14.2903 12.0878 14.2361 12.0995 14.171 12.1229C14.1276 12.1229 14.0842 12.1112 14.0408 12.0878C13.9975 12.0878 13.9432 12.0995 13.8782 12.1229C13.8348 12.1229 13.7914 12.1229 13.748 12.1229C13.683 12.1463 13.6179 12.1463 13.5528 12.1229C13.5095 12.0995 13.4552 12.0995 13.3902 12.1229C13.3468 12.1229 13.3034 12.1229 13.26 12.1229V12.2281C13.3251 12.2515 13.4118 12.2632 13.5203 12.2632C13.5637 12.2398 13.6071 12.2398 13.6504 12.2632C13.6938 12.2632 13.7372 12.2632 13.7806 12.2632C13.7589 12.3334 13.7263 12.3685 13.683 12.3685C13.5528 12.4153 13.4986 12.4854 13.5203 12.579C13.4335 12.579 13.3468 12.5907 13.26 12.6141C13.195 12.6141 13.1299 12.6141 13.0648 12.6141C13.0648 12.6609 13.0757 12.7077 13.0974 12.7544C13.0106 12.7778 12.9238 12.8012 12.8371 12.8246C12.772 12.848 12.6961 12.8597 12.6093 12.8597C12.6093 12.9065 12.6093 12.9416 12.6093 12.965C12.631 12.965 12.6419 12.9884 12.6419 13.0351C12.5985 13.0117 12.5551 13.0234 12.5117 13.0702C12.4684 13.0936 12.425 13.117 12.3816 13.1404C12.3382 13.1404 12.3057 13.1521 12.284 13.1755C12.284 13.1989 12.284 13.2223 12.284 13.2457C12.3057 13.2457 12.3165 13.2691 12.3165 13.3158C12.2515 13.2691 12.2189 13.2457 12.2189 13.2457C12.1755 13.2223 12.1213 13.2106 12.0563 13.2106V13.2457C12.1213 13.3158 12.1105 13.3626 12.0237 13.386H11.861C11.8177 13.4094 11.7743 13.4211 11.7309 13.4211C11.6875 13.4211 11.6442 13.4328 11.6008 13.4562C11.5791 13.5264 11.5249 13.5498 11.4381 13.5264C11.3513 13.4562 11.2212 13.4445 11.0477 13.4913C10.9609 13.5381 10.885 13.5498 10.82 13.5264C10.7115 13.5264 10.6139 13.5381 10.5271 13.5615C10.4621 13.5615 10.3753 13.5732 10.2669 13.5965C10.2235 13.6433 10.1801 13.6667 10.1367 13.6667C10.115 13.6433 10.0825 13.6316 10.0391 13.6316C10.0174 13.6316 9.99575 13.6433 9.97406 13.6667C9.97406 13.6901 9.95237 13.7135 9.909 13.7369L9.81139 13.6316C9.7897 13.6316 9.76801 13.6433 9.74632 13.6667C9.74632 13.6667 9.73548 13.6667 9.71379 13.6667C9.71379 13.6667 9.73548 13.6901 9.77886 13.7369C9.75717 13.7603 9.71379 13.772 9.64872 13.772C9.62703 13.7486 9.61619 13.7018 9.61619 13.6316H9.51858L8.93297 13.7369C8.84621 13.7603 8.70523 13.772 8.51002 13.772C8.44495 13.7954 8.37989 13.8071 8.31482 13.8071C8.24975 13.8071 8.19553 13.8188 8.15215 13.8422C8.0437 13.8655 7.93525 13.8889 7.8268 13.9123C7.71836 13.9123 7.60991 13.9123 7.50146 13.9123C7.24119 13.9591 6.97007 13.9942 6.6881 14.0176C6.42783 14.041 6.16756 14.0761 5.90728 14.1229C5.8639 14.1229 5.80968 14.1346 5.74461 14.1579C5.67954 14.1579 5.61447 14.1579 5.54941 14.1579C5.44096 14.1813 5.33251 14.2047 5.22406 14.2281C5.11562 14.2281 5.00717 14.2281 4.89872 14.2281C4.83365 14.2515 4.7469 14.2632 4.63845 14.2632H4.18297C4.07452 14.2632 3.97692 14.2632 3.89016 14.2632C3.82509 14.2632 3.73833 14.2866 3.62989 14.3334C3.54313 14.3334 3.49975 14.3334 3.49975 14.3334C3.36961 14.3334 3.23947 14.3685 3.10934 14.4386C2.9792 14.5088 2.90329 14.4737 2.8816 14.3334C2.83822 14.2632 2.82737 14.2164 2.84906 14.193C2.87075 14.0995 2.84906 14.0293 2.784 13.9825C2.76231 13.9357 2.75146 13.8889 2.75146 13.8422C2.75146 13.7954 2.74062 13.7486 2.71893 13.7018C2.69724 13.6316 2.75146 13.5732 2.8816 13.5264C2.85991 13.503 2.84906 13.4679 2.84906 13.4211L2.91413 13.3509C2.95751 13.3509 3.00089 13.3392 3.04427 13.3158C3.10934 13.2924 3.16356 13.2924 3.20694 13.3158H3.23947C3.30454 13.2691 3.44553 13.2457 3.66242 13.2457C3.901 13.2223 4.07452 13.1989 4.18297 13.1755C4.1179 13.1521 4.04199 13.0936 3.95523 13.0001C4.06368 12.8831 4.18297 12.8246 4.31311 12.8246C4.37817 12.8246 4.38902 12.7895 4.34564 12.7193C4.34564 12.7193 4.34564 12.696 4.34564 12.6492C4.38902 12.6258 4.41071 12.6141 4.41071 12.6141C4.4324 12.6141 4.46493 12.6024 4.50831 12.579C4.53 12.579 4.54084 12.579 4.54084 12.579C4.56253 12.5556 4.58422 12.5439 4.60591 12.5439C4.71436 12.5673 4.81196 12.5673 4.89872 12.5439V12.4036C4.96379 12.3334 5.05055 12.2983 5.159 12.2983C5.18069 12.2983 5.21322 12.2749 5.2566 12.2281C5.2566 12.2047 5.27829 12.1463 5.32167 12.0527C5.40842 12.0761 5.51687 12.0878 5.64701 12.0878H5.80968C5.85306 12.041 5.89644 12.0293 5.93982 12.0527C5.9832 12.0527 6.02658 12.0527 6.06995 12.0527C6.1784 12.0527 6.276 12.0527 6.36276 12.0527C6.44952 12.0527 6.54712 12.041 6.65557 12.0176C6.76402 12.0176 6.83993 12.0059 6.88331 11.9825C6.94838 11.9591 7.05683 11.9474 7.20865 11.9474C7.20865 11.9942 7.18696 12.0176 7.14358 12.0176C7.12189 11.9942 7.08936 12.0059 7.04598 12.0527V12.0878C7.02429 12.1112 6.99176 12.1229 6.94838 12.1229C6.92669 12.1463 6.89416 12.1579 6.85078 12.1579C6.76402 12.1346 6.63388 12.1463 6.46037 12.193H6.16756C6.14587 12.2164 6.09164 12.2281 6.00489 12.2281C6.02658 12.2749 6.05911 12.2983 6.10249 12.2983C6.18925 12.2983 6.276 12.2983 6.36276 12.2983C6.44952 12.2749 6.54712 12.2632 6.65557 12.2632C6.72064 12.2632 6.75317 12.2983 6.75317 12.3685C6.83993 12.3451 6.91584 12.3451 6.98091 12.3685C7.06767 12.3919 7.15443 12.3919 7.24119 12.3685C7.34964 12.3217 7.42555 12.31 7.46893 12.3334C7.51231 12.3334 7.55569 12.3334 7.59906 12.3334C7.64244 12.31 7.68582 12.2983 7.7292 12.2983H8.18468C8.22806 12.2749 8.29313 12.2866 8.37989 12.3334C8.24975 12.3802 8.16299 12.4036 8.11961 12.4036C8.11961 12.4036 8.08708 12.4386 8.02201 12.5088C8.06539 12.5322 8.09792 12.5439 8.11961 12.5439C8.16299 12.5439 8.20637 12.5556 8.24975 12.579C8.31482 12.5088 8.39073 12.4971 8.47749 12.5439C8.49918 12.5673 8.5534 12.5556 8.64016 12.5088C8.68354 12.4854 8.74861 12.4971 8.83537 12.5439L8.8679 12.6141C8.97635 12.5907 9.07395 12.579 9.16071 12.579C9.26916 12.5556 9.3776 12.5322 9.48605 12.5088C9.5945 12.4854 9.70295 12.462 9.81139 12.4386C9.94153 12.4153 10.0608 12.3919 10.1693 12.3685H10.2018C10.3103 12.3217 10.4079 12.2983 10.4946 12.2983C10.5814 12.2749 10.679 12.2515 10.7874 12.2281L11.6658 12.0176C11.7743 12.0176 11.9153 11.9942 12.0888 11.9474C12.1105 11.9474 12.1213 11.9474 12.1213 11.9474C12.143 11.924 12.1755 11.9123 12.2189 11.9123C12.1755 11.8889 12.1539 11.8772 12.1539 11.8772C12.1105 11.8772 12.0671 11.8889 12.0237 11.9123C11.9803 11.9123 11.937 11.9006 11.8936 11.8772H11.796C11.7526 11.9006 11.7092 11.924 11.6658 11.9474C11.6225 11.9708 11.5791 11.9591 11.5357 11.9123C11.4923 11.9357 11.4489 11.9474 11.4056 11.9474C11.3839 11.9474 11.3622 11.9708 11.3405 12.0176V11.9123C11.2321 11.9123 11.1236 11.924 11.0152 11.9474C10.9067 11.9708 10.7983 11.9942 10.6898 12.0176C10.6247 12.041 10.6139 12.0761 10.6573 12.1229V12.1579C10.6139 12.2047 10.5705 12.1813 10.5271 12.0878C10.5055 12.1112 10.4512 12.1463 10.3645 12.193H10.2669C10.2669 12.0995 10.2886 12.0527 10.3319 12.0527L10.6247 11.9474C10.7115 11.9006 10.7983 11.8655 10.885 11.8422C10.9935 11.8188 11.1019 11.7954 11.2104 11.772C11.3622 11.7252 11.5032 11.7018 11.6333 11.7018C11.7851 11.6784 11.937 11.655 12.0888 11.6316L13.0648 11.5264H13.4878C13.5095 11.503 13.5528 11.4913 13.6179 11.4913C13.6613 11.5147 13.7047 11.5147 13.748 11.4913C13.8131 11.4679 13.8673 11.4796 13.9107 11.5264C13.9107 11.4562 13.9432 11.4211 14.0083 11.4211C14.0517 11.4211 14.0842 11.4094 14.1059 11.386C14.1276 11.3626 14.1601 11.3392 14.2035 11.3158H14.0408C13.9324 11.3392 13.8239 11.3626 13.7155 11.386C13.6287 11.386 13.5311 11.3977 13.4227 11.4211C13.3142 11.4211 13.2166 11.4328 13.1299 11.4562C13.0431 11.4562 12.9455 11.4562 12.8371 11.4562C12.772 11.4796 12.7069 11.4913 12.6419 11.4913C12.5768 11.4913 12.5117 11.503 12.4467 11.5264H12.1539C12.0454 11.5264 11.9695 11.5381 11.9261 11.5615C11.9261 11.5848 11.9153 11.5965 11.8936 11.5965C11.8936 11.5965 11.8936 11.5848 11.8936 11.5615C11.7851 11.5615 11.6875 11.5732 11.6008 11.5965C11.5357 11.6199 11.4489 11.6316 11.3405 11.6316C11.2537 11.655 11.167 11.6667 11.0802 11.6667C10.9935 11.6667 10.8959 11.6784 10.7874 11.7018C10.7224 11.7018 10.679 11.6784 10.6573 11.6316C10.7224 11.5615 10.8091 11.5264 10.9176 11.5264C10.9609 11.5264 11.0477 11.503 11.1778 11.4562C11.0694 11.4562 10.9826 11.4679 10.9176 11.4913H10.7549C10.5814 11.4913 10.4512 11.503 10.3645 11.5264H10.3319C10.2235 11.5498 10.0608 11.5615 9.84393 11.5615H9.81139C9.74633 11.5848 9.67041 11.5965 9.58365 11.5965C9.51858 11.5732 9.45352 11.5732 9.38845 11.5965C9.34507 11.5965 9.29085 11.6082 9.22578 11.6316C9.1824 11.6316 9.13902 11.6316 9.09564 11.6316H8.9655C8.85705 11.655 8.73776 11.6667 8.60763 11.6667C8.47749 11.6667 8.3582 11.6784 8.24975 11.7018C8.18468 11.7018 8.10877 11.7135 8.02201 11.7369C7.95694 11.7369 7.89187 11.7369 7.8268 11.7369C7.76174 11.7135 7.69667 11.7135 7.6316 11.7369C7.56653 11.7603 7.50146 11.7603 7.43639 11.7369C7.4147 11.7369 7.39301 11.7486 7.37132 11.772C7.34964 11.7954 7.33879 11.8071 7.33879 11.8071C7.3171 11.8071 7.29541 11.8071 7.27372 11.8071C7.23034 11.7837 7.19781 11.7837 7.17612 11.8071C7.17612 11.8071 7.16527 11.8071 7.14358 11.8071C7.10021 11.8071 7.05683 11.8188 7.01345 11.8422C6.97007 11.8422 6.92669 11.8305 6.88331 11.8071C6.83993 11.8071 6.8074 11.8188 6.78571 11.8422C6.76402 11.8422 6.73148 11.8422 6.6881 11.8422H6.65557C6.56881 11.8655 6.48205 11.8889 6.3953 11.9123C6.30854 11.9357 6.22178 11.924 6.13502 11.8772C6.09164 11.8772 6.05911 11.8889 6.03742 11.9123C6.01573 11.9123 5.9832 11.9123 5.93982 11.9123C5.87475 11.8422 5.82052 11.8071 5.77715 11.8071L5.71208 11.7369C5.71208 11.7135 5.73377 11.6784 5.77715 11.6316C5.79884 11.6316 5.85306 11.6082 5.93982 11.5615C5.9832 11.6082 6.03742 11.6082 6.10249 11.5615C6.16756 11.5147 6.26516 11.5147 6.3953 11.5615C6.46037 11.5381 6.57966 11.5264 6.75317 11.5264C6.79655 11.503 6.87247 11.4913 6.98091 11.4913C7.02429 11.4679 7.06767 11.4562 7.11105 11.4562C7.17612 11.4562 7.23034 11.4445 7.27372 11.4211H7.33879C7.42555 11.4445 7.55569 11.4328 7.7292 11.386C7.81596 11.386 7.89187 11.386 7.95694 11.386C8.0437 11.3626 8.1413 11.3509 8.24975 11.3509C8.29313 11.3509 8.34735 11.3509 8.41242 11.3509C8.47749 11.3275 8.54256 11.3158 8.60763 11.3158C8.65101 11.3158 8.70523 11.3158 8.7703 11.3158C8.83537 11.2924 8.90043 11.2808 8.9655 11.2808C9.05226 11.3275 9.12817 11.3158 9.19324 11.2457H9.22578C9.33422 11.2924 9.42098 11.3041 9.48605 11.2808C9.57281 11.234 9.67041 11.2223 9.77886 11.2457C9.86562 11.2691 9.98491 11.2808 10.1367 11.2808C10.1801 11.2574 10.256 11.2457 10.3645 11.2457L10.397 11.2106C10.4404 11.234 10.4838 11.2457 10.5271 11.2457C10.5705 11.2223 10.6139 11.2223 10.6573 11.2457C10.7224 11.2457 10.7874 11.2457 10.8525 11.2457C10.9176 11.2223 10.9826 11.2106 11.0477 11.2106H11.1453C11.2971 11.2106 11.4164 11.1872 11.5032 11.1404C11.5466 11.1404 11.5791 11.1521 11.6008 11.1755C11.6225 11.1989 11.6658 11.2106 11.7309 11.2106C11.7743 11.2106 11.8177 11.2106 11.861 11.2106C11.9261 11.1872 11.9803 11.1755 12.0237 11.1755C12.1105 11.1755 12.1864 11.1872 12.2515 11.2106C12.3382 11.2106 12.425 11.1989 12.5117 11.1755H12.7069C12.7503 11.1521 12.8262 11.1404 12.9347 11.1404C12.9781 11.1404 13.0106 11.1521 13.0323 11.1755C13.054 11.1755 13.0865 11.1755 13.1299 11.1755C13.1733 11.1755 13.195 11.1872 13.195 11.2106C13.2166 11.2106 13.2492 11.2106 13.2926 11.2106C13.3576 11.1872 13.4227 11.1755 13.4878 11.1755C13.5528 11.1755 13.6287 11.1638 13.7155 11.1404H13.748C13.748 11.0702 13.7697 11.0117 13.8131 10.965C13.8782 10.9884 13.9432 10.9884 14.0083 10.965C14.0734 10.9416 14.1384 10.9416 14.2035 10.965C14.2252 10.9884 14.2794 10.9767 14.3662 10.9299C14.4963 10.8831 14.5939 10.8714 14.659 10.8948H14.7566C14.8434 10.8714 14.9518 10.8831 15.0819 10.9299C15.147 10.9533 15.2012 10.9767 15.2446 11.0001C15.3097 11.0001 15.3748 11.0001 15.4398 11.0001C15.5266 11.0234 15.6025 11.0468 15.6676 11.0702C15.7326 11.0702 15.8085 11.0819 15.8953 11.1053ZM14.7241 10.6492C14.7458 10.6492 14.7674 10.6609 14.7891 10.6843C14.8108 10.6843 14.8325 10.6609 14.8542 10.6141C14.9193 10.5907 15.006 10.579 15.1145 10.579C15.1579 10.5556 15.2012 10.5556 15.2446 10.579C15.288 10.579 15.3314 10.579 15.3747 10.579C15.3964 10.579 15.4073 10.5673 15.4073 10.5439C15.4507 10.5205 15.4832 10.5205 15.5049 10.5439C15.5483 10.5439 15.5916 10.5439 15.635 10.5439C15.6567 10.5673 15.7001 10.579 15.7652 10.579H15.9604C16.0037 10.6024 16.0471 10.6141 16.0905 10.6141C16.1339 10.6141 16.1664 10.6258 16.1881 10.6492L16.2857 10.7544C16.199 10.8246 16.1013 10.8363 15.9929 10.7895C15.9495 10.7661 15.8736 10.7544 15.7652 10.7544H15.6676C15.6242 10.731 15.5591 10.7194 15.4724 10.7194C15.3856 10.7194 15.3422 10.7194 15.3422 10.7194C15.2988 10.7194 15.2771 10.7194 15.2771 10.7194C15.2338 10.7427 15.1795 10.7544 15.1145 10.7544C15.0711 10.731 15.0277 10.7194 14.9843 10.7194C14.9626 10.7194 14.9301 10.696 14.8867 10.6492C14.8867 10.696 14.8759 10.731 14.8542 10.7544C14.7891 10.7544 14.7458 10.7193 14.7241 10.6492ZM8.41242 12.2983C8.4558 12.2515 8.47749 12.2749 8.47749 12.3685C8.4558 12.3685 8.44495 12.3685 8.44495 12.3685C8.44495 12.3451 8.43411 12.3334 8.41242 12.3334V12.2983ZM13.8456 11.1404C13.889 11.1404 13.9216 11.1404 13.9432 11.1404C13.9649 11.117 13.9866 11.1053 14.0083 11.1053C13.9432 11.0819 13.889 11.0936 13.8456 11.1404ZM5.159 12.7544H5.06139V12.7895C5.08308 12.7895 5.09393 12.7895 5.09393 12.7895C5.11562 12.7661 5.13731 12.7544 5.159 12.7544ZM5.06139 13.0702C5.0397 13.0468 5.00717 13.0585 4.96379 13.1053C5.02886 13.1053 5.06139 13.1053 5.06139 13.1053V13.0702ZM6.36276 13.8071C6.42783 13.8305 6.48205 13.8188 6.52543 13.772C6.48205 13.7954 6.44952 13.7954 6.42783 13.772C6.40614 13.7486 6.38445 13.7603 6.36276 13.8071ZM6.55797 13.772C6.57966 13.7954 6.62304 13.7954 6.6881 13.772H6.55797ZM6.85078 13.772C6.89416 13.7486 6.95922 13.7369 7.04598 13.7369C6.95922 13.7135 6.89416 13.7252 6.85078 13.772ZM7.69667 12.579C7.67498 12.5088 7.64244 12.4971 7.59906 12.5439C7.64244 12.5907 7.67498 12.6024 7.69667 12.579ZM7.534 13.6667H7.30626V13.7018C7.4147 13.7018 7.49062 13.6901 7.534 13.6667ZM7.59906 13.6667C7.64244 13.6667 7.68582 13.6667 7.7292 13.6667C7.77258 13.6433 7.81596 13.6316 7.85934 13.6316C7.77258 13.5848 7.68582 13.5965 7.59906 13.6667ZM8.08708 13.5965V13.5615C8.0437 13.5848 8.02201 13.5965 8.02201 13.5965H8.08708ZM8.80283 13.5615C8.84621 13.5615 8.88959 13.5615 8.93297 13.5615C8.97635 13.5381 9.01973 13.5264 9.06311 13.5264H8.7703L8.80283 13.5615ZM14.0408 11.1053C14.0842 11.0819 14.1168 11.0819 14.1384 11.1053C14.1601 11.1287 14.1927 11.117 14.236 11.0702C14.1927 11.0702 14.1601 11.0702 14.1384 11.0702C14.1168 11.0468 14.0842 11.0585 14.0408 11.1053ZM15.3747 11.386C15.3747 11.3626 15.3531 11.3509 15.3097 11.3509C15.3531 11.3743 15.3747 11.386 15.3747 11.386ZM8.54256 12.3334C8.62931 12.2866 8.68354 12.2866 8.70523 12.3334H8.54256ZM10.7224 12.1229C10.7874 12.0995 10.8308 12.1112 10.8525 12.1579C10.8091 12.1579 10.7766 12.1579 10.7549 12.1579C10.7549 12.1346 10.744 12.1229 10.7224 12.1229ZM8.8679 12.2281C8.84621 12.2749 8.81368 12.2983 8.7703 12.2983C8.7703 12.2749 8.80283 12.2515 8.8679 12.2281Z" fill="#F2F2F2"/>
<path d="M5.90449 16.3508C5.85678 16.3508 5.80906 16.3508 5.76134 16.3508C5.71363 16.3274 5.66591 16.3508 5.61819 16.421C5.68977 16.3976 5.7852 16.3859 5.90449 16.3859V16.3508ZM6.51288 17.8245C6.53674 17.8245 6.54867 17.8245 6.54867 17.8245C6.57253 17.8011 6.60832 17.7894 6.65604 17.7894C6.5606 17.7426 6.42938 17.7426 6.26237 17.7894C6.21465 17.7894 6.16694 17.8011 6.11922 17.8245C6.09536 17.8245 6.05957 17.8245 6.01186 17.8245H5.94028C5.86871 17.8479 5.79713 17.8596 5.72556 17.8596C5.65398 17.8596 5.58241 17.8713 5.51083 17.8947C5.48697 17.8947 5.47504 17.9064 5.47504 17.9298C5.47504 17.9298 5.46311 17.9298 5.43925 17.9298C5.39154 17.9064 5.34382 17.9064 5.2961 17.9298C5.24839 17.9298 5.20067 17.9298 5.15295 17.9298V17.9649C5.20067 17.9649 5.24839 17.9649 5.2961 17.9649C5.34382 17.9415 5.39154 17.9298 5.43925 17.9298H5.51083C5.67784 17.9064 5.84485 17.8947 6.01186 17.8947C6.17887 17.8713 6.34588 17.8479 6.51288 17.8245ZM6.79919 16.6315C6.91848 16.6315 7.02584 16.5964 7.12127 16.5263C7.09742 16.5029 7.06163 16.4912 7.01391 16.4912C7.01391 16.4912 6.99005 16.5146 6.94234 16.5614H6.87076C6.82304 16.5614 6.79919 16.5847 6.79919 16.6315ZM7.6223 16.5263C7.69388 16.573 7.80124 16.538 7.94439 16.421C7.75352 16.4444 7.64616 16.4795 7.6223 16.5263ZM8.40963 16.7368C8.57664 16.7368 8.70786 16.7251 8.8033 16.7017C8.99416 16.7017 9.12538 16.6666 9.19696 16.5964C9.12538 16.573 9.06574 16.573 9.01802 16.5964H8.69593C8.64822 16.5964 8.58857 16.6081 8.51699 16.6315C8.46928 16.6315 8.42156 16.6315 8.37384 16.6315C8.32613 16.6315 8.29034 16.6432 8.26648 16.6666C8.24262 16.6666 8.20683 16.6666 8.15912 16.6666C8.08754 16.69 7.98018 16.7017 7.83703 16.7017C7.86089 16.7719 7.9086 16.807 7.98018 16.807C8.0279 16.7836 8.08754 16.7719 8.15912 16.7719C8.27841 16.7719 8.36191 16.7602 8.40963 16.7368ZM9.26853 17.5087C9.31625 17.5087 9.35204 17.497 9.3759 17.4736H9.01802C8.9703 17.4736 8.91066 17.4853 8.83908 17.5087C8.79137 17.5087 8.74365 17.5087 8.69593 17.5087C8.74365 17.5321 8.76751 17.5438 8.76751 17.5438C9.00609 17.5438 9.1731 17.5321 9.26853 17.5087ZM10.199 17.4385C10.2706 17.4152 10.3422 17.4035 10.4137 17.4035C10.4853 17.4035 10.5569 17.3918 10.6285 17.3684V17.3333C10.5569 17.3567 10.4853 17.3684 10.4137 17.3684C10.3422 17.3684 10.2706 17.3801 10.199 17.4035V17.4385ZM3.39936 16.9824C3.32778 17.0292 3.25621 17.0175 3.18463 16.9473L3.11306 16.8771C3.16077 16.8304 3.20849 16.807 3.25621 16.807H3.82881C3.87653 16.807 3.90038 16.8187 3.90038 16.8421C3.87653 16.8654 3.85267 16.8771 3.82881 16.8771C3.73338 16.8537 3.59022 16.8888 3.39936 16.9824ZM7.12127 15.2982C7.0497 15.2982 6.9662 15.3099 6.87076 15.3333C6.79919 15.3333 6.72761 15.3099 6.65604 15.2631L6.62025 15.228C6.66796 15.228 6.71568 15.228 6.7634 15.228C6.81112 15.2046 6.85883 15.2046 6.90655 15.228H7.15706C7.1332 15.2748 7.12127 15.2982 7.12127 15.2982ZM17.2134 15.0526H17.285C17.3088 15.1228 17.2969 15.1695 17.2492 15.1929C17.2015 15.1929 17.1657 15.2163 17.1418 15.2631C17.0941 15.2865 17.0464 15.3099 16.9987 15.3333C16.9748 15.3333 16.939 15.345 16.8913 15.3684C16.939 15.3918 16.9748 15.4035 16.9987 15.4035C17.0225 15.4035 17.0464 15.4152 17.0702 15.4385C17.1418 15.4385 17.1776 15.4619 17.1776 15.5087C17.1538 15.5321 17.118 15.5438 17.0702 15.5438C16.9271 15.5438 16.8197 15.5672 16.7482 15.614C16.6766 15.6842 16.605 15.6959 16.5334 15.6491C16.4619 15.6491 16.3903 15.6491 16.3187 15.6491C16.271 15.6257 16.2113 15.6374 16.1398 15.6842C16.1159 15.7076 16.0801 15.7192 16.0324 15.7192C16.0085 15.6959 15.9728 15.6842 15.925 15.6842C15.8057 15.6842 15.7222 15.7076 15.6745 15.7543C15.7222 15.7543 15.77 15.766 15.8177 15.7894C15.8654 15.7894 15.9131 15.7894 15.9608 15.7894H16.0324C16.0801 15.8362 16.1278 15.8596 16.1756 15.8596C16.2471 15.8362 16.3068 15.8245 16.3545 15.8245C16.4499 15.8245 16.4976 15.8596 16.4976 15.9298C16.4022 15.883 16.3187 15.8713 16.2471 15.8947C16.1756 15.9181 16.092 15.9298 15.9966 15.9298H15.8177C15.6507 15.9298 15.5194 15.9181 15.424 15.8947C15.4717 15.9883 15.4956 16.035 15.4956 16.035C15.4479 16.035 15.3882 16.0467 15.3167 16.0701C15.2689 16.0701 15.2212 16.0584 15.1735 16.035C15.1258 16.035 15.0661 16.0467 14.9946 16.0701C14.9468 16.0701 14.8991 16.0701 14.8514 16.0701C14.7798 16.0935 14.7083 16.0935 14.6367 16.0701C14.589 16.0467 14.5293 16.0467 14.4577 16.0701C14.41 16.0701 14.3623 16.0701 14.3146 16.0701V16.1754C14.3862 16.1988 14.4816 16.2105 14.6009 16.2105C14.6486 16.1871 14.6963 16.1871 14.744 16.2105C14.7918 16.2105 14.8395 16.2105 14.8872 16.2105C14.8633 16.2807 14.8276 16.3157 14.7798 16.3157C14.6367 16.3625 14.577 16.4327 14.6009 16.5263C14.5055 16.5263 14.41 16.538 14.3146 16.5614C14.243 16.5614 14.1714 16.5614 14.0999 16.5614C14.0999 16.6081 14.1118 16.6549 14.1357 16.7017C14.0402 16.7251 13.9448 16.7485 13.8494 16.7719C13.7778 16.7953 13.6943 16.807 13.5988 16.807C13.5988 16.8537 13.5988 16.8888 13.5988 16.9122C13.6227 16.9122 13.6346 16.9356 13.6346 16.9824C13.5869 16.959 13.5392 16.9707 13.4915 17.0175C13.4438 17.0409 13.396 17.0643 13.3483 17.0877C13.3006 17.0877 13.2648 17.0994 13.241 17.1228C13.241 17.1461 13.241 17.1695 13.241 17.1929C13.2648 17.1929 13.2768 17.2163 13.2768 17.2631C13.2052 17.2163 13.1694 17.1929 13.1694 17.1929C13.1217 17.1695 13.062 17.1578 12.9905 17.1578V17.1929C13.062 17.2631 13.0501 17.3099 12.9547 17.3333H12.7757C12.728 17.3567 12.6803 17.3684 12.6326 17.3684C12.5849 17.3684 12.5371 17.3801 12.4894 17.4035C12.4656 17.4736 12.4059 17.497 12.3105 17.4736C12.2151 17.4035 12.0719 17.3918 11.881 17.4385C11.7856 17.4853 11.7021 17.497 11.6305 17.4736C11.5112 17.4736 11.4039 17.4853 11.3084 17.5087C11.2369 17.5087 11.1414 17.5204 11.0221 17.5438C10.9744 17.5906 10.9267 17.614 10.879 17.614C10.8551 17.5906 10.8193 17.5789 10.7716 17.5789C10.7478 17.5789 10.7239 17.5906 10.7 17.614C10.7 17.6374 10.6762 17.6608 10.6285 17.6842L10.5211 17.5789C10.4972 17.5789 10.4734 17.5906 10.4495 17.614C10.4495 17.614 10.4376 17.614 10.4137 17.614C10.4137 17.614 10.4376 17.6374 10.4853 17.6842C10.4615 17.7076 10.4137 17.7192 10.3422 17.7192C10.3183 17.6959 10.3064 17.6491 10.3064 17.5789H10.199L9.55484 17.6842C9.4594 17.7076 9.30432 17.7192 9.0896 17.7192C9.01802 17.7426 8.94645 17.7543 8.87487 17.7543C8.8033 17.7543 8.74365 17.766 8.69593 17.7894C8.57664 17.8128 8.45735 17.8362 8.33806 17.8596C8.21876 17.8596 8.09947 17.8596 7.98018 17.8596C7.69388 17.9064 7.39565 17.9415 7.08549 17.9649C6.79919 17.9883 6.51288 18.0233 6.22658 18.0701C6.17887 18.0701 6.11922 18.0818 6.04765 18.1052C5.97607 18.1052 5.90449 18.1052 5.83292 18.1052C5.71363 18.1286 5.59433 18.152 5.47504 18.1754C5.35575 18.1754 5.23646 18.1754 5.11717 18.1754C5.04559 18.1988 4.95016 18.2105 4.83086 18.2105H4.32984C4.21054 18.2105 4.10318 18.2105 4.00775 18.2105C3.93617 18.2105 3.84074 18.2339 3.72145 18.2807C3.62601 18.2807 3.5783 18.2807 3.5783 18.2807C3.43515 18.2807 3.29199 18.3157 3.14884 18.3859C3.00569 18.4561 2.92219 18.421 2.89833 18.2807C2.85061 18.2105 2.83868 18.1637 2.86254 18.1403C2.8864 18.0467 2.86254 17.9766 2.79097 17.9298C2.76711 17.883 2.75518 17.8362 2.75518 17.7894C2.75518 17.7426 2.74325 17.6959 2.71939 17.6491C2.69553 17.5789 2.75518 17.5204 2.89833 17.4736C2.87447 17.4502 2.86254 17.4152 2.86254 17.3684L2.93412 17.2982C2.98183 17.2982 3.02955 17.2865 3.07727 17.2631C3.14884 17.2397 3.20849 17.2397 3.25621 17.2631H3.29199C3.36357 17.2163 3.51865 17.1929 3.75723 17.1929C4.01968 17.1695 4.21054 17.1461 4.32984 17.1228C4.25826 17.0994 4.17476 17.0409 4.07932 16.9473C4.19862 16.8304 4.32984 16.7719 4.47299 16.7719C4.54456 16.7719 4.55649 16.7368 4.50878 16.6666C4.50878 16.6666 4.50878 16.6432 4.50878 16.5964C4.55649 16.573 4.58035 16.5614 4.58035 16.5614C4.60421 16.5614 4.64 16.5497 4.68771 16.5263C4.71157 16.5263 4.7235 16.5263 4.7235 16.5263C4.74736 16.5029 4.77122 16.4912 4.79508 16.4912C4.91437 16.5146 5.02173 16.5146 5.11717 16.4912V16.3508C5.18874 16.2807 5.28417 16.2456 5.40347 16.2456C5.42733 16.2456 5.46311 16.2222 5.51083 16.1754C5.51083 16.152 5.53469 16.0935 5.58241 15.9999C5.67784 16.0233 5.79713 16.035 5.94028 16.035H6.11922C6.16694 15.9883 6.21465 15.9766 6.26237 15.9999C6.31009 15.9999 6.3578 15.9999 6.40552 15.9999C6.52481 15.9999 6.63218 15.9999 6.72761 15.9999C6.82304 15.9999 6.93041 15.9883 7.0497 15.9649C7.16899 15.9649 7.2525 15.9532 7.30021 15.9298C7.37179 15.9064 7.49108 15.8947 7.65809 15.8947C7.65809 15.9415 7.63423 15.9649 7.58651 15.9649C7.56266 15.9415 7.52687 15.9532 7.47915 15.9999V16.035C7.45529 16.0584 7.41951 16.0701 7.37179 16.0701C7.34793 16.0935 7.31214 16.1052 7.26443 16.1052C7.16899 16.0818 7.02584 16.0935 6.83497 16.1403H6.51288C6.48903 16.1637 6.42938 16.1754 6.33395 16.1754C6.3578 16.2222 6.39359 16.2456 6.44131 16.2456C6.53674 16.2456 6.63218 16.2456 6.72761 16.2456C6.82304 16.2222 6.93041 16.2105 7.0497 16.2105C7.12127 16.2105 7.15706 16.2456 7.15706 16.3157C7.2525 16.2923 7.336 16.2923 7.40758 16.3157C7.50301 16.3391 7.59844 16.3391 7.69388 16.3157C7.81317 16.269 7.89668 16.2573 7.94439 16.2807C7.99211 16.2807 8.03983 16.2807 8.08754 16.2807C8.13526 16.2573 8.18298 16.2456 8.23069 16.2456H8.73172C8.77944 16.2222 8.85101 16.2339 8.94645 16.2807C8.8033 16.3274 8.70786 16.3508 8.66015 16.3508C8.66015 16.3508 8.62436 16.3859 8.55278 16.4561C8.6005 16.4795 8.63629 16.4912 8.66015 16.4912C8.70786 16.4912 8.75558 16.5029 8.8033 16.5263C8.87487 16.4561 8.95838 16.4444 9.05381 16.4912C9.07767 16.5146 9.13731 16.5029 9.23275 16.4561C9.28047 16.4327 9.35204 16.4444 9.44747 16.4912L9.48326 16.5614C9.60255 16.538 9.70992 16.5263 9.80535 16.5263C9.92464 16.5029 10.0439 16.4795 10.1632 16.4561C10.2825 16.4327 10.4018 16.4093 10.5211 16.3859C10.6643 16.3625 10.7955 16.3391 10.9148 16.3157H10.9506C11.0698 16.269 11.1772 16.2456 11.2726 16.2456C11.3681 16.2222 11.4754 16.1988 11.5947 16.1754L12.561 15.9649C12.6803 15.9649 12.8354 15.9415 13.0262 15.8947C13.0501 15.8947 13.062 15.8947 13.062 15.8947C13.0859 15.8713 13.1217 15.8596 13.1694 15.8596C13.1217 15.8362 13.0978 15.8245 13.0978 15.8245C13.0501 15.8245 13.0024 15.8362 12.9547 15.8596C12.9069 15.8596 12.8592 15.8479 12.8115 15.8245H12.7042C12.6564 15.8479 12.6087 15.8713 12.561 15.8947C12.5133 15.9181 12.4656 15.9064 12.4179 15.8596C12.3701 15.883 12.3224 15.8947 12.2747 15.8947C12.2508 15.8947 12.227 15.9181 12.2031 15.9649V15.8596C12.0838 15.8596 11.9645 15.8713 11.8452 15.8947C11.726 15.9181 11.6067 15.9415 11.4874 15.9649C11.4158 15.9883 11.4039 16.0233 11.4516 16.0701V16.1052C11.4039 16.152 11.3561 16.1286 11.3084 16.035C11.2846 16.0584 11.2249 16.0935 11.1295 16.1403H11.0221C11.0221 16.0467 11.046 15.9999 11.0937 15.9999L11.4158 15.8947C11.5112 15.8479 11.6067 15.8128 11.7021 15.7894C11.8214 15.766 11.9407 15.7426 12.06 15.7192C12.227 15.6725 12.3821 15.6491 12.5252 15.6491C12.6922 15.6257 12.8592 15.6023 13.0262 15.5789L14.0999 15.4736H14.5651C14.589 15.4502 14.6367 15.4385 14.7083 15.4385C14.756 15.4619 14.8037 15.4619 14.8514 15.4385C14.923 15.4152 14.9826 15.4268 15.0304 15.4736C15.0304 15.4035 15.0661 15.3684 15.1377 15.3684C15.1854 15.3684 15.2212 15.3567 15.2451 15.3333C15.2689 15.3099 15.3047 15.2865 15.3524 15.2631H15.1735C15.0542 15.2865 14.9349 15.3099 14.8156 15.3333C14.7202 15.3333 14.6128 15.345 14.4935 15.3684C14.3742 15.3684 14.2669 15.3801 14.1714 15.4035C14.076 15.4035 13.9687 15.4035 13.8494 15.4035C13.7778 15.4268 13.7062 15.4385 13.6346 15.4385C13.5631 15.4385 13.4915 15.4502 13.4199 15.4736H13.0978C12.9785 15.4736 12.895 15.4853 12.8473 15.5087C12.8473 15.5321 12.8354 15.5438 12.8115 15.5438C12.8115 15.5438 12.8115 15.5321 12.8115 15.5087C12.6922 15.5087 12.5849 15.5204 12.4894 15.5438C12.4179 15.5672 12.3224 15.5789 12.2031 15.5789C12.1077 15.6023 12.0123 15.614 11.9168 15.614C11.8214 15.614 11.714 15.6257 11.5947 15.6491C11.5232 15.6491 11.4754 15.6257 11.4516 15.5789C11.5232 15.5087 11.6186 15.4736 11.7379 15.4736C11.7856 15.4736 11.881 15.4502 12.0242 15.4035C11.9049 15.4035 11.8095 15.4152 11.7379 15.4385H11.5589C11.3681 15.4385 11.2249 15.4502 11.1295 15.4736H11.0937C10.9744 15.497 10.7955 15.5087 10.5569 15.5087H10.5211C10.4495 15.5321 10.366 15.5438 10.2706 15.5438C10.199 15.5204 10.1274 15.5204 10.0559 15.5438C10.0081 15.5438 9.9485 15.5555 9.87693 15.5789C9.82921 15.5789 9.78149 15.5789 9.73378 15.5789H9.59062C9.47133 15.6023 9.34011 15.614 9.19696 15.614C9.05381 15.614 8.92259 15.6257 8.8033 15.6491C8.73172 15.6491 8.64822 15.6608 8.55278 15.6842C8.48121 15.6842 8.40963 15.6842 8.33806 15.6842C8.26648 15.6608 8.19491 15.6608 8.12333 15.6842C8.05175 15.7076 7.98018 15.7076 7.9086 15.6842C7.88475 15.6842 7.86089 15.6959 7.83703 15.7192C7.81317 15.7426 7.80124 15.7543 7.80124 15.7543C7.77738 15.7543 7.75352 15.7543 7.72967 15.7543C7.68195 15.7309 7.64616 15.7309 7.6223 15.7543C7.6223 15.7543 7.61037 15.7543 7.58651 15.7543C7.5388 15.7543 7.49108 15.766 7.44336 15.7894C7.39565 15.7894 7.34793 15.7777 7.30021 15.7543C7.2525 15.7543 7.21671 15.766 7.19285 15.7894C7.16899 15.7894 7.1332 15.7894 7.08549 15.7894H7.0497C6.95427 15.8128 6.85883 15.8362 6.7634 15.8596C6.66796 15.883 6.57253 15.8713 6.4771 15.8245C6.42938 15.8245 6.39359 15.8362 6.36973 15.8596C6.34588 15.8596 6.31009 15.8596 6.26237 15.8596C6.1908 15.7894 6.13115 15.7543 6.08343 15.7543L6.01186 15.6842C6.01186 15.6608 6.03572 15.6257 6.08343 15.5789C6.10729 15.5789 6.16694 15.5555 6.26237 15.5087C6.31009 15.5555 6.36973 15.5555 6.44131 15.5087C6.51288 15.4619 6.62025 15.4619 6.7634 15.5087C6.83497 15.4853 6.9662 15.4736 7.15706 15.4736C7.20478 15.4502 7.28828 15.4385 7.40758 15.4385C7.45529 15.4152 7.50301 15.4035 7.55073 15.4035C7.6223 15.4035 7.68195 15.3918 7.72967 15.3684H7.80124C7.89667 15.3918 8.03983 15.3801 8.23069 15.3333C8.32613 15.3333 8.40963 15.3333 8.48121 15.3333C8.57664 15.3099 8.684 15.2982 8.8033 15.2982C8.85101 15.2982 8.91066 15.2982 8.98223 15.2982C9.05381 15.2748 9.12538 15.2631 9.19696 15.2631C9.24468 15.2631 9.30432 15.2631 9.3759 15.2631C9.44747 15.2397 9.51905 15.228 9.59062 15.228C9.68606 15.2748 9.76956 15.2631 9.84114 15.1929H9.87693C9.99622 15.2397 10.0917 15.2514 10.1632 15.228C10.2587 15.1812 10.366 15.1695 10.4853 15.1929C10.5807 15.2163 10.712 15.228 10.879 15.228C10.9267 15.2046 11.0102 15.1929 11.1295 15.1929L11.1653 15.1578C11.213 15.1812 11.2607 15.1929 11.3084 15.1929C11.3561 15.1695 11.4039 15.1695 11.4516 15.1929C11.5232 15.1929 11.5947 15.1929 11.6663 15.1929C11.7379 15.1695 11.8095 15.1578 11.881 15.1578H11.9884C12.1554 15.1578 12.2866 15.1345 12.3821 15.0877C12.4298 15.0877 12.4656 15.0994 12.4894 15.1228C12.5133 15.1461 12.561 15.1578 12.6326 15.1578C12.6803 15.1578 12.728 15.1578 12.7757 15.1578C12.8473 15.1345 12.9069 15.1228 12.9547 15.1228C13.0501 15.1228 13.1336 15.1345 13.2052 15.1578C13.3006 15.1578 13.396 15.1461 13.4915 15.1228H13.7062C13.7539 15.0994 13.8374 15.0877 13.9567 15.0877C14.0044 15.0877 14.0402 15.0994 14.0641 15.1228C14.0879 15.1228 14.1237 15.1228 14.1714 15.1228C14.2192 15.1228 14.243 15.1345 14.243 15.1578C14.2669 15.1578 14.3027 15.1578 14.3504 15.1578C14.422 15.1345 14.4935 15.1228 14.5651 15.1228C14.6367 15.1228 14.7202 15.1111 14.8156 15.0877H14.8514C14.8514 15.0175 14.8753 14.959 14.923 14.9122C14.9946 14.9356 15.0661 14.9356 15.1377 14.9122C15.2093 14.8888 15.2809 14.8888 15.3524 14.9122C15.3763 14.9356 15.4359 14.9239 15.5314 14.8771C15.6745 14.8304 15.7819 14.8187 15.8535 14.8421H15.9608C16.0563 14.8187 16.1756 14.8304 16.3187 14.8771C16.3903 14.9005 16.4499 14.9239 16.4976 14.9473C16.5692 14.9473 16.6408 14.9473 16.7124 14.9473C16.8078 14.9707 16.8913 14.9941 16.9629 15.0175C17.0345 15.0175 17.118 15.0292 17.2134 15.0526ZM15.925 14.5964C15.9489 14.5964 15.9728 14.6081 15.9966 14.6315C16.0205 14.6315 16.0443 14.6081 16.0682 14.5614C16.1398 14.538 16.2352 14.5263 16.3545 14.5263C16.4022 14.5029 16.4499 14.5029 16.4976 14.5263C16.5454 14.5263 16.5931 14.5263 16.6408 14.5263C16.6647 14.5263 16.6766 14.5146 16.6766 14.4912C16.7243 14.4678 16.7601 14.4678 16.7839 14.4912C16.8317 14.4912 16.8794 14.4912 16.9271 14.4912C16.951 14.5146 16.9987 14.5263 17.0702 14.5263H17.285C17.3327 14.5497 17.3804 14.5614 17.4281 14.5614C17.4758 14.5614 17.5116 14.573 17.5355 14.5964L17.6428 14.7017C17.5474 14.7719 17.4401 14.7836 17.3208 14.7368C17.273 14.7134 17.1895 14.7017 17.0702 14.7017H16.9629C16.9152 14.6783 16.8436 14.6666 16.7482 14.6666C16.6527 14.6666 16.605 14.6666 16.605 14.6666C16.5573 14.6666 16.5334 14.6666 16.5334 14.6666C16.4857 14.69 16.4261 14.7017 16.3545 14.7017C16.3068 14.6783 16.2591 14.6666 16.2113 14.6666C16.1875 14.6666 16.1517 14.6432 16.104 14.5964C16.104 14.6432 16.0921 14.6783 16.0682 14.7017C15.9966 14.7017 15.9489 14.6666 15.925 14.5964ZM8.98223 16.2456C9.02995 16.1988 9.05381 16.2222 9.05381 16.3157C9.02995 16.3157 9.01802 16.3157 9.01802 16.3157C9.01802 16.2923 9.00609 16.2807 8.98223 16.2807V16.2456ZM14.9588 15.0877C15.0065 15.0877 15.0423 15.0877 15.0661 15.0877C15.09 15.0643 15.1139 15.0526 15.1377 15.0526C15.0661 15.0292 15.0065 15.0409 14.9588 15.0877ZM5.40347 16.7017H5.2961V16.7368C5.31996 16.7368 5.33189 16.7368 5.33189 16.7368C5.35575 16.7134 5.37961 16.7017 5.40347 16.7017ZM5.2961 17.0175C5.27225 16.9941 5.23646 17.0058 5.18874 17.0526C5.26032 17.0526 5.2961 17.0526 5.2961 17.0526V17.0175ZM6.72761 17.7543C6.79919 17.7777 6.85883 17.766 6.90655 17.7192C6.85883 17.7426 6.82304 17.7426 6.79919 17.7192C6.77533 17.6959 6.75147 17.7076 6.72761 17.7543ZM6.94234 17.7192C6.9662 17.7426 7.01391 17.7426 7.08549 17.7192H6.94234ZM7.26443 17.7192C7.31214 17.6959 7.38372 17.6842 7.47915 17.6842C7.38372 17.6608 7.31214 17.6725 7.26443 17.7192ZM8.19491 16.5263C8.17105 16.4561 8.13526 16.4444 8.08754 16.4912C8.13526 16.538 8.17105 16.5497 8.19491 16.5263ZM8.01597 17.614H7.76545V17.6491C7.88475 17.6491 7.96825 17.6374 8.01597 17.614ZM8.08754 17.614C8.13526 17.614 8.18298 17.614 8.23069 17.614C8.27841 17.5906 8.32613 17.5789 8.37384 17.5789C8.27841 17.5321 8.18298 17.5438 8.08754 17.614ZM8.62436 17.5438V17.5087C8.57664 17.5321 8.55278 17.5438 8.55278 17.5438H8.62436ZM9.41169 17.5087C9.4594 17.5087 9.50712 17.5087 9.55484 17.5087C9.60255 17.4853 9.65027 17.4736 9.69799 17.4736H9.3759L9.41169 17.5087ZM15.1735 15.0526C15.2212 15.0292 15.257 15.0292 15.2809 15.0526C15.3047 15.076 15.3405 15.0643 15.3882 15.0175C15.3405 15.0175 15.3047 15.0175 15.2809 15.0175C15.257 14.9941 15.2212 15.0058 15.1735 15.0526ZM16.6408 15.3333C16.6408 15.3099 16.6169 15.2982 16.5692 15.2982C16.6169 15.3216 16.6408 15.3333 16.6408 15.3333ZM9.12538 16.2807C9.22082 16.2339 9.28046 16.2339 9.30432 16.2807H9.12538ZM11.5232 16.0701C11.5947 16.0467 11.6425 16.0584 11.6663 16.1052C11.6186 16.1052 11.5828 16.1052 11.5589 16.1052C11.5589 16.0818 11.547 16.0701 11.5232 16.0701ZM9.48326 16.1754C9.4594 16.2222 9.42362 16.2456 9.3759 16.2456C9.3759 16.2222 9.41169 16.1988 9.48326 16.1754Z" fill="#F2F2F2"/>
</svg>
