<svg width="58" height="17" viewBox="0 0 58 17" fill="none" xmlns="http://www.w3.org/2000/svg">
<g opacity="0.7">
<path d="M20.7619 4.94684V4.98072C20.8656 5.02589 20.9434 5.04848 20.9952 5.04848C21.047 5.04848 21.1248 5.05978 21.2285 5.08237C21.4358 5.12754 21.5654 5.17272 21.6173 5.21789C21.721 5.26307 21.8246 5.27437 21.9283 5.25178L20.7619 4.94684ZM24.8054 6.06495V5.96331C24.4944 5.87295 24.2093 5.80519 23.9501 5.76001C23.7427 5.71484 23.5613 5.65837 23.4058 5.5906C23.3021 5.5906 23.1984 5.56801 23.0947 5.52284H23.017C23.017 5.56801 23.017 5.5906 23.017 5.5906C23.0688 5.5906 23.0947 5.60189 23.0947 5.62448L23.5613 5.72613C23.6131 5.74872 23.6909 5.76001 23.7946 5.76001C24.0538 5.87295 24.3389 5.96331 24.6499 6.03107C24.6499 6.00848 24.7018 6.01978 24.8054 6.06495ZM33.2813 7.96237H33.359C33.4627 7.96237 33.5664 7.93978 33.6701 7.8946C33.8774 7.84942 34.0589 7.80425 34.2144 7.75907C34.4218 7.73648 34.6291 7.7026 34.8365 7.65742C34.9402 7.63484 35.0179 7.61225 35.0698 7.58966C35.1734 7.58966 35.2771 7.57837 35.3808 7.55578C35.5363 7.5106 35.6918 7.46542 35.8474 7.42025C36.0547 7.39766 36.2362 7.36378 36.3917 7.3186C36.5472 7.27342 36.8323 7.20566 37.247 7.11531C37.2989 7.09272 37.3507 7.07013 37.4026 7.04754C37.5062 7.04754 37.584 7.03625 37.6358 7.01366C37.7395 6.96848 37.7654 6.94589 37.7136 6.94589C37.6618 6.94589 37.6099 6.9346 37.5581 6.91201C37.5581 6.91201 37.5062 6.92331 37.4026 6.94589C37.247 6.94589 37.1174 6.96848 37.0138 7.01366C36.8582 7.05884 36.7027 7.09272 36.5472 7.11531C36.4435 7.13789 36.3398 7.16048 36.2362 7.18307C36.1325 7.20566 36.0288 7.22825 35.9251 7.25084C35.8733 7.27342 35.7955 7.29601 35.6918 7.3186C35.5882 7.36378 35.4586 7.39766 35.303 7.42025C35.1994 7.44284 35.0698 7.47672 34.9142 7.52189C34.8106 7.54448 34.681 7.58966 34.5254 7.65742C34.3699 7.7026 34.1885 7.74778 33.9811 7.79295C33.7738 7.83813 33.5923 7.88331 33.4368 7.92848C33.385 7.92848 33.359 7.92848 33.359 7.92848C33.359 7.95107 33.3331 7.96237 33.2813 7.96237ZM2.02176 11.1473C2.12544 11.1247 2.25504 11.1021 2.41056 11.0795C2.56608 11.0795 2.69568 11.057 2.79936 11.0118H2.87712C2.9808 10.944 3.08448 10.8988 3.18816 10.8762C3.29184 10.8762 3.39552 10.865 3.4992 10.8424C3.60288 10.8424 3.7584 10.8198 3.96576 10.7746C4.43232 10.7068 4.87296 10.6278 5.28768 10.5374C5.54688 10.4922 5.78016 10.4471 5.98752 10.4019C6.19488 10.3793 6.40224 10.3454 6.6096 10.3002C6.71328 10.2551 6.81696 10.2212 6.92064 10.1986C7.07616 10.1986 7.23168 10.176 7.3872 10.1308C7.49088 10.1308 7.59456 10.1082 7.69824 10.0631C7.80192 10.0405 7.87968 10.0292 7.93152 10.0292C7.98336 10.0292 8.0352 10.0179 8.08704 9.99531C8.24256 9.97272 8.37216 9.95013 8.47584 9.92754C8.57952 9.90495 8.6832 9.88237 8.78688 9.85978C8.89056 9.8146 8.99424 9.79201 9.09792 9.79201C9.2016 9.79201 9.30528 9.78072 9.40896 9.75813C9.51264 9.73554 9.61632 9.71295 9.72 9.69037C9.82368 9.66778 9.92736 9.64519 10.031 9.6226C10.1347 9.60001 10.2384 9.57742 10.3421 9.55484C10.4458 9.53225 10.5494 9.49837 10.6531 9.45319C10.8086 9.4306 10.9382 9.40801 11.0419 9.38542C11.1456 9.36284 11.2493 9.34025 11.353 9.31766L11.8195 9.21601C11.9232 9.21601 12.1306 9.17084 12.4416 9.08048C12.8045 9.01272 13.0378 8.96754 13.1414 8.94495C13.2451 8.94495 13.297 8.93366 13.297 8.91107C13.3488 8.88848 13.4266 8.87719 13.5302 8.87719C13.6339 8.80942 13.8672 8.75295 14.2301 8.70778L15.6298 8.40284C15.889 8.35766 16.1741 8.28989 16.4851 8.19954C16.6406 8.15436 16.7702 8.10919 16.8739 8.06401C17.0294 8.04142 17.185 8.01884 17.3405 7.99625C17.5997 7.95107 17.807 7.90589 17.9626 7.86072C18.1181 7.83813 18.2995 7.80425 18.5069 7.75907C18.6106 7.73648 18.6883 7.71389 18.7402 7.69131C18.8438 7.66872 18.9475 7.64613 19.0512 7.62354C19.2586 7.57836 19.3882 7.55578 19.44 7.55578C19.5437 7.5106 19.6214 7.47672 19.6733 7.45413C19.777 7.45413 19.8806 7.44284 19.9843 7.42025C20.2954 7.32989 20.6064 7.26213 20.9174 7.21695C21.0211 7.19437 21.0989 7.17178 21.1507 7.14919C21.2026 7.1266 21.2803 7.10401 21.384 7.08142C21.5914 7.05884 21.7987 7.01366 22.0061 6.94589C22.5763 6.83295 23.1725 6.68613 23.7946 6.50542C23.8982 6.48284 23.976 6.47154 24.0278 6.47154C24.0797 6.47154 24.1574 6.46025 24.2611 6.43766C24.3648 6.39248 24.4166 6.36989 24.4166 6.36989C24.313 6.32472 24.2352 6.27954 24.1834 6.23437C24.0797 6.23437 24.0019 6.22307 23.9501 6.20048C23.9501 6.20048 23.9242 6.20048 23.8723 6.20048C23.8205 6.17789 23.639 6.12142 23.328 6.03107C23.0688 5.91813 22.68 5.80519 22.1616 5.69225C22.1098 5.66966 21.8765 5.60189 21.4618 5.48895C21.0989 5.3986 20.8656 5.34213 20.7619 5.31954C20.7101 5.31954 20.6323 5.29695 20.5286 5.25178C20.425 5.22919 20.3213 5.19531 20.2176 5.15013C20.1139 5.12754 20.0102 5.10495 19.9066 5.08237C19.8029 5.03719 19.7251 5.00331 19.6733 4.98072C19.6214 4.98072 19.5437 4.95813 19.44 4.91295H19.3622C19.1549 4.86778 18.9475 4.8226 18.7402 4.77742C18.5846 4.75484 18.4291 4.70966 18.2736 4.64189C18.1181 4.61931 17.9366 4.58542 17.7293 4.54025V4.40472H17.807C17.9107 4.47248 18.0922 4.52895 18.3514 4.57413C18.455 4.59672 18.5328 4.60801 18.5846 4.60801C18.6883 4.60801 18.792 4.61931 18.8957 4.64189C19.0512 4.64189 19.1549 4.64189 19.2067 4.64189C19.3104 4.66448 19.4141 4.67578 19.5178 4.67578L19.6733 4.74354C19.777 4.78872 19.8806 4.81131 19.9843 4.81131C20.088 4.83389 20.1917 4.86778 20.2954 4.91295C20.399 4.91295 20.5027 4.90166 20.6064 4.87907C20.5546 4.87907 20.4768 4.85648 20.3731 4.81131C20.2694 4.78872 20.1917 4.77742 20.1398 4.77742C20.088 4.77742 20.0102 4.76613 19.9066 4.74354C19.751 4.72095 19.6733 4.68707 19.6733 4.64189C19.5696 4.59672 19.4659 4.56284 19.3622 4.54025C19.2586 4.51766 19.129 4.48378 18.9734 4.4386C18.7142 4.39342 18.3773 4.30307 17.9626 4.16754C17.9107 4.14495 17.7811 4.11107 17.5738 4.06589C17.4701 4.06589 17.3923 4.0546 17.3405 4.03201C17.3405 4.03201 17.3146 4.03201 17.2627 4.03201L16.5629 3.82872C16.5629 3.82872 16.511 3.80613 16.4074 3.76095C16.3555 3.76095 16.3037 3.74966 16.2518 3.72707C16.2518 3.70448 16.2259 3.69319 16.1741 3.69319C15.863 3.6706 15.5779 3.61413 15.3187 3.52378C15.215 3.50119 15.0854 3.45601 14.9299 3.38825C14.8262 3.36566 14.7485 3.35437 14.6966 3.35437C14.6448 3.35437 14.567 3.34307 14.4634 3.32048C14.3597 3.29789 14.256 3.2866 14.1523 3.2866C14.1005 3.2866 14.0227 3.26401 13.919 3.21884C13.7635 3.17366 13.5821 3.12848 13.3747 3.08331C13.2192 3.03813 13.0637 2.99295 12.9082 2.94778C12.7526 2.9026 12.5712 2.86872 12.3638 2.84613C12.2083 2.82354 12.0528 2.78966 11.8973 2.74448C11.7936 2.69931 11.664 2.66542 11.5085 2.64284C11.353 2.64284 11.2234 2.63154 11.1197 2.60895C10.8086 2.5186 10.5754 2.47342 10.4198 2.47342C10.2643 2.45084 10.1088 2.41695 9.95328 2.37178C9.8496 2.34919 9.72 2.31531 9.56448 2.27013C9.51264 2.24754 9.48672 2.22495 9.48672 2.20237C9.48672 2.20237 9.4608 2.19107 9.40896 2.16848C9.35712 2.14589 9.30528 2.1346 9.25344 2.1346C9.14976 2.08942 9.04608 2.04425 8.9424 1.99907C8.83872 1.97648 8.73504 1.95389 8.63136 1.93131C8.52768 1.90872 8.424 1.88613 8.32032 1.86354C8.26848 1.84095 8.19072 1.81837 8.08704 1.79578C7.98336 1.77319 7.87968 1.76189 7.776 1.76189C7.72416 1.76189 7.6464 1.73931 7.54272 1.69413C7.43904 1.64895 7.2576 1.62637 6.9984 1.62637C6.89472 1.62637 6.84288 1.61507 6.84288 1.59248V1.49084C6.79104 1.46825 6.7392 1.45695 6.68736 1.45695C6.63552 1.45695 6.58368 1.44566 6.53184 1.42307C6.27264 1.35531 6.11712 1.31013 6.06528 1.28754C6.01344 1.26495 5.9616 1.25366 5.90976 1.25366C5.75424 1.23107 5.62464 1.21978 5.52096 1.21978C5.41728 1.21978 5.3136 1.19719 5.20992 1.15201C5.10624 1.12942 5.00256 1.10684 4.89888 1.08425C4.7952 1.08425 4.6656 1.06166 4.51008 1.01648C4.51008 0.993895 4.45824 0.960012 4.35456 0.914836C4.19904 0.869659 4.04352 0.824483 3.888 0.779306C3.78432 0.756718 3.65472 0.722836 3.4992 0.677659C3.60288 0.677659 3.70656 0.677659 3.81024 0.677659C3.96576 0.700248 4.12128 0.711542 4.2768 0.711542C4.32864 0.73413 4.43232 0.745424 4.58784 0.745424C4.69152 0.768012 4.74336 0.779306 4.74336 0.779306C4.7952 0.779306 4.87296 0.790601 4.97664 0.813189C5.08032 0.835777 5.26176 0.869659 5.52096 0.914836C5.832 0.960012 6.03936 0.982601 6.14304 0.982601C6.29856 1.00519 6.48 1.01648 6.68736 1.01648L8.08704 1.21978C8.24256 1.24237 8.37216 1.25366 8.47584 1.25366C8.63136 1.25366 8.78688 1.27625 8.9424 1.32142C9.09792 1.3666 9.25344 1.38919 9.40896 1.38919C9.56448 1.38919 9.72 1.40048 9.87552 1.42307C9.92736 1.44566 9.9792 1.45695 10.031 1.45695C10.0829 1.47954 10.1347 1.50213 10.1866 1.52472C10.3939 1.59248 10.6272 1.63766 10.8864 1.66025C10.9901 1.68284 11.0678 1.69413 11.1197 1.69413C11.2234 1.69413 11.327 1.70542 11.4307 1.72801C11.5344 1.77319 11.6122 1.79578 11.664 1.79578C11.7158 1.81837 11.8195 1.82966 11.975 1.82966C12.0787 1.82966 12.1824 1.84095 12.2861 1.86354C12.4416 1.88613 12.5712 1.90872 12.6749 1.93131C12.8822 1.97648 13.0118 1.99907 13.0637 1.99907C13.3747 2.08942 13.6339 2.1346 13.8413 2.1346C13.945 2.17978 14.0486 2.20237 14.1523 2.20237C14.256 2.20237 14.3597 2.21366 14.4634 2.23625C14.567 2.25884 14.6448 2.28142 14.6966 2.30401C14.8003 2.3266 14.904 2.34919 15.0077 2.37178C15.0595 2.39437 15.1114 2.40566 15.1632 2.40566C15.215 2.40566 15.2928 2.41695 15.3965 2.43954C15.6557 2.48472 15.9667 2.54119 16.3296 2.60895C16.7443 2.67672 17.0813 2.73319 17.3405 2.77837C17.5997 2.82354 17.807 2.86872 17.9626 2.91389C18.1181 2.95907 18.2995 3.00425 18.5069 3.04942C18.7142 3.0946 18.8698 3.11719 18.9734 3.11719C19.129 3.16237 19.3104 3.20754 19.5178 3.25272C19.6214 3.27531 19.6733 3.2866 19.6733 3.2866C19.8806 3.2866 20.0621 3.32048 20.2176 3.38825L20.2954 3.42213C20.6064 3.46731 20.8656 3.50119 21.073 3.52378C21.1766 3.56895 21.2803 3.60284 21.384 3.62542C21.4877 3.64801 21.5654 3.65931 21.6173 3.65931C21.6691 3.65931 21.7469 3.6706 21.8506 3.69319C21.9024 3.69319 22.0061 3.72707 22.1616 3.79484C22.1616 3.79484 22.2134 3.81742 22.3171 3.8626C22.4208 3.88519 22.4986 3.89648 22.5504 3.89648C22.6541 3.89648 22.7578 3.90778 22.8614 3.93037C23.1725 4.02072 23.4317 4.07719 23.639 4.09978C23.8982 4.19013 24.1834 4.2466 24.4944 4.26919C24.5981 4.29178 24.6758 4.31437 24.7277 4.33695C24.8314 4.35954 24.935 4.38213 25.0387 4.40472C25.1424 4.40472 25.1942 4.40472 25.1942 4.40472C25.2461 4.42731 25.2979 4.4386 25.3498 4.4386C25.5571 4.52895 25.7386 4.58542 25.8941 4.60801L25.9718 4.64189C26.1792 4.66448 26.3347 4.68707 26.4384 4.70966C26.5939 4.75484 26.7494 4.80001 26.905 4.84519C27.0086 4.89037 27.0864 4.91295 27.1382 4.91295C27.1901 4.93554 27.2678 4.96942 27.3715 5.0146C27.4752 5.03719 27.553 5.04848 27.6048 5.04848C27.6566 5.04848 27.7085 5.05978 27.7603 5.08237C27.864 5.10495 27.9677 5.12754 28.0714 5.15013C28.2269 5.19531 28.3306 5.22919 28.3824 5.25178C28.4861 5.27437 28.5379 5.29695 28.5379 5.31954C28.5898 5.34213 28.6675 5.36472 28.7712 5.38731C28.9786 5.43248 29.16 5.46637 29.3155 5.48895C29.5747 5.53413 29.9117 5.60189 30.3264 5.69225C30.4819 5.73742 30.5856 5.77131 30.6374 5.79389H30.7152C30.8189 5.81648 30.8707 5.82778 30.8707 5.82778C30.9226 5.82778 31.0003 5.83907 31.104 5.86166C31.2077 5.83907 31.415 5.80519 31.7261 5.76001C31.7779 5.73742 31.9075 5.72613 32.1149 5.72613H32.1926C32.5037 5.68095 32.8147 5.60189 33.1258 5.48895C33.2294 5.46637 33.3331 5.44378 33.4368 5.42119C33.5923 5.3986 33.7219 5.37601 33.8256 5.35342C33.9293 5.30825 34.0589 5.26307 34.2144 5.21789C34.3699 5.17272 34.4995 5.12754 34.6032 5.08237C34.7069 5.08237 34.7846 5.07107 34.8365 5.04848H34.992C35.1994 4.95813 35.3549 4.90166 35.4586 4.87907L36.1584 4.67578C36.2102 4.67578 36.2362 4.66448 36.2362 4.64189C36.2362 4.64189 36.2621 4.64189 36.3139 4.64189C36.4176 4.59672 36.5213 4.56284 36.625 4.54025C36.7286 4.51766 36.8323 4.48378 36.936 4.4386C37.0397 4.41601 37.1434 4.39342 37.247 4.37084C37.3507 4.34825 37.4544 4.31437 37.5581 4.26919C37.6618 4.2466 37.7136 4.23531 37.7136 4.23531C37.7654 4.23531 37.8432 4.22401 37.9469 4.20142C38.1542 4.15625 38.3616 4.09978 38.569 4.03201C38.7763 3.96425 39.0096 3.90778 39.2688 3.8626C39.4762 3.81742 39.6058 3.78354 39.6576 3.76095C39.7613 3.71578 39.8909 3.6706 40.0464 3.62542C40.2019 3.58025 40.3834 3.53507 40.5907 3.48989C40.6426 3.44472 40.6944 3.42213 40.7462 3.42213C40.8499 3.42213 40.9277 3.41084 40.9795 3.38825C41.135 3.38825 41.2646 3.36566 41.3683 3.32048C41.5757 3.27531 41.7053 3.24142 41.7571 3.21884L41.9904 3.11719C42.0941 3.11719 42.1978 3.0946 42.3014 3.04942C42.4051 3.00425 42.5347 2.95907 42.6902 2.91389C42.7939 2.89131 42.8717 2.86872 42.9235 2.84613C43.0272 2.84613 43.1309 2.82354 43.2346 2.77837C43.3901 2.73319 43.5197 2.69931 43.6234 2.67672C43.7789 2.65413 43.9603 2.62025 44.1677 2.57507C44.4787 2.48472 44.7379 2.41695 44.9453 2.37178C45.049 2.34919 45.1526 2.31531 45.2563 2.27013C45.36 2.24754 45.4637 2.21366 45.5674 2.16848C45.5674 2.16848 45.671 2.14589 45.8784 2.10072C46.1894 2.01037 46.4746 1.93131 46.7338 1.86354C46.8374 1.81837 47.0448 1.7506 47.3558 1.66025C47.5632 1.61507 47.6928 1.59248 47.7446 1.59248L47.9002 1.52472C47.952 1.47954 48.0038 1.44566 48.0557 1.42307C48.1075 1.42307 48.1594 1.41178 48.2112 1.38919L48.6778 1.28754L48.7555 1.25366C48.911 1.25366 49.0406 1.23107 49.1443 1.18589C49.2998 1.16331 49.4554 1.12942 49.6109 1.08425C49.6627 1.08425 49.7664 1.03907 49.9219 0.948718C50.0774 0.880953 50.1552 0.835777 50.1552 0.813189C50.4144 0.700248 50.7254 0.666365 51.0883 0.711542V0.880953C51.1402 0.903542 51.192 0.914836 51.2438 0.914836H51.4771C51.5808 0.914836 51.6326 0.937424 51.6326 0.982601C51.6326 1.00519 51.6845 1.03907 51.7882 1.08425C51.9437 1.21978 52.2029 1.25366 52.5658 1.18589C52.6694 1.18589 52.7213 1.1746 52.7213 1.15201C52.825 1.24237 52.8768 1.28754 52.8768 1.28754C52.8768 1.35531 52.9027 1.38919 52.9546 1.38919C53.0064 1.38919 53.0323 1.37789 53.0323 1.35531C53.0842 1.35531 53.1619 1.35531 53.2656 1.35531L53.8877 1.21978C53.9395 1.19719 54.0432 1.18589 54.1987 1.18589C54.0432 1.23107 53.9654 1.25366 53.9654 1.25366C53.8618 1.27625 53.7581 1.31013 53.6544 1.35531C53.5507 1.37789 53.4211 1.40048 53.2656 1.42307C53.1619 1.46825 53.0064 1.50213 52.799 1.52472C52.7472 1.56989 52.6954 1.60378 52.6435 1.62637C52.5917 1.64895 52.5398 1.68284 52.488 1.72801C52.3843 1.7506 52.3066 1.76189 52.2547 1.76189C52.2029 1.76189 52.151 1.77319 52.0992 1.79578C52.2029 1.79578 52.2547 1.79578 52.2547 1.79578C52.5658 1.7506 52.825 1.70542 53.0323 1.66025C53.0842 1.66025 53.136 1.64895 53.1878 1.62637C53.2915 1.62637 53.3693 1.63766 53.4211 1.66025C53.6285 1.68284 53.8099 1.71672 53.9654 1.76189C54.1728 1.80707 54.3802 1.85225 54.5875 1.89742C54.6394 1.89742 54.8208 1.90872 55.1318 1.93131C55.4429 1.95389 55.6243 1.98778 55.6762 2.03295C55.6762 2.05554 55.7021 2.06684 55.7539 2.06684C55.8058 2.08942 55.8576 2.12331 55.9094 2.16848C55.7539 2.19107 55.5725 2.22495 55.3651 2.27013C55.3133 2.31531 55.2614 2.33789 55.2096 2.33789C55.1578 2.33789 55.1318 2.36048 55.1318 2.40566C55.08 2.40566 55.0282 2.40566 54.9763 2.40566C54.9763 2.42825 54.9504 2.43954 54.8986 2.43954C54.8467 2.46213 54.7949 2.47342 54.743 2.47342C54.743 2.47342 54.7171 2.48472 54.6653 2.50731C54.6134 2.50731 54.5616 2.50731 54.5098 2.50731C54.5098 2.52989 54.4838 2.54119 54.432 2.54119H54.3542C54.2506 2.58637 54.1469 2.60895 54.0432 2.60895C53.9914 2.63154 53.9136 2.65413 53.8099 2.67672C53.7062 2.72189 53.6285 2.74448 53.5766 2.74448C53.3693 2.78966 53.2397 2.83484 53.1878 2.88001C53.0842 2.9026 52.9805 2.91389 52.8768 2.91389C52.825 2.91389 52.7472 2.92519 52.6435 2.94778C52.5917 2.99295 52.5139 3.01554 52.4102 3.01554C52.3584 3.03813 52.2806 3.06072 52.177 3.08331C52.0733 3.12848 51.9178 3.16237 51.7104 3.18495C51.5549 3.23013 51.4253 3.27531 51.3216 3.32048C51.1142 3.38825 50.881 3.43342 50.6218 3.45601C50.4662 3.50119 50.3107 3.53507 50.1552 3.55766C50.0515 3.60284 49.9478 3.64801 49.8442 3.69319C49.7405 3.69319 49.6886 3.71578 49.6886 3.76095C49.585 3.78354 49.4554 3.80613 49.2998 3.82872C49.1962 3.85131 49.0666 3.88519 48.911 3.93037C48.7037 3.97554 48.5741 3.99813 48.5222 3.99813C48.4186 4.04331 48.3149 4.06589 48.2112 4.06589C48.1075 4.08848 48.0038 4.12237 47.9002 4.16754C47.7965 4.19013 47.6669 4.21272 47.5114 4.23531C47.3558 4.28048 47.2262 4.31437 47.1226 4.33695C47.0189 4.38213 46.9152 4.40472 46.8115 4.40472C46.7078 4.42731 46.6042 4.46119 46.5005 4.50636L46.345 4.57413L45.8784 4.67578C45.671 4.72095 45.5414 4.74354 45.4896 4.74354L44.7898 4.94684C44.6861 4.96942 44.5824 4.98072 44.4787 4.98072C44.4269 5.00331 44.375 5.02589 44.3232 5.04848C44.1677 5.09366 44.0381 5.12754 43.9344 5.15013C43.8307 5.17272 43.727 5.2066 43.6234 5.25178C43.5197 5.29695 43.3901 5.33084 43.2346 5.35342C43.079 5.37601 42.9235 5.40989 42.768 5.45507C42.5606 5.50025 42.3792 5.54542 42.2237 5.5906C42.0682 5.63578 41.9126 5.68095 41.7571 5.72613C41.5498 5.77131 41.3683 5.81648 41.2128 5.86166C41.0573 5.90684 40.8758 5.95201 40.6685 5.99719C40.2538 6.08754 39.9427 6.1666 39.7354 6.23437C39.4243 6.32472 39.1651 6.39248 38.9578 6.43766C38.8541 6.48284 38.7504 6.50542 38.6467 6.50542C38.5949 6.52801 38.5171 6.5506 38.4134 6.57319C38.3616 6.57319 38.3357 6.57319 38.3357 6.57319C38.3357 6.59578 38.3098 6.60707 38.2579 6.60707C38.3098 6.60707 38.3357 6.62966 38.3357 6.67484C38.3875 6.62966 38.5171 6.58448 38.7245 6.53931C38.88 6.49413 39.0355 6.46025 39.191 6.43766C39.3466 6.43766 39.5021 6.41507 39.6576 6.36989C39.8131 6.32472 39.9427 6.29084 40.0464 6.26825C40.2019 6.26825 40.3574 6.24566 40.513 6.20048C40.6166 6.17789 40.6944 6.15531 40.7462 6.13272C40.8499 6.13272 40.9536 6.12142 41.0573 6.09884C41.161 6.07625 41.2387 6.05366 41.2906 6.03107C41.3942 6.00848 41.4979 5.98589 41.6016 5.96331C41.7053 5.91813 41.809 5.88425 41.9126 5.86166C42.0163 5.83907 42.12 5.81648 42.2237 5.79389C42.431 5.74872 42.5866 5.72613 42.6902 5.72613C42.8976 5.65837 43.2086 5.57931 43.6234 5.48895C43.8826 5.46637 44.2195 5.38731 44.6342 5.25178C44.7379 5.25178 44.8157 5.24048 44.8675 5.21789C44.9712 5.17272 45.1267 5.12754 45.3341 5.08237C45.4378 5.03719 45.5674 5.00331 45.7229 4.98072C45.9302 4.98072 46.0858 4.95813 46.1894 4.91295C46.2931 4.86778 46.3968 4.83389 46.5005 4.81131C46.656 4.78872 46.7856 4.75484 46.8893 4.70966C46.993 4.66448 47.2262 4.61931 47.5891 4.57413C47.6928 4.55154 47.7706 4.51766 47.8224 4.47248C47.9261 4.44989 48.0298 4.42731 48.1334 4.40472C48.3408 4.35954 48.4963 4.31437 48.6 4.26919C48.7555 4.22401 48.911 4.17884 49.0666 4.13366C49.2739 4.11107 49.4554 4.07719 49.6109 4.03201C49.7146 4.03201 49.7664 4.02072 49.7664 3.99813C49.8701 3.97554 49.9478 3.96425 49.9997 3.96425C50.0515 3.96425 50.1293 3.94166 50.233 3.89648C50.2848 3.85131 50.4922 3.80613 50.855 3.76095C50.9069 3.71578 51.0365 3.6706 51.2438 3.62542C51.3994 3.60284 51.6326 3.54637 51.9437 3.45601C51.9955 3.45601 52.0992 3.42213 52.2547 3.35437C52.5658 3.30919 52.825 3.26401 53.0323 3.21884C53.0842 3.21884 53.136 3.20754 53.1878 3.18495C53.2397 3.16237 53.2915 3.15107 53.3434 3.15107L53.8099 3.04942C53.8618 3.00425 53.9395 2.95907 54.0432 2.91389C54.3542 2.86872 54.5875 2.82354 54.743 2.77837C54.9504 2.73319 55.1059 2.68801 55.2096 2.64284C55.3133 2.62025 55.417 2.59766 55.5206 2.57507C55.6243 2.57507 55.7539 2.55248 55.9094 2.50731H55.9872C56.1427 2.41695 56.2982 2.38307 56.4538 2.40566C56.6093 2.42825 56.7907 2.46213 56.9981 2.50731C57.1018 2.50731 57.1018 2.52989 56.9981 2.57507C56.9462 2.66542 56.8426 2.72189 56.687 2.74448C56.7389 2.74448 56.7648 2.73319 56.7648 2.7106C56.8166 2.7106 56.8685 2.7106 56.9203 2.7106C56.8685 2.73319 56.8426 2.74448 56.8426 2.74448C56.8426 2.76707 56.8166 2.78966 56.7648 2.81225C56.6093 2.83484 56.4278 2.86872 56.2205 2.91389C56.1168 2.91389 56.0131 2.91389 55.9094 2.91389C55.8576 2.93648 55.7539 2.95907 55.5984 2.98166C55.4947 3.02684 55.3651 3.06072 55.2096 3.08331C55.0541 3.10589 54.8986 3.13978 54.743 3.18495C54.5357 3.23013 54.3283 3.26401 54.121 3.2866C53.9136 3.30919 53.7062 3.34307 53.4989 3.38825C53.2397 3.43342 52.9805 3.4786 52.7213 3.52378C52.4621 3.59154 52.2029 3.64801 51.9437 3.69319C51.7882 3.73837 51.6326 3.78354 51.4771 3.82872C51.3216 3.87389 51.1402 3.91907 50.9328 3.96425C50.8291 3.98684 50.7254 3.99813 50.6218 3.99813C50.5181 4.02072 50.4144 4.04331 50.3107 4.06589C50.207 4.11107 50.0515 4.15625 49.8442 4.20142C49.7405 4.2466 49.6368 4.26919 49.5331 4.26919C49.4294 4.29178 49.3258 4.31437 49.2221 4.33695C49.0666 4.38213 48.911 4.41601 48.7555 4.4386C48.6518 4.46119 48.5482 4.49507 48.4445 4.54025C48.3408 4.56284 48.2112 4.58542 48.0557 4.60801C47.952 4.6306 47.8483 4.65319 47.7446 4.67578C47.641 4.72095 47.4854 4.75484 47.2781 4.77742C47.1226 4.80001 46.993 4.83389 46.8893 4.87907C46.6301 4.92425 46.3968 4.96942 46.1894 5.0146C45.9821 5.08236 45.7488 5.16142 45.4896 5.25178C45.3341 5.27437 45.1008 5.33084 44.7898 5.42119C44.5824 5.46637 44.4528 5.50025 44.401 5.52284C44.1418 5.56801 43.8566 5.63578 43.5456 5.72613C43.4938 5.72613 43.3901 5.73742 43.2346 5.76001C43.079 5.80519 42.9754 5.83907 42.9235 5.86166C42.8198 5.88425 42.7162 5.90684 42.6125 5.92942C42.5606 5.9746 42.4829 6.00848 42.3792 6.03107C42.2755 6.05366 42.1718 6.07625 42.0682 6.09884C42.0163 6.12142 41.9386 6.14401 41.8349 6.1666C41.472 6.27954 41.0054 6.40378 40.4352 6.53931C40.3315 6.56189 40.2278 6.58448 40.1242 6.60707C40.0205 6.65225 39.9168 6.68613 39.8131 6.70872C39.7094 6.75389 39.6058 6.78778 39.5021 6.81037C39.3984 6.83295 39.2947 6.85554 39.191 6.87813C38.9837 6.92331 38.8022 6.95719 38.6467 6.97978C38.4912 7.02495 38.3357 7.07013 38.1802 7.11531C37.9728 7.20566 37.7914 7.26213 37.6358 7.28472C37.584 7.30731 37.5322 7.3186 37.4803 7.3186C37.4285 7.3186 37.3766 7.34119 37.3248 7.38637C37.2211 7.40895 37.1434 7.42025 37.0915 7.42025C37.0915 7.44284 37.0397 7.46542 36.936 7.48801C36.8842 7.5106 36.8323 7.52189 36.7805 7.52189C36.7805 7.52189 36.7546 7.53319 36.7027 7.55578C36.6509 7.55578 36.5731 7.57836 36.4694 7.62354V7.69131C36.3658 7.73648 36.3917 7.78166 36.5472 7.82684C36.599 7.84942 36.6509 7.87201 36.7027 7.8946C36.7546 7.91719 36.8323 7.95107 36.936 7.99625L37.247 8.13178C37.3507 8.17695 37.4803 8.21084 37.6358 8.23342C37.7914 8.25601 37.921 8.31248 38.0246 8.40284C38.1802 8.44801 38.3616 8.51578 38.569 8.60613C38.9318 8.67389 39.217 8.77554 39.4243 8.91107C39.528 8.93366 39.6576 8.97884 39.8131 9.0466C39.865 9.0466 39.8909 9.0466 39.8909 9.0466C39.8909 9.06919 39.9168 9.08048 39.9686 9.08048C40.0205 9.12566 40.0464 9.14825 40.0464 9.14825L40.3574 9.28378C40.4611 9.32895 40.6166 9.37413 40.824 9.41931L41.3683 9.65648C41.472 9.67907 41.5238 9.70166 41.5238 9.72425C41.5757 9.74684 41.6534 9.76942 41.7571 9.79201C41.8608 9.83719 41.9386 9.87107 41.9904 9.89366C42.0941 9.93884 42.1978 9.98401 42.3014 10.0292C42.457 10.097 42.5347 10.1308 42.5347 10.1308C42.6384 10.176 42.7421 10.2212 42.8458 10.2664C43.0013 10.3341 43.1309 10.3906 43.2346 10.4358L43.3123 10.4697C43.6234 10.6052 43.8566 10.6955 44.0122 10.7407C44.1158 10.7859 44.1936 10.8198 44.2454 10.8424C44.2973 10.865 44.375 10.8988 44.4787 10.944C44.5306 10.9892 44.6083 11.0344 44.712 11.0795L45.4118 11.3845C45.4637 11.4071 45.4896 11.4297 45.4896 11.4522C45.5414 11.4748 45.6192 11.4974 45.7229 11.52C45.8266 11.5426 45.9302 11.5765 46.0339 11.6217L46.1894 11.6894V11.7572L46.967 12.096C47.0707 12.1412 47.1744 12.1864 47.2781 12.2315C47.3818 12.2993 47.4854 12.3558 47.5891 12.401C47.641 12.4235 47.6669 12.4348 47.6669 12.4348C47.6669 12.4348 47.6669 12.4461 47.6669 12.4687L47.9779 12.6042C48.0298 12.6268 48.0557 12.6381 48.0557 12.6381C48.1075 12.6381 48.1594 12.6494 48.2112 12.672C48.4186 12.8075 48.6259 12.9205 48.8333 13.0108C48.937 13.056 49.0406 13.1012 49.1443 13.1464C49.248 13.1915 49.3517 13.2367 49.4554 13.2819C49.559 13.3271 49.6627 13.3948 49.7664 13.4852C49.8182 13.553 49.9219 13.5981 50.0774 13.6207C50.1811 13.6433 50.233 13.6659 50.233 13.6885C50.2848 13.7111 50.3366 13.7337 50.3885 13.7562C50.4922 13.8014 50.5699 13.8466 50.6218 13.8918C50.7254 13.937 50.855 13.9821 51.0106 14.0273C51.0624 14.0725 51.2438 14.1628 51.5549 14.2984C51.6586 14.3435 51.7622 14.3774 51.8659 14.4C51.9696 14.4452 52.0733 14.4904 52.177 14.5355C52.177 14.5581 52.2029 14.592 52.2547 14.6372C52.4102 14.6824 52.5398 14.7275 52.6435 14.7727C52.799 14.8179 52.9546 14.8631 53.1101 14.9082C53.1619 14.9308 53.1878 14.9421 53.1878 14.9421C53.2397 14.9421 53.2915 14.9647 53.3434 15.0099V15.0777C53.2915 15.1002 53.2138 15.1115 53.1101 15.1115C52.9546 15.0664 52.7472 15.0099 52.488 14.9421C52.2806 14.8744 52.0733 14.8179 51.8659 14.7727L51.7882 14.8066C51.84 14.8292 51.9178 14.8857 52.0214 14.976C52.1251 15.0212 52.2029 15.0551 52.2547 15.0777C52.3584 15.1228 52.4621 15.168 52.5658 15.2132C52.825 15.3261 52.9805 15.4278 53.0323 15.5181C53.2915 15.6311 53.447 15.7214 53.4989 15.7892C53.4989 15.8118 53.5766 15.8682 53.7322 15.9586C53.6803 16.0264 53.6803 16.0715 53.7322 16.0941C53.784 16.1167 53.8618 16.1506 53.9654 16.1958C54.0173 16.2184 54.0432 16.2635 54.0432 16.3313C54.1469 16.3539 54.1987 16.3878 54.1987 16.433L54.432 16.6362C54.432 16.7266 54.3024 16.7718 54.0432 16.7718C53.9914 16.7944 53.9136 16.7831 53.8099 16.7379C53.7062 16.6927 53.5507 16.6475 53.3434 16.6024C53.2397 16.5346 53.0842 16.4894 52.8768 16.4668C52.7213 16.4668 52.5398 16.4442 52.3325 16.3991C52.2288 16.3539 52.177 16.3313 52.177 16.3313C52.1251 16.3087 52.0214 16.2974 51.8659 16.2974C51.7622 16.32 51.6586 16.3087 51.5549 16.2635C51.503 16.241 51.4253 16.2297 51.3216 16.2297L51.2438 16.1958C51.2438 16.1054 51.1402 16.0377 50.9328 15.9925C50.6218 15.9473 50.3626 15.8682 50.1552 15.7553C50.1034 15.7101 50.0774 15.6875 50.0774 15.6875C49.9738 15.6424 49.8442 15.5859 49.6886 15.5181C49.5331 15.473 49.4035 15.4278 49.2998 15.3826C49.248 15.3374 49.0666 15.2697 48.7555 15.1793C48.7555 15.1567 48.6778 15.1115 48.5222 15.0438C48.4704 15.0212 48.4186 14.9986 48.3667 14.976C48.3149 14.976 48.263 14.9534 48.2112 14.9082C48.1075 14.8631 48.0038 14.8066 47.9002 14.7388C47.8483 14.6937 47.7706 14.6372 47.6669 14.5694C47.5632 14.5242 47.4336 14.4791 47.2781 14.4339C47.1744 14.4113 47.0707 14.3774 46.967 14.3322C46.967 14.2645 46.8634 14.1854 46.656 14.0951L46.4227 13.9934C46.319 13.9482 46.2672 13.9031 46.2672 13.8579L46.0339 13.7562C45.9821 13.7111 45.9043 13.6772 45.8006 13.6546C45.7488 13.632 45.697 13.6094 45.6451 13.5868C45.5414 13.5417 45.4637 13.5078 45.4118 13.4852C45.36 13.4852 45.3082 13.4739 45.2563 13.4513C45.1526 13.4061 45.0749 13.3722 45.023 13.3497C44.9712 13.3497 44.9194 13.3271 44.8675 13.2819C44.7638 13.2367 44.6602 13.1915 44.5565 13.1464C44.4528 13.1012 44.3491 13.056 44.2454 13.0108C44.1418 12.9657 44.064 12.9431 44.0122 12.9431C43.9085 12.8979 43.8048 12.8527 43.7011 12.8075C43.6493 12.785 43.5715 12.7511 43.4678 12.7059C43.3642 12.7059 43.3123 12.6833 43.3123 12.6381C43.105 12.5478 42.9494 12.4574 42.8458 12.3671C42.7421 12.3445 42.6384 12.3106 42.5347 12.2654C42.3274 12.2202 42.0941 12.1412 41.8349 12.0282C41.7312 11.9605 41.6016 11.904 41.4461 11.8588C41.2906 11.8137 41.161 11.7572 41.0573 11.6894C40.9018 11.6217 40.7722 11.5765 40.6685 11.5539L40.513 11.4861C40.4093 11.441 40.3574 11.4184 40.3574 11.4184L39.8909 11.2151C39.7872 11.1925 39.6317 11.136 39.4243 11.0457C39.3725 11.0231 39.3206 10.9892 39.2688 10.944C39.217 10.9214 39.1392 10.8988 39.0355 10.8762C38.9318 10.8311 38.8541 10.8085 38.8022 10.8085C38.7504 10.7407 38.6467 10.6955 38.4912 10.673C38.4394 10.6278 38.3875 10.5939 38.3357 10.5713C38.2838 10.5713 38.232 10.5487 38.1802 10.5035C38.0765 10.5035 37.9728 10.481 37.8691 10.4358C37.8173 10.3906 37.7395 10.3567 37.6358 10.3341C37.5322 10.3341 37.4285 10.3115 37.3248 10.2664C37.273 10.2212 37.247 10.176 37.247 10.1308C37.1952 10.0857 37.1434 10.0518 37.0915 10.0292C37.0397 10.0292 36.9878 10.0179 36.936 9.99531C36.8323 9.95013 36.7546 9.92754 36.7027 9.92754C36.6509 9.92754 36.5731 9.90495 36.4694 9.85978C36.4176 9.83719 36.3658 9.8146 36.3139 9.79201C36.2621 9.79201 36.2102 9.76942 36.1584 9.72425C36.1066 9.70166 36.0547 9.69037 36.0029 9.69037C36.0029 9.69037 35.977 9.67907 35.9251 9.65648H35.6918V9.69037C36.0547 9.8259 36.288 9.91625 36.3917 9.96142C36.4435 9.98401 36.4694 10.0179 36.4694 10.0631C36.4176 10.0631 36.3658 10.0518 36.3139 10.0292C36.2102 10.0066 36.0806 9.98401 35.9251 9.96142C35.8214 9.93884 35.6918 9.90495 35.5363 9.85978C35.4845 9.83719 35.4326 9.82589 35.3808 9.82589C35.329 9.82589 35.2512 9.8146 35.1475 9.79201C34.992 9.79201 34.9142 9.76942 34.9142 9.72425C34.8106 9.72425 34.8365 9.69036 34.992 9.6226C34.8883 9.60001 34.7846 9.56613 34.681 9.52095C34.5773 9.49836 34.4736 9.46448 34.3699 9.41931L33.9034 9.31766C33.8515 9.29507 33.7997 9.28378 33.7478 9.28378C33.7478 9.28378 33.7219 9.27248 33.6701 9.24989L33.359 9.11437C33.2554 9.06919 33.1776 9.03531 33.1258 9.01272C33.0739 9.01272 32.9962 8.99013 32.8925 8.94495C32.7888 8.89978 32.5555 8.79813 32.1926 8.64001C31.8816 8.50448 31.6483 8.43672 31.4928 8.43672C31.3891 8.43672 31.2854 8.45931 31.1818 8.50448C31.0781 8.50448 30.9744 8.52707 30.8707 8.57225C30.7152 8.59484 30.5856 8.61742 30.4819 8.64001C30.4301 8.6626 30.3523 8.68519 30.2486 8.70778C29.9376 8.75295 29.7302 8.79813 29.6266 8.84331C29.4192 8.86589 29.2118 8.91107 29.0045 8.97884C28.9008 9.00142 28.7971 9.01272 28.6934 9.01272C28.5898 9.03531 28.4861 9.05789 28.3824 9.08048C28.2787 9.10307 28.175 9.11437 28.0714 9.11437C28.0195 9.13695 27.9418 9.15954 27.8381 9.18213C27.7862 9.20472 27.7344 9.21601 27.6826 9.21601C27.6826 9.21601 27.5789 9.2386 27.3715 9.28378C27.3197 9.28378 27.2419 9.30637 27.1382 9.35154C26.9309 9.39672 26.7494 9.4306 26.5939 9.45319C26.4384 9.47578 26.2829 9.49836 26.1274 9.52095C26.0755 9.54354 25.9459 9.57742 25.7386 9.6226C25.6349 9.64519 25.5053 9.66778 25.3498 9.69037C25.2461 9.71295 25.1165 9.73554 24.961 9.75813C24.8054 9.80331 24.624 9.83719 24.4166 9.85978C24.2611 9.90495 24.0538 9.95013 23.7946 9.99531C23.5354 10.0405 23.2762 10.097 23.017 10.1647C22.8614 10.2099 22.68 10.2438 22.4726 10.2664C22.2653 10.3115 22.0579 10.3567 21.8506 10.4019C21.4877 10.4471 21.2544 10.5035 21.1507 10.5713C20.9434 10.6165 20.7619 10.6391 20.6064 10.6391C20.4509 10.6617 20.2954 10.6955 20.1398 10.7407C20.0362 10.7859 19.9325 10.8085 19.8288 10.8085C19.777 10.8085 19.6992 10.8311 19.5955 10.8762C19.5437 10.9214 19.4659 10.944 19.3622 10.944C19.2586 10.944 19.1549 10.9666 19.0512 11.0118C18.8957 11.057 18.7402 11.0795 18.5846 11.0795C18.4291 11.1021 18.2995 11.136 18.1958 11.1812C17.8848 11.2264 17.6256 11.2602 17.4182 11.2828C17.3664 11.2828 17.2886 11.3054 17.185 11.3506C16.9776 11.4184 16.7702 11.4635 16.5629 11.4861C16.3555 11.5313 16.1741 11.5652 16.0186 11.5878C15.863 11.6104 15.6557 11.6442 15.3965 11.6894C15.3446 11.6894 15.2928 11.7007 15.241 11.7233C15.241 11.7459 15.215 11.7572 15.1632 11.7572C15.1632 11.7798 15.0336 11.8137 14.7744 11.8588C14.6189 11.904 14.4374 11.9379 14.2301 11.9605C14.0227 11.9831 13.8413 12.017 13.6858 12.0621C13.4784 12.1073 13.3747 12.1299 13.3747 12.1299C13.3229 12.1525 13.1933 12.1638 12.9859 12.1638C12.7786 12.209 12.649 12.2428 12.5971 12.2654C12.5971 12.288 12.5712 12.2993 12.5194 12.2993C12.5194 12.2993 12.4934 12.2993 12.4416 12.2993C12.1306 12.3445 11.9232 12.3784 11.8195 12.401C11.664 12.4913 11.4566 12.5478 11.1974 12.5704C10.8864 12.6607 10.6013 12.7059 10.3421 12.7059L10.2643 12.7398C10.1606 12.7624 9.95328 12.7962 9.64224 12.8414C9.53856 12.8866 9.40896 12.9092 9.25344 12.9092C9.09792 12.9092 8.96832 12.9318 8.86464 12.977C8.76096 12.977 8.65728 12.9995 8.5536 13.0447C8.44992 13.0673 8.34624 13.0786 8.24256 13.0786C8.13888 13.1012 8.00928 13.1238 7.85376 13.1464C7.75008 13.2141 7.62048 13.248 7.46496 13.248C7.36128 13.2706 7.23168 13.2932 7.07616 13.3158C6.97248 13.3158 6.8688 13.3384 6.76512 13.3835C6.76512 13.4061 6.71328 13.4174 6.6096 13.4174H6.2208C6.11712 13.44 5.93568 13.4513 5.67648 13.4513C5.41728 13.4513 5.08032 13.4852 4.6656 13.553C4.56192 13.5755 4.45824 13.5868 4.35456 13.5868C4.25088 13.5868 4.1472 13.5981 4.04352 13.6207H3.888C3.99168 13.5981 4.09536 13.5642 4.19904 13.5191C4.30272 13.4965 4.4064 13.4626 4.51008 13.4174C4.45824 13.3948 4.4064 13.3835 4.35456 13.3835C4.35456 13.3835 4.32864 13.3722 4.2768 13.3497C3.96576 13.3497 3.7584 13.3384 3.65472 13.3158C3.44736 13.248 3.21408 13.2141 2.95488 13.2141C2.8512 13.169 2.77344 13.1577 2.7216 13.1802C2.66976 13.2028 2.61792 13.2141 2.56608 13.2141C2.35872 13.2141 2.22912 13.2254 2.17728 13.248C1.96992 13.248 1.84032 13.2593 1.78848 13.2819C1.78848 13.3497 1.73664 13.361 1.63296 13.3158C1.52928 13.3158 1.4256 13.3271 1.32192 13.3497C1.21824 13.3722 1.11456 13.3948 1.01088 13.4174H0.7776V13.3835C0.88128 13.361 0.98496 13.3384 1.08864 13.3158C1.19232 13.3158 1.296 13.3045 1.39968 13.2819C1.45152 13.2593 1.50336 13.248 1.5552 13.248C1.60704 13.248 1.65888 13.2367 1.71072 13.2141C1.8144 13.1238 1.86624 13.0786 1.86624 13.0786C1.86624 13.0334 1.89216 13.0108 1.944 13.0108C2.04768 12.8979 1.96992 12.8188 1.71072 12.7737C1.5552 12.7511 1.39968 12.7285 1.24416 12.7059C1.08864 12.6833 0.93312 12.6607 0.7776 12.6381C0.67392 12.6155 0.59616 12.593 0.54432 12.5704C0.54432 12.5478 0.49248 12.5252 0.3888 12.5026C0.33696 12.5026 0.28512 12.4913 0.23328 12.4687C0.23328 12.4687 0.18144 12.4687 0.07776 12.4687C0.23328 12.401 0.36288 12.3558 0.46656 12.3332C0.62208 12.288 0.67392 12.2428 0.62208 12.1977C0.57024 12.1751 0.54432 12.1525 0.54432 12.1299C0.54432 12.1073 0.49248 12.0847 0.3888 12.0621C0.33696 12.0621 0.31104 12.0395 0.31104 11.9944C0.41472 11.9492 0.5184 11.904 0.62208 11.8588C0.7776 11.8362 0.9072 11.8024 1.01088 11.7572C1.01088 11.7346 1.0368 11.712 1.08864 11.6894C1.296 11.6894 1.47744 11.6555 1.63296 11.5878C1.6848 11.5652 1.76256 11.5539 1.86624 11.5539C2.0736 11.5087 2.25504 11.4748 2.41056 11.4522C2.61792 11.4522 2.82528 11.4297 3.03264 11.3845C3.13632 11.3619 3.24 11.3393 3.34368 11.3167C3.44736 11.2941 3.55104 11.2715 3.65472 11.249C3.7584 11.2264 3.96576 11.1925 4.2768 11.1473C4.48416 11.1021 4.74336 11.0457 5.0544 10.9779C5.41728 10.9327 5.7024 10.8875 5.90976 10.8424L7.07616 10.6391C7.17984 10.6165 7.28352 10.5939 7.3872 10.5713C7.49088 10.5713 7.59456 10.56 7.69824 10.5374L8.1648 10.4358H8.32032L8.39808 10.4019C8.44992 10.3567 8.47584 10.3341 8.47584 10.3341C8.52768 10.3567 8.60544 10.3567 8.70912 10.3341C8.8128 10.3115 8.9424 10.2777 9.09792 10.2325C9.25344 10.2099 9.38304 10.1873 9.48672 10.1647C9.5904 10.1421 9.64224 10.1195 9.64224 10.097C9.69408 10.097 9.77184 10.0857 9.87552 10.0631C9.9792 10.0405 10.0829 10.0179 10.1866 9.99531C10.2902 9.97272 10.3939 9.95013 10.4976 9.92754C10.6013 9.90495 10.705 9.88237 10.8086 9.85978C10.9123 9.85978 11.016 9.84848 11.1197 9.82589C11.2752 9.80331 11.5085 9.74684 11.8195 9.65648C11.8714 9.65648 11.8973 9.64519 11.8973 9.6226C11.9491 9.6226 12.0269 9.6226 12.1306 9.6226C12.2342 9.57742 12.3638 9.54354 12.5194 9.52095C12.6749 9.49836 12.8304 9.46448 12.9859 9.41931C13.0378 9.41931 13.1155 9.39672 13.2192 9.35154C13.4266 9.30637 13.608 9.26119 13.7635 9.21601C13.9709 9.19342 14.2042 9.15954 14.4634 9.11437C14.567 9.09178 14.6448 9.06919 14.6966 9.0466C14.8003 9.02401 14.904 9.00142 15.0077 8.97884C15.1114 8.95625 15.215 8.93366 15.3187 8.91107C15.4224 8.88848 15.5261 8.86589 15.6298 8.84331C15.8371 8.77554 16.1482 8.69648 16.5629 8.60613C16.7184 8.58354 16.9517 8.52707 17.2627 8.43672C17.4701 8.41413 17.6256 8.39154 17.7293 8.36895C17.8848 8.34637 18.0403 8.32378 18.1958 8.30119C18.5069 8.21084 18.7402 8.13178 18.8957 8.06401C19.4141 7.97366 19.777 7.8946 19.9843 7.82684L22.0838 7.42025C22.1875 7.37507 22.3171 7.32989 22.4726 7.28472C22.6282 7.26213 22.7578 7.22825 22.8614 7.18307L23.328 7.08142C23.4835 7.03625 23.6131 7.00237 23.7168 6.97978C23.8723 6.95719 24.0538 6.92331 24.2611 6.87813C24.5203 6.85554 24.7536 6.78778 24.961 6.67484C24.8573 6.58448 24.8054 6.5506 24.8054 6.57319C24.7018 6.52801 24.5462 6.53931 24.3389 6.60707H24.2611C23.9501 6.67484 23.7427 6.7426 23.639 6.81037C23.3798 6.83295 23.1466 6.86684 22.9392 6.91201C22.7837 6.97978 22.5763 7.03625 22.3171 7.08142C22.1098 7.10401 21.9283 7.1266 21.7728 7.14919C21.6691 7.19437 21.5395 7.23954 21.384 7.28472C21.2285 7.35248 20.9952 7.40895 20.6842 7.45413L19.751 7.65742C19.5955 7.65742 19.4659 7.69131 19.3622 7.75907C19.1549 7.80425 18.9734 7.83813 18.8179 7.86072C18.6624 7.88331 18.481 7.91719 18.2736 7.96237L17.807 8.06401C17.6515 8.10919 17.3664 8.17695 16.9517 8.26731C16.6925 8.33507 16.4074 8.40284 16.0963 8.4706C15.8371 8.53837 15.5261 8.59484 15.1632 8.64001C14.904 8.68519 14.6707 8.74166 14.4634 8.80942C14.256 8.87719 14.0227 8.93366 13.7635 8.97884C13.3488 9.06919 13.0637 9.13695 12.9082 9.18213C12.649 9.22731 12.4157 9.27248 12.2083 9.31766C12.001 9.36284 11.7936 9.40801 11.5862 9.45319C11.327 9.49837 11.0938 9.54354 10.8864 9.58872C10.679 9.65648 10.4458 9.71295 10.1866 9.75813C9.9792 9.80331 9.77184 9.83719 9.56448 9.85978C9.35712 9.90495 9.12384 9.95013 8.86464 9.99531C8.44992 10.0857 8.11296 10.1534 7.85376 10.1986C7.69824 10.2664 7.54272 10.3002 7.3872 10.3002L6.92064 10.4019C6.8688 10.4245 6.81696 10.4358 6.76512 10.4358C6.71328 10.4358 6.66144 10.4471 6.6096 10.4697C6.45408 10.5148 6.2208 10.56 5.90976 10.6052C5.7024 10.6278 5.54688 10.6504 5.4432 10.673C5.33952 10.6955 5.20992 10.7181 5.0544 10.7407C4.74336 10.8085 4.35456 10.8762 3.888 10.944C3.68064 10.9892 3.4992 11.0231 3.34368 11.0457C3.18816 11.0908 3.03264 11.136 2.87712 11.1812C2.77344 11.1812 2.66976 11.1812 2.56608 11.1812C2.4624 11.2038 2.35872 11.2151 2.25504 11.2151C2.2032 11.2377 2.12544 11.2264 2.02176 11.1812V11.1473ZM34.681 9.21601C34.681 9.17084 34.6032 9.14825 34.4477 9.14825C34.5514 9.19342 34.6291 9.21601 34.681 9.21601ZM22.3949 5.38731C22.343 5.34213 22.3171 5.31954 22.3171 5.31954C22.2653 5.29695 22.1875 5.28566 22.0838 5.28566C22.1357 5.35342 22.2394 5.38731 22.3949 5.38731ZM24.8832 6.06495C24.8832 6.15531 24.9869 6.20048 25.1942 6.20048C25.2461 6.17789 25.272 6.1666 25.272 6.1666V6.13272C25.1683 6.11013 25.0906 6.09884 25.0387 6.09884C25.0387 6.09884 24.9869 6.08754 24.8832 6.06495ZM35.3808 9.48707C35.1734 9.35154 34.9661 9.27248 34.7587 9.24989C34.9661 9.34025 35.0957 9.40801 35.1475 9.45319C35.2512 9.45319 35.329 9.46448 35.3808 9.48707ZM6.45408 1.72801C6.29856 1.68284 6.14304 1.66025 5.98752 1.66025C5.88384 1.66025 5.75424 1.64895 5.59872 1.62637C5.4432 1.5586 5.28768 1.50213 5.13216 1.45695C4.97664 1.43437 4.84704 1.40048 4.74336 1.35531V1.32142C4.84704 1.34401 4.97664 1.35531 5.13216 1.35531C5.28768 1.40048 5.4432 1.43437 5.59872 1.45695C5.75424 1.50213 5.93568 1.54731 6.14304 1.59248C6.19488 1.59248 6.24672 1.60378 6.29856 1.62637C6.3504 1.62637 6.42816 1.64895 6.53184 1.69413C6.58368 1.69413 6.6096 1.69413 6.6096 1.69413C6.66144 1.71672 6.71328 1.72801 6.76512 1.72801C6.81696 1.7506 6.8688 1.76189 6.92064 1.76189C6.97248 1.76189 7.05024 1.78448 7.15392 1.82966C7.46496 1.87484 7.67232 1.92001 7.776 1.96519C7.87968 1.98778 7.93152 1.99907 7.93152 1.99907C7.98336 1.99907 8.06112 2.01037 8.1648 2.03295C8.26848 2.07813 8.34624 2.10072 8.39808 2.10072C8.24256 2.12331 8.08704 2.11201 7.93152 2.06684C7.776 2.04425 7.59456 2.04425 7.3872 2.06684C7.49088 2.11201 7.56864 2.14589 7.62048 2.16848C7.67232 2.19107 7.75008 2.21366 7.85376 2.23625C7.75008 2.30401 7.6464 2.31531 7.54272 2.27013C7.17984 2.24754 6.89472 2.20237 6.68736 2.1346C6.58368 2.08942 6.45408 2.05554 6.29856 2.03295C6.14304 2.03295 6.01344 2.02166 5.90976 1.99907H5.75424C5.75424 1.97648 5.75424 1.96519 5.75424 1.96519C5.75424 1.96519 5.7024 1.9426 5.59872 1.89742C5.85792 1.89742 6.03936 1.87484 6.14304 1.82966C6.19488 1.82966 6.2208 1.81837 6.2208 1.79578C6.27264 1.77319 6.3504 1.7506 6.45408 1.72801ZM1.39968 1.28754C1.50336 1.28754 1.5552 1.27625 1.5552 1.25366C1.60704 1.25366 1.65888 1.25366 1.71072 1.25366C1.76256 1.27625 1.78848 1.28754 1.78848 1.28754C1.84032 1.28754 1.89216 1.29884 1.944 1.32142C2.2032 1.41178 2.2032 1.51342 1.944 1.62637C1.944 1.64895 1.91808 1.66025 1.86624 1.66025C1.86624 1.66025 1.86624 1.67154 1.86624 1.69413C1.8144 1.67154 1.73664 1.66025 1.63296 1.66025C1.4256 1.63766 1.32192 1.5586 1.32192 1.42307C1.32192 1.40048 1.32192 1.37789 1.32192 1.35531C1.37376 1.33272 1.39968 1.31013 1.39968 1.28754ZM1.78848 13.9934C1.78848 13.9708 1.84032 13.9595 1.944 13.9595C1.99584 13.937 2.04768 13.9031 2.09952 13.8579C2.15136 13.8353 2.22912 13.824 2.3328 13.824C2.43648 13.7788 2.56608 13.7562 2.7216 13.7562C3.03264 13.7562 3.29184 13.7224 3.4992 13.6546C3.55104 13.632 3.6288 13.6207 3.73248 13.6207C3.6288 13.6659 3.4992 13.6885 3.34368 13.6885C3.24 13.7111 3.13632 13.745 3.03264 13.7901C2.87712 13.8127 2.69568 13.8353 2.48832 13.8579C2.3328 13.8805 2.2032 13.9257 2.09952 13.9934C1.99584 14.0386 1.89216 14.0386 1.78848 13.9934ZM47.9002 15.2132C47.7446 15.1906 47.6669 15.1454 47.6669 15.0777C47.6669 15.0777 47.6669 15.0551 47.6669 15.0099H47.7446C47.7965 15.0325 47.8483 15.0551 47.9002 15.0777C48.0038 15.1002 48.0557 15.1341 48.0557 15.1793C48.0038 15.2019 47.952 15.2132 47.9002 15.2132ZM38.4134 10.8085C38.4134 10.8085 38.5171 10.8311 38.7245 10.8762C38.6208 10.8988 38.569 10.9101 38.569 10.9101C38.4653 10.9101 38.3616 10.8875 38.2579 10.8424C38.2061 10.7972 38.1542 10.7633 38.1024 10.7407C38.3098 10.7407 38.4134 10.7633 38.4134 10.8085ZM37.4026 10.4358C37.5581 10.4584 37.7136 10.5035 37.8691 10.5713C37.7654 10.5939 37.6099 10.5487 37.4026 10.4358ZM0 0.474365C0.10368 0.496953 0.18144 0.508248 0.23328 0.508248C0.28512 0.508248 0.33696 0.519542 0.3888 0.54213C0.23328 0.54213 0.10368 0.530836 0 0.508248V0.474365Z" fill="#8CEB14"/>
</g>
</svg>
